<svg width="136" height="136" viewBox="0 0 136 136" fill="none" xmlns="http://www.w3.org/2000/svg">
<path d="M0 68C0 30.4446 30.4446 0 68 0V0C105.555 0 136 30.4446 136 68V68C136 105.555 105.555 136 68 136V136C30.4446 136 0 105.555 0 68V68Z" fill="#F2FB3E"/>
<mask id="mask0_47_197" style="mask-type:luminance" maskUnits="userSpaceOnUse" x="44" y="78" width="48" height="20">
<path d="M73.5322 78.7143C78.5188 79.6033 83.142 81.6514 86.4307 84.8619C89.3636 87.725 91.2315 91.4969 91.3586 96.178C91.3624 96.2107 91.3644 96.2441 91.3644 96.2779C91.3644 96.7574 90.9757 97.1461 90.4962 97.1461L44.8487 97.1459C44.3693 97.135 43.9896 96.7375 44.0002 96.2582C44.1116 91.5398 45.9844 87.7409 48.9343 84.8612C52.215 81.6585 56.8236 79.6127 61.796 78.7215C62.0359 78.6683 62.2941 78.7179 62.5002 78.8703L62.5985 78.9552L67.6823 84.039L72.7555 78.9658C72.9496 78.7652 73.2368 78.6617 73.5322 78.7143ZM73.6712 80.5054L68.2962 85.8805C67.9572 86.2196 67.4075 86.2196 67.0684 85.8805L61.6934 80.5054C57.2004 81.374 53.0738 83.24 50.1416 86.1025C47.6908 88.495 46.0717 91.5975 45.7775 95.4097H89.5872C89.2929 91.5976 87.674 88.4955 85.2234 86.1032C82.2912 83.2407 78.1646 81.3746 73.6712 80.5054Z" fill="white"/>
</mask>
<g mask="url(#mask0_47_197)">
<path d="M44 78.7007H91.3644V97.1461H44V78.7007Z" fill="black"/>
</g>
<path d="M45.7775 95.4097H67.6823H89.5872C89.2929 91.5976 87.674 88.4955 85.2234 86.1032C82.2912 83.2407 78.1646 81.3746 73.6712 80.5054L68.2962 85.8805C67.9571 86.2195 67.4075 86.2196 67.0684 85.8805L67.0653 85.8773L61.6934 80.5054C57.2004 81.374 53.0738 83.24 50.1416 86.1025C47.6908 88.495 46.0717 91.5975 45.7775 95.4097ZM67.6823 97.1461H44.8711H44.8684L44.8487 97.1459C44.3693 97.135 43.9896 96.7375 44.0002 96.2582L44.0037 96.2582C44.1116 91.5398 45.9844 87.7409 48.9343 84.8612C52.215 81.6585 56.8236 79.6127 61.796 78.7215C62.0759 78.6594 62.3807 78.7373 62.5985 78.9551L67.6823 84.039L72.7555 78.9658C72.9496 78.7652 73.2368 78.6617 73.5322 78.7143C78.5189 79.6027 83.142 81.6514 86.4307 84.8619C89.3636 87.725 91.2315 91.4969 91.3586 96.178C91.3624 96.2107 91.3644 96.2441 91.3644 96.2779C91.3644 96.7574 90.9757 97.1461 90.4962 97.1461H67.6823Z" stroke="black" stroke-miterlimit="10"/>
<mask id="mask1_47_197" style="mask-type:luminance" maskUnits="userSpaceOnUse" x="54" y="58" width="27" height="21">
<path d="M58.2349 68.3416L58.6022 67.7813C58.8166 67.9213 58.9487 68.14 58.9853 68.3746C59.732 72.1307 61.4004 74.5602 63.4279 75.8412C64.6723 76.6275 66.058 76.9852 67.4477 76.9542C68.8477 76.923 70.2583 76.4964 71.5407 75.715C73.835 74.317 75.7076 71.7853 76.3858 68.342L77.2371 68.5082L76.3852 68.3404C76.4359 68.083 76.5955 67.8747 76.8068 67.7541C79.0548 66.2392 78.9195 62.4936 78.6933 60.6305C78.3873 60.9047 78.0206 61.2159 77.5242 61.6372C77.2006 61.912 76.8249 62.231 76.4959 62.5126C76.3664 62.6265 76.2116 62.6928 76.0525 62.7147L75.9327 62.723H59.2117C58.9394 62.723 58.6965 62.5976 58.5373 62.4014L56.6985 60.4172C56.4581 62.2027 56.2168 66.2268 58.5989 67.7824L58.2349 68.3416ZM79.4109 59.3556L80.2164 59.1886C80.2207 59.2093 81.7301 66.1746 78.0172 69.0142C77.1825 72.7985 75.0482 75.606 72.4428 77.1936C70.9017 78.1327 69.1919 78.6456 67.4816 78.6838C65.7611 78.7222 64.0458 78.2795 62.5054 77.3063C60.1552 75.8215 58.2265 73.113 57.3462 69.0133C53.8362 66.3275 54.9951 59.9545 55.135 59.2528C55.19 58.8263 55.5546 58.4967 55.996 58.4967H56.9045C57.1377 58.4969 57.3703 58.5903 57.5413 58.7749L59.5882 60.9866H75.6156C75.9512 60.6998 76.1916 60.4958 76.4051 60.3146C77.2515 59.5961 77.7028 59.2131 78.0953 58.8092C78.2546 58.6183 78.4942 58.4967 78.7622 58.4967H79.3556C79.7633 58.4903 80.1315 58.773 80.2183 59.1869L79.4109 59.3556Z" fill="white"/>
</mask>
<g mask="url(#mask1_47_197)">
<path d="M54.8409 58.4966H80.5235V78.6861H54.8409V58.4966Z" fill="black"/>
</g>
<path d="M56.6985 60.4172C56.4581 62.2027 56.2168 66.2268 58.5989 67.7824L58.1275 68.5082L58.6022 67.7813C58.8166 67.9213 58.9487 68.14 58.9853 68.3746C59.732 72.1307 61.4004 74.5602 63.4279 75.8412C64.6723 76.6275 66.058 76.9852 67.4477 76.9542C68.8477 76.923 70.2583 76.4964 71.5407 75.715C73.835 74.317 75.7076 71.7853 76.3858 68.342L77.2371 68.5082L76.3852 68.3404C76.4359 68.083 76.5955 67.8747 76.8068 67.7541C79.0548 66.2392 78.9195 62.4936 78.6933 60.6305C78.3873 60.9047 78.0206 61.2159 77.5242 61.6372C77.2006 61.912 76.8249 62.231 76.4959 62.5126L76.4974 62.5143C76.3336 62.6545 76.1327 62.723 75.9327 62.7229L67.5722 62.723H59.2117C58.9394 62.723 58.6965 62.5976 58.5373 62.4014L56.6985 60.4172ZM57.3462 69.0134C53.8362 66.3275 54.9951 59.9545 55.135 59.2528C55.19 58.8263 55.5546 58.4967 55.996 58.4967H56.9045C57.1377 58.4969 57.3703 58.5903 57.5413 58.7749L57.5399 58.7762L59.5882 60.9866H67.5722H75.6156C75.9512 60.6998 76.1916 60.4958 76.4051 60.3146C77.2515 59.5961 77.7028 59.2131 78.0953 58.8092C78.2546 58.6183 78.4942 58.4967 78.7622 58.4967H79.3556C79.7633 58.4903 80.1315 58.773 80.2183 59.1869L79.3685 59.365L80.2164 59.1886C80.2207 59.2093 81.7301 66.1746 78.0172 69.0142C77.1825 72.7985 75.0482 75.606 72.4428 77.1936C70.9017 78.1327 69.1919 78.6456 67.4816 78.6838C65.7611 78.7222 64.0458 78.2795 62.5054 77.3063C60.1552 75.8215 58.2265 73.113 57.3462 69.0134Z" stroke="black" stroke-miterlimit="10"/>
<mask id="mask2_47_197" style="mask-type:luminance" maskUnits="userSpaceOnUse" x="53" y="41" width="29" height="22">
<path d="M55.9609 55.6358L55.4943 56.5688L59.5882 60.9866H75.6156C75.9509 60.7002 76.1926 60.4949 76.4066 60.3134C77.2573 59.5913 77.7092 59.2076 78.1013 58.8032C78.3425 58.5544 78.5748 58.2848 78.8753 57.9126L79.1146 57.613C79.3267 57.3452 79.573 57.0294 79.8722 56.6457L79.8944 56.6172L79.4399 55.7082C79.3682 55.5933 79.3224 55.4598 79.3113 55.3154L80.177 55.2491L79.3121 55.3136C79.3095 55.2781 78.4867 42.9624 67.771 43.3241C67.7311 43.3281 67.6905 43.3296 67.6493 43.328C57.2285 42.9312 56.1189 54.491 56.0556 55.2717C56.0525 55.3951 56.023 55.5197 55.9641 55.6374L55.5335 55.4215L55.9609 55.6358ZM53.8158 57.3091C53.5436 57.0154 53.5134 56.5839 53.7157 56.2597L54.3372 55.0168C54.3488 54.895 54.3689 54.71 54.4011 54.4725L54.4318 54.2564C54.8953 51.1327 57.1938 41.2164 67.6823 41.595C67.6934 41.5946 67.7041 41.5947 67.7152 41.5943L67.736 41.5939C79.3261 41.2137 80.8753 53.4361 81.0274 55.0168L81.6852 56.3324L81.2315 56.5585L81.6885 56.3308C81.8553 56.6644 81.7871 57.0542 81.5466 57.3118L81.2355 57.7105C80.2929 58.9195 79.8508 59.4863 79.3426 60.0105C78.8869 60.4806 78.4146 60.8814 77.5257 61.6359C77.2021 61.9107 76.8274 62.2287 76.4959 62.5125C76.3664 62.6264 76.2116 62.6927 76.0525 62.7147L75.9327 62.723H59.2117C58.9394 62.723 58.6965 62.5976 58.5373 62.4014L53.8184 57.3091L54.3035 56.8565L53.8158 57.3091Z" fill="white"/>
</mask>
<g mask="url(#mask2_47_197)">
<path d="M53.5845 41.5845H81.7803V62.723H53.5845V41.5845Z" fill="black"/>
</g>
<path d="M54.3371 55.0168C54.4894 53.4334 56.0426 41.1748 67.6823 41.595C67.6934 41.5946 67.7041 41.5947 67.7152 41.5943L67.7152 41.5929L67.736 41.5939C79.3261 41.2137 80.8753 53.4361 81.0274 55.0168L81.6852 56.3324L80.912 56.719L81.6885 56.3308C81.8553 56.6644 81.7871 57.0542 81.5466 57.3118L81.2355 57.7105C80.2929 58.9195 79.8508 59.4863 79.3426 60.0105C78.8869 60.4806 78.4146 60.8814 77.5257 61.6359C77.2021 61.9107 76.8274 62.2287 76.4959 62.5125L76.4974 62.5143C76.3336 62.6545 76.1327 62.723 75.9327 62.723H67.5722H59.2117C58.9394 62.723 58.6965 62.5976 58.5373 62.4014L53.8184 57.3091L54.4526 56.7191L53.8158 57.3091C53.5436 57.0154 53.5134 56.5839 53.7157 56.2597L54.3371 55.0168ZM67.6494 43.3252C57.2285 42.9312 56.1189 54.491 56.0556 55.2717C56.0525 55.3951 56.023 55.5197 55.9641 55.6374L55.1876 55.2491L55.9609 55.6358L55.4943 56.5688L59.5882 60.9866H67.5722H75.6156C75.9509 60.7002 76.1926 60.4949 76.4066 60.3134C77.2573 59.5913 77.7092 59.2076 78.1013 58.8032C78.5535 58.3367 78.9745 57.7969 79.8722 56.6457L79.8944 56.6172L79.4399 55.7082C79.3682 55.5933 79.3224 55.4598 79.3113 55.3154L80.177 55.2491L79.3121 55.3136C79.3095 55.2781 78.4867 42.9624 67.771 43.3241C67.7311 43.3281 67.6905 43.3296 67.6493 43.328L67.6494 43.3252Z" stroke="black" stroke-miterlimit="10"/>
<mask id="mask3_47_197" style="mask-type:luminance" maskUnits="userSpaceOnUse" x="64" y="41" width="3" height="7">
<path d="M65.6151 41.6647C66.0946 41.6647 66.4833 42.0534 66.4833 42.5329V46.3197C66.4833 46.7991 66.0946 47.1879 65.6151 47.1879C65.1357 47.1879 64.7469 46.7991 64.7469 46.3197V42.5329C64.7469 42.0534 65.1357 41.6647 65.6151 41.6647Z" fill="white"/>
</mask>
<g mask="url(#mask3_47_197)">
<path d="M64.7469 41.6647H66.4833V47.1879H64.7469V41.6647Z" fill="black"/>
</g>
<path d="M66.4833 42.5329C66.4833 42.0534 66.0946 41.6647 65.6151 41.6647C65.1357 41.6647 64.7469 42.0534 64.7469 42.5329V46.3197C64.7469 46.7991 65.1357 47.1879 65.6151 47.1879C66.0946 47.1879 66.4833 46.7991 66.4833 46.3197V42.5329Z" stroke="black" stroke-miterlimit="10"/>
<mask id="mask4_47_197" style="mask-type:luminance" maskUnits="userSpaceOnUse" x="68" y="41" width="3" height="7">
<path d="M69.7495 41.6647C70.229 41.6647 70.6177 42.0534 70.6177 42.5329V46.3197C70.6177 46.7991 70.229 47.1879 69.7495 47.1879C69.27 47.1879 68.8813 46.7991 68.8813 46.3197V42.5329C68.8813 42.0534 69.27 41.6647 69.7495 41.6647Z" fill="white"/>
</mask>
<g mask="url(#mask4_47_197)">
<path d="M68.8813 41.6647H70.6177V47.1879H68.8813V41.6647Z" fill="black"/>
</g>
<path d="M70.6177 42.5329C70.6177 42.0534 70.229 41.6647 69.7495 41.6647C69.27 41.6647 68.8813 42.0534 68.8813 42.5329V46.3197C68.8813 46.7991 69.27 47.1879 69.7495 47.1879C70.229 47.1879 70.6177 46.7991 70.6177 46.3197V42.5329Z" stroke="black" stroke-miterlimit="10"/>
</svg>
