<svg width="136" height="136" viewBox="0 0 136 136" fill="none" xmlns="http://www.w3.org/2000/svg">
<mask id="mask0_47_183" style="mask-type:luminance" maskUnits="userSpaceOnUse" x="0" y="0" width="136" height="136">
<path d="M68 0C105.555 0 136 30.4446 136 68C136 105.555 105.555 136 68 136C30.4446 136 0 105.555 0 68C0 30.4446 30.4446 0 68 0Z" fill="white"/>
</mask>
<g mask="url(#mask0_47_183)">
<path d="M0 0H136V136H0V0Z" fill="#F2FB3E"/>
</g>
<mask id="mask1_47_183" style="mask-type:luminance" maskUnits="userSpaceOnUse" x="41" y="33" width="54" height="70">
<path d="M67.71 33C68.5112 33 69.3142 33.2012 70.0791 33.6018L73.5884 35.438C73.7719 35.534 73.9583 35.6076 74.153 35.6597C74.343 35.71 74.5414 35.7398 74.7511 35.7482L78.7094 35.9131C79.5702 35.9485 80.3677 36.1786 81.0664 36.5829C81.8107 37.0469 82.3455 37.5369 82.8197 38.2841L84.9819 41.6956C85.0797 41.8409 85.1915 41.976 85.3182 42.1027C85.4626 42.2471 85.6201 42.3719 85.7915 42.4819L89.2105 44.6488C89.9008 45.1015 90.4486 45.6819 90.8371 46.3536C91.2414 47.0542 91.4715 47.8516 91.5069 48.7106L91.6708 52.6699C91.6792 52.8776 91.709 53.0761 91.7603 53.268C91.8087 53.4506 91.8851 53.6359 91.9867 53.8325L93.8182 57.3409C94.2188 58.1067 94.42 58.9098 94.42 59.7109C94.42 60.5121 94.2188 61.3142 93.8182 62.08L91.982 65.5893C91.886 65.7729 91.8115 65.9601 91.7603 66.1539C91.709 66.3458 91.6792 66.5452 91.6708 66.7529L91.5069 70.7085C91.4715 71.5684 91.2423 72.3658 90.838 73.0664L90.7933 73.1381C90.3908 73.8061 89.8328 74.3781 89.1369 74.8197L85.7253 76.9819C85.58 77.0797 85.4449 77.1915 85.3182 77.3182L85.2633 77.3695C85.1459 77.4934 85.0378 77.6331 84.9381 77.7906L84.1342 79.0613L92.1497 92.945C92.4729 93.5086 92.2792 94.2296 91.7156 94.5529C91.4892 94.6833 91.2367 94.729 90.9954 94.702L82.4703 93.7079L78.8753 101.709C78.6107 102.303 77.912 102.569 77.3176 102.305C77.0633 102.191 76.8686 101.998 76.7503 101.768L67.8889 86.4172L67.71 86.4209L67.5321 86.4172L58.6707 101.768C58.5523 101.998 58.3576 102.191 58.1033 102.305C57.5089 102.569 56.8102 102.303 56.5457 101.709L52.9506 93.7079L44.4264 94.7057C44.1833 94.7318 43.929 94.6852 43.7007 94.5529C43.1371 94.2268 42.9452 93.5039 43.2712 92.9403L51.2849 79.0613L50.4371 77.7216C50.3356 77.5707 50.2257 77.4365 50.1064 77.3182C49.9564 77.1729 49.799 77.0471 49.6285 76.9381L46.2095 74.7712C45.5229 74.3213 44.9752 73.7409 44.5848 73.0655C44.1786 72.3677 43.9485 71.5702 43.9131 70.7094L43.7492 66.752C43.7408 66.5442 43.711 66.3458 43.6597 66.1539C43.6085 65.9601 43.534 65.7729 43.438 65.5893L41.6018 62.08C41.2012 61.3142 41 60.5121 41 59.7109C41 58.9098 41.2012 58.1067 41.6018 57.3409L43.4371 53.8344C43.5349 53.6359 43.6113 53.4496 43.6597 53.267C43.711 53.0751 43.7408 52.8767 43.7492 52.6689L43.9131 48.7115C43.9476 47.873 44.1814 46.9983 44.6267 46.2828C45.0283 45.6148 45.5872 45.0419 46.2831 44.6003L49.6937 42.439C49.84 42.3393 49.9751 42.2294 50.1018 42.1027C50.2471 41.9574 50.3729 41.7999 50.4819 41.6294L52.6488 38.2105C53.0987 37.5239 53.6791 36.9752 54.3545 36.5848C55.0523 36.1786 55.8498 35.9485 56.7106 35.9131L60.6689 35.7482C60.8786 35.7398 61.077 35.71 61.267 35.6597C61.4617 35.6076 61.6481 35.534 61.8316 35.438L65.3409 33.6018C66.1058 33.2012 66.9088 33 67.71 33ZM52.7121 81.3092L46.4899 92.0851L53.5366 91.2606C54.0853 91.1982 54.5912 91.5233 54.7766 92.0189L57.754 98.6436L65.2003 85.7455L61.8316 83.9829C61.6481 83.887 61.4617 83.8134 61.267 83.7612C61.0751 83.71 60.8767 83.6802 60.6689 83.6718L56.7106 83.5069C55.8498 83.4715 55.0523 83.2414 54.3536 82.8371C53.6651 82.402 53.1789 81.9874 52.7121 81.3092ZM82.7107 81.3055C82.271 81.9436 81.7139 82.4607 81.0655 82.8352C80.3677 83.2414 79.5702 83.4715 78.7094 83.5069L74.7511 83.6718C74.5414 83.6802 74.343 83.71 74.153 83.7603C73.9583 83.8124 73.771 83.887 73.5884 83.982L70.2197 85.7455L77.667 98.6436L80.6444 92.0189C80.8298 91.5233 81.3356 91.1982 81.8843 91.2606L88.9338 92.0851L82.7107 81.3055ZM67.71 35.3663C67.2777 35.3663 66.8427 35.4753 66.4309 35.6905L62.9216 37.5267C62.5685 37.7111 62.2238 37.8499 61.8763 37.9422C61.5251 38.0353 61.158 38.0884 60.7621 38.1052L56.8037 38.2701C56.3351 38.2896 55.9057 38.4117 55.5367 38.625C55.1827 38.8262 54.8762 39.1197 54.6294 39.4933L52.4755 42.8946C52.2556 43.2337 52.0265 43.5243 51.7749 43.7759C51.5457 44.005 51.283 44.2146 50.9821 44.4131L47.5492 46.5958C47.1644 46.8362 46.8635 47.138 46.6539 47.4818C46.4117 47.9355 46.2915 48.283 46.2701 48.8047L46.1061 52.7621C46.0893 53.159 46.0353 53.5269 45.9422 53.8763C45.8462 54.2359 45.7093 54.5797 45.5313 54.9225L43.6905 58.4309C43.4753 58.8436 43.3663 59.2787 43.3663 59.7109C43.3663 60.1432 43.4753 60.5773 43.6905 60.99L45.5267 64.4994C45.7111 64.8525 45.8499 65.1971 45.9422 65.5446C46.0353 65.894 46.0893 66.262 46.1061 66.6588L46.2701 70.6163C46.2896 71.0849 46.4117 71.5143 46.625 71.8833C46.8262 72.2363 47.1188 72.5438 47.4914 72.7897L50.8936 74.9445C51.2327 75.1644 51.5234 75.3935 51.7749 75.6451C52.0069 75.8817 52.2193 76.1426 52.4131 76.4369L54.5958 79.8708C54.839 80.2546 55.1408 80.5565 55.4818 80.7652C55.9289 81.0074 56.2885 81.1285 56.8037 81.1499L60.7621 81.3148C61.159 81.3316 61.5269 81.3856 61.8763 81.4788C62.2238 81.571 62.5685 81.7098 62.9216 81.8943L66.4309 83.7305C66.8427 83.9457 67.2777 84.0547 67.71 84.0547C68.1423 84.0547 68.5773 83.9457 68.9891 83.7305L72.4984 81.8933C72.8525 81.7089 73.1962 81.5719 73.5437 81.4778C73.8949 81.3847 74.262 81.3316 74.6579 81.3148L78.6163 81.1499C79.0849 81.1304 79.5143 81.0083 79.8833 80.795C80.2494 80.5863 80.5689 80.2733 80.8242 79.8708L82.9445 76.5254C83.1401 76.2245 83.3479 75.9581 83.578 75.7187L83.6451 75.6451C83.8743 75.4159 84.137 75.2044 84.4388 75.006L87.8708 72.8242C88.2556 72.5838 88.5565 72.2829 88.7661 71.9392L88.7959 71.8833C89.0092 71.5143 89.1304 71.0839 89.1499 70.6153L89.3139 66.6598C89.3306 66.2629 89.3847 65.8949 89.4778 65.5446C89.5701 65.1971 89.7089 64.8525 89.8933 64.4994L91.7295 60.99C91.9447 60.5773 92.0537 60.1432 92.0537 59.7109C92.0537 59.2787 91.9447 58.8436 91.7295 58.4309L89.8887 54.9225C89.7107 54.5797 89.5738 54.2368 89.4778 53.8772C89.3847 53.5279 89.3306 53.1599 89.3139 52.763L89.1499 48.8037C89.1304 48.3361 89.0083 47.9066 88.795 47.5367C88.591 47.1837 88.2975 46.8744 87.9267 46.6294L84.5264 44.4755C84.1882 44.2556 83.8966 44.0274 83.6451 43.7759C83.4159 43.5467 83.2044 43.284 83.006 42.9821L80.8242 39.5501C80.5838 39.1654 80.2829 38.8644 79.9392 38.6548C79.4855 38.4126 79.138 38.2915 78.6163 38.2701L74.6579 38.1052C74.262 38.0884 73.8949 38.0353 73.5437 37.9422C73.1962 37.8499 72.8515 37.7111 72.4984 37.5267L68.9891 35.6905C68.5773 35.4753 68.1423 35.3663 67.71 35.3663ZM67.71 40.614C72.9829 40.614 77.7583 42.752 81.2136 46.2073C84.8198 50.0716 86.8069 54.3523 86.8069 59.71C86.8069 64.9829 84.6689 69.7583 81.2136 73.2136C77.7583 76.6689 72.9829 78.8069 67.71 78.8069C62.4371 78.8069 57.6617 76.6689 54.2064 73.2136C50.7511 69.7583 48.6131 64.9829 48.6131 59.71C48.6131 54.4409 50.752 49.6664 54.2092 46.2101C57.6617 42.752 62.4371 40.614 67.71 40.614ZM67.71 42.9803C63.0902 42.9803 58.9063 44.8537 55.8796 47.8805C52.8509 50.9036 50.9793 55.0874 50.9793 59.71C50.9793 64.3298 52.8528 68.5137 55.8796 71.5404C58.9063 74.5672 63.0902 76.4407 67.71 76.4407C72.3298 76.4407 76.5137 74.5672 79.5404 71.5404C82.5672 68.5137 84.4407 64.3298 84.4407 59.71C84.4407 55.5131 82.6632 50.7592 79.5404 47.8805C76.5137 44.8537 72.3298 42.9803 67.71 42.9803ZM67.7109 49.8415C68.2447 49.8415 68.7469 49.9887 69.1782 50.257C69.6114 50.5263 69.9645 50.9157 70.1992 51.3964L71.7522 54.575C71.7848 54.6421 71.8268 54.6952 71.8724 54.7278L71.9069 54.7539L72.055 54.7977L75.5569 55.2923C76.0898 55.3669 76.5677 55.5821 76.9552 55.9072C77.3446 56.2333 77.6409 56.6674 77.8058 57.177C77.9707 57.6838 77.9874 58.2064 77.8645 58.6992C77.7434 59.1911 77.4825 59.6467 77.0996 60.0184L74.5536 62.4778C74.5005 62.5328 74.4623 62.5896 74.4455 62.6427C74.4278 62.7014 74.425 62.7703 74.4371 62.8448L75.0492 66.3272C75.1414 66.8526 75.0827 67.3715 74.8936 67.841C74.6905 68.3441 74.3412 68.7708 73.8949 69.0773C73.4738 69.3698 72.9987 69.5375 72.5161 69.571C72.014 69.6064 71.5026 69.5012 71.0284 69.2505L67.8544 67.5671C67.8078 67.5485 67.7575 67.5392 67.7081 67.5392C67.6439 67.5392 67.5777 67.556 67.519 67.5867L64.3134 69.2897C63.8634 69.5105 63.3799 69.6046 62.9039 69.571C62.3496 69.5319 61.826 69.3241 61.3919 68.9795C60.9978 68.673 60.7034 68.2798 60.5264 67.8401C60.3373 67.3706 60.2786 66.8517 60.3708 66.3262L60.9857 62.8225C60.9941 62.7545 60.9903 62.693 60.9745 62.6436C60.9568 62.5877 60.9195 62.53 60.8683 62.4806L58.3269 60.023C57.9338 59.6429 57.6599 59.1706 57.5415 58.6368C57.4363 58.1626 57.4568 57.6623 57.6151 57.176C57.78 56.6665 58.0763 56.2323 58.4657 55.9063C58.8532 55.5811 59.3312 55.3659 59.8594 55.2914L63.3678 54.7967C63.4386 54.7874 63.5019 54.7613 63.5513 54.7259L63.5811 54.7054L63.6706 54.5731L65.286 51.2827C65.5189 50.856 65.8477 50.5086 66.2427 50.2617C66.6741 49.9887 67.1781 49.8415 67.7109 49.8415ZM67.7109 52.2078C67.6252 52.2078 67.5479 52.2283 67.4911 52.2637C67.4445 52.2888 67.4035 52.3308 67.37 52.3839L65.7965 55.6091C65.6139 55.9836 65.3549 56.3031 65.0391 56.5565L64.9375 56.6394C64.5807 56.8984 64.1578 57.0689 63.692 57.135L60.1929 57.6297C60.1081 57.6409 60.0355 57.6726 59.9823 57.7173C59.9302 57.7602 59.8883 57.8263 59.8622 57.9064C59.8417 57.9726 59.8286 58.0629 59.8482 58.13C59.865 58.198 59.905 58.266 59.9628 58.3219L62.5042 60.7795C62.8424 61.1065 63.0846 61.4931 63.2215 61.9132C63.3538 62.3194 63.3883 62.7554 63.3184 63.1951L62.6998 66.7324C62.6849 66.8191 62.6924 66.8992 62.7175 66.9625C62.738 67.0138 62.7744 67.0631 62.8219 67.1051L62.8591 67.1302C62.9281 67.1805 63.0026 67.2094 63.0697 67.2141C63.1284 67.2178 63.1917 67.2066 63.256 67.1787L66.4104 65.5027C66.8296 65.2847 67.2712 65.1729 67.7081 65.1729C68.1078 65.1729 68.5093 65.2651 68.8941 65.4505L72.1323 67.1619C72.205 67.202 72.2814 67.2187 72.3503 67.2141C72.4165 67.2103 72.4807 67.188 72.5404 67.1498C72.6112 67.0976 72.668 67.0482 72.7025 66.9635C72.7276 66.9001 72.7351 66.82 72.7202 66.7334L72.109 63.251C72.0298 62.7899 72.0615 62.3381 72.1985 61.917C72.3373 61.494 72.5786 61.1093 72.9102 60.7879L75.4544 58.3266C75.5159 58.2669 75.5569 58.1989 75.5727 58.1347C75.5886 58.0685 75.5848 57.9884 75.5588 57.9073C75.5327 57.8272 75.4908 57.7611 75.4386 57.7182C75.3855 57.6735 75.3128 57.6418 75.228 57.6307L71.7308 57.136C71.3125 57.0764 70.9259 56.931 70.5877 56.7074L70.4862 56.6413C70.1247 56.3786 69.8303 56.0302 69.6263 55.6109L68.0733 52.4323C68.037 52.3578 67.9858 52.2982 67.9299 52.2637C67.873 52.2283 67.7966 52.2078 67.7109 52.2078Z" fill="white"/>
</mask>
<g mask="url(#mask1_47_183)">
<path d="M41 33H94.42V102.407H41V33Z" fill="black"/>
</g>
</svg>
