<svg width="136" height="136" viewBox="0 0 136 136" fill="none" xmlns="http://www.w3.org/2000/svg">
<mask id="mask0_47_59" style="mask-type:luminance" maskUnits="userSpaceOnUse" x="0" y="0" width="136" height="136">
<path d="M68 0C105.555 0 136 30.4446 136 68C136 105.555 105.555 136 68 136C30.4446 136 0 105.555 0 68C0 30.4446 30.4446 0 68 0Z" fill="white"/>
</mask>
<g mask="url(#mask0_47_59)">
<path d="M0 0H136V136H0V0Z" fill="#F2FB3E"/>
</g>
<mask id="mask1_47_59" style="mask-type:luminance" maskUnits="userSpaceOnUse" x="56" y="51" width="25" height="26">
<path d="M79.7134 51.9713C80.1223 51.9713 80.3949 52.3121 80.3949 52.6528V75.3477C80.3949 75.7567 80.1223 76.0293 79.7134 76.0293H59.4038C58.9949 76.0293 58.7223 75.7567 58.7223 75.3477V67.1694H57.0866C56.6777 67.1694 56.4051 66.8968 56.4051 66.4879V59.6726C56.4051 59.2637 56.6777 58.9911 57.0866 58.9911H58.7223V57.3554C58.7223 56.9465 58.9949 56.6739 59.4038 56.6739H72.5573V52.0395H73.9204V57.3554C73.9204 57.5598 73.8522 57.6962 73.7159 57.8325C73.5796 57.9688 73.4433 58.0369 73.2388 58.0369H60.0853V74.6662H72.2847V67.9872H73.6478V74.6662H79.0318V69.2821H77.4643V67.9191H79.0318V53.3344H77.4643V51.9713H79.7134ZM58.7223 60.3541H57.7681V65.8063H58.7223V60.3541Z" fill="white"/>
</mask>
<g mask="url(#mask1_47_59)">
<path d="M56.4051 51.9713H80.3949V76.0293H56.4051V51.9713Z" fill="black"/>
</g>
<path d="M79.7134 51.9713H77.4643V53.3344H79.0318V57.3554V67.9191H77.4643V69.2821H79.0318V74.6662H73.6478V67.9872H72.2847V74.6662H60.0853V66.4879V59.6726V58.0369H73.2388C73.4433 58.0369 73.5796 57.9688 73.7159 57.8325C73.8522 57.6962 73.9204 57.5598 73.9204 57.3554V52.0395H72.5573V56.6739H59.4038C58.9949 56.6739 58.7223 56.9465 58.7223 57.3554V58.9911H57.0866C56.6777 58.9911 56.4051 59.2637 56.4051 59.6726V66.4879C56.4051 66.8968 56.6777 67.1694 57.0866 67.1694H58.7223V75.3477C58.7223 75.7567 58.9949 76.0293 59.4038 76.0293H79.7134C80.1223 76.0293 80.3949 75.7567 80.3949 75.3477V57.3554V52.6528C80.3949 52.3121 80.1223 51.9713 79.7134 51.9713ZM57.7681 60.3541H58.7223V65.8063H57.7681V60.3541Z" stroke="black" stroke-width="0.6" stroke-miterlimit="10"/>
<mask id="mask2_47_59" style="mask-type:luminance" maskUnits="userSpaceOnUse" x="47" y="38" width="43" height="60">
<path d="M75.2834 38C75.8287 38 76.3057 38.4771 76.3057 39.0223V41.2713H88.7777C89.3229 41.2713 89.8 41.7484 89.8 42.2936V81.8223C89.8 83.049 89.3229 84.2076 88.4369 85.0936L77.0554 96.407C76.1694 97.293 75.0108 97.7701 73.7841 97.7701H48.0223C47.4771 97.7701 47 97.3611 47 96.7478V42.2255C47 41.6803 47.4771 41.2032 48.0223 41.2032H60.4943V39.0223C60.4943 38.4771 60.9713 38 61.5166 38H75.2834ZM60.4943 43.2478H49.0446V95.7255H73.7841C74.193 95.7255 74.6019 95.5892 74.9427 95.4529V87.8879C74.9427 85.2299 77.0554 83.1172 79.7134 83.1172H87.3465C87.6191 82.7083 87.7554 82.2312 87.7554 81.7541V43.2478H76.3057V45.0197C76.3057 45.565 75.8287 46.042 75.2834 46.042H61.5166C60.9713 46.042 60.4943 45.565 60.4943 45.0197V43.2478ZM85.3701 85.2299H79.6452C78.1459 85.2299 76.9191 86.4567 76.9191 87.9561V93.6809L85.3701 85.2299ZM74.2611 40.0446H62.5389V44.0656H74.2611V40.0446Z" fill="white"/>
</mask>
<g mask="url(#mask2_47_59)">
<path d="M47 38H89.8V97.7701H47V38Z" fill="black"/>
</g>
</svg>
