<svg width="137" height="137" viewBox="0 0 137 137" fill="none" xmlns="http://www.w3.org/2000/svg">
<mask id="mask0_47_147" style="mask-type:luminance" maskUnits="userSpaceOnUse" x="0" y="0" width="137" height="137">
<path d="M68.7167 0.772949C106.272 0.772949 136.717 31.2176 136.717 68.7729C136.717 106.328 106.272 136.773 68.7167 136.773C31.1613 136.773 0.716675 106.328 0.716675 68.7729C0.716675 31.2176 31.1613 0.772949 68.7167 0.772949Z" fill="white"/>
</mask>
<g mask="url(#mask0_47_147)">
<path d="M0.716675 0.772949H136.717V136.773H0.716675V0.772949Z" fill="#F2FB3E"/>
</g>
<mask id="mask1_47_147" style="mask-type:luminance" maskUnits="userSpaceOnUse" x="40" y="44" width="58" height="30">
<path d="M95.6024 45.2156C71.7454 73.0571 41.7434 71.3792 41.6565 71.3752C41.1594 71.3537 40.739 71.7394 40.7175 72.2365C40.6961 72.7335 41.0817 73.154 41.5788 73.1754C41.6683 73.1795 72.5362 74.9045 96.972 46.3875C97.2956 46.0093 97.2513 45.4403 96.8732 45.1167C96.495 44.7932 95.926 44.8374 95.6024 45.2156Z" fill="white"/>
</mask>
<g mask="url(#mask1_47_147)">
<path d="M97.1885 44.9003H40.7167V73.1967H97.1885V44.9003Z" fill="black"/>
</g>
<path d="M41.6565 71.3752C41.1594 71.3537 40.739 71.7394 40.7175 72.2365C40.6961 72.7335 41.0817 73.154 41.5788 73.1754C41.6683 73.1795 72.5362 74.9045 96.972 46.3875C97.2956 46.0093 97.2513 45.4403 96.8732 45.1167C96.495 44.7932 95.926 44.8374 95.6024 45.2156C71.7454 73.0571 41.7433 71.3792 41.6565 71.3752Z" stroke="black" stroke-miterlimit="10"/>
<mask id="mask2_47_147" style="mask-type:luminance" maskUnits="userSpaceOnUse" x="82" y="44" width="16" height="16">
<path d="M96.5166 44.7729L83.0312 44.7759C82.6094 44.7759 82.2675 45.1178 82.2675 45.5396C82.2675 45.9613 82.6094 46.3033 83.0312 46.3033L95.7529 46.3033L95.753 59.025C95.753 59.4468 96.0949 59.7887 96.5166 59.7887C96.9384 59.7887 97.2803 59.4468 97.2803 59.025L97.2803 45.607C97.2822 45.5848 97.2833 45.5623 97.2833 45.5396C97.2833 45.1162 96.94 44.7729 96.5166 44.7729Z" fill="white"/>
</mask>
<g mask="url(#mask2_47_147)">
<path d="M97.2833 44.7729H82.2675V59.7887H97.2833V44.7729Z" fill="black"/>
</g>
<path d="M83.0312 44.7759C82.6094 44.7759 82.2675 45.1178 82.2675 45.5396C82.2675 45.9613 82.6094 46.3033 83.0312 46.3033L95.7529 46.3033L95.753 59.025C95.753 59.4468 96.0949 59.7887 96.5166 59.7887C96.9384 59.7887 97.2803 59.4468 97.2803 59.025L97.2803 45.607C97.2822 45.5848 97.2833 45.5623 97.2833 45.5396C97.2833 45.1162 96.94 44.7729 96.5166 44.7729V44.7759L83.0312 44.7759Z" stroke="black" stroke-miterlimit="10"/>
<mask id="mask3_47_147" style="mask-type:luminance" maskUnits="userSpaceOnUse" x="49" y="61" width="40" height="32">
<path d="M87.4014 61.576C86.9024 61.576 86.4978 61.9806 86.4978 62.4797L86.4978 92.583H88.305V62.4797C88.305 61.9806 87.9005 61.576 87.4014 61.576ZM50.5034 77.2354C50.0044 77.2354 49.5998 77.64 49.5998 78.1391V92.5831H51.4071V78.1391C51.4071 77.64 51.0025 77.2354 50.5034 77.2354ZM59.7279 75.1964C59.2289 75.1964 58.8243 75.601 58.8243 76.1001L58.8243 92.5831H60.6316V76.1001C60.6316 75.601 60.227 75.1964 59.7279 75.1964ZM68.9524 72.19C68.4534 72.19 68.0488 72.5946 68.0488 73.0937L68.0488 92.5831H69.856V73.0937C69.856 72.5946 69.4514 72.19 68.9524 72.19ZM78.1769 67.2954C77.6778 67.2954 77.2732 67.7 77.2732 68.199L77.2733 92.583H79.0805V68.199C79.0805 67.7 78.6759 67.2954 78.1769 67.2954Z" fill="white"/>
</mask>
<g mask="url(#mask3_47_147)">
<path d="M88.305 61.576H49.5998V92.5831H88.305V61.576Z" fill="black"/>
</g>
<path d="M86.4978 62.4797C86.4978 61.9806 86.9024 61.576 87.4014 61.576C87.9005 61.576 88.305 61.9806 88.305 62.4797V92.583H86.4978L86.4978 62.4797ZM49.5998 78.1391C49.5998 77.64 50.0044 77.2354 50.5034 77.2354C51.0025 77.2354 51.4071 77.64 51.4071 78.1391V92.5831H49.5998V78.1391ZM58.8243 76.1001C58.8243 75.601 59.2289 75.1964 59.7279 75.1964C60.227 75.1964 60.6316 75.601 60.6316 76.1001V92.5831H58.8243L58.8243 76.1001ZM68.0488 73.0937C68.0488 72.5946 68.4534 72.19 68.9524 72.19C69.4514 72.19 69.856 72.5946 69.856 73.0937V92.5831H68.0488L68.0488 73.0937ZM77.2732 68.199C77.2732 67.7 77.6778 67.2954 78.1769 67.2954C78.6759 67.2954 79.0805 67.7 79.0805 68.199V92.583H77.2733L77.2732 68.199Z" stroke="black" stroke-miterlimit="10"/>
</svg>
