<svg width="141" height="136" viewBox="0 0 141 136" fill="none" xmlns="http://www.w3.org/2000/svg">
<mask id="mask0_121_1386" style="mask-type:luminance" maskUnits="userSpaceOnUse" x="0" y="0" width="141" height="136">
<path d="M70.3584 0C109.216 0 140.717 30.4446 140.717 68C140.717 105.555 109.216 136 70.3584 136C31.5005 136 0 105.555 0 68C0 30.4446 31.5005 0 70.3584 0Z" fill="white"/>
</mask>
<g mask="url(#mask0_121_1386)">
<path d="M0 0H140.717V136H0V0Z" fill="#F2FB3E"/>
</g>
<path d="M71.6929 54.2519C62.5728 52.1819 55.5125 60.5923 56.2281 69.1446C56.9408 77.6737 64.7253 83.9112 73.1255 82.2845C80.2032 80.9141 85.5426 72.7124 84.5706 65.7129C83.1872 55.7526 72.0565 50.4654 63.5071 55.5064C63.0131 55.7975 63.4448 56.4624 63.9431 56.2524C69.3086 53.9839 74.1395 54.249 78.7851 57.9313C81.5605 60.1316 83.0786 63.2953 83.2915 66.7849C83.6609 72.8688 79.1675 78.6428 73.5992 80.5897C66.0218 83.242 59.5018 76.9262 57.8823 70.0152C55.9297 61.6845 63.1927 53.9723 71.5958 54.9661C72.0087 55.0197 72.0898 54.3417 71.6929 54.2519Z" fill="#231F20"/>
<path d="M52.3067 45.2797C54.6925 42.5202 58.9281 40.8863 62.5177 40.6719C63.2926 40.6255 63.297 39.4145 62.5177 39.4623C58.6326 39.6955 54.1131 41.5164 51.6665 44.6409C51.3174 45.0885 51.92 45.7288 52.3067 45.2797Z" fill="#231F20"/>
<path d="M61.8398 33.3646C61.692 34.7653 61.7196 36.1371 61.834 37.5393C61.9035 38.3809 61.8195 39.6021 62.5728 40.1236C62.7147 40.2206 62.919 40.1482 63.0001 40.012C63.4752 39.2168 62.9595 37.9927 62.8741 37.1164C62.7524 35.8662 62.6973 34.6147 62.5568 33.3646C62.5061 32.9039 61.889 32.9025 61.8398 33.3646Z" fill="#231F20"/>
<path d="M62.2714 33.5227C64.3486 33.0418 66.281 32.4754 68.4307 32.3175C69.5765 32.2335 70.7237 32.3306 71.8435 32.5754C72.5533 32.7318 72.856 33.0346 73.5499 32.7898C73.6919 32.7405 73.8019 32.5942 73.7498 32.4392C73.1849 30.7299 69.8503 30.9921 68.4307 31.0471C66.2839 31.1326 63.6852 31.6483 62.0063 33.0664C61.7861 33.2533 62.0251 33.5792 62.2714 33.5227Z" fill="#231F20"/>
<path d="M72.7706 32.407C72.633 33.7774 72.8126 35.1521 72.9487 36.5166C73.053 37.5581 72.8358 38.9386 73.6064 39.7223C73.6991 39.815 73.8932 39.8352 73.9816 39.7223C74.6044 38.9212 74.2829 37.9883 74.1844 37.0207C74.0279 35.4852 73.9439 33.9367 73.7541 32.4056C73.6774 31.7813 72.8343 31.7682 72.7706 32.407Z" fill="#231F20"/>
<path d="M73.8412 39.8603C75.8909 40.4672 78.055 40.6193 80.1192 41.2509C82.8092 42.0751 84.8473 43.6729 87.2853 44.9302C87.7575 45.1736 88.1834 44.6043 87.8415 44.2089C85.0617 41.0104 78.0188 38.39 73.8412 39.4214C73.6181 39.4779 73.6311 39.7965 73.8412 39.8603Z" fill="#231F20"/>
<path d="M87.9356 44.8993C89.4392 44.3923 90.7023 43.4464 91.9916 42.5425C92.5478 42.1514 93.0881 41.7125 93.6357 41.3156C94.9901 40.3306 96.8471 41.9153 97.8394 42.67C98.5289 43.1929 100.897 44.3083 99.5487 45.7192C98.8273 46.4724 98.1132 47.2214 97.415 47.9963C96.2619 49.2769 94.6902 50.5081 94.3266 52.2406C94.2861 52.4362 94.4729 52.5709 94.6497 52.4883C95.9664 51.864 96.7776 50.5936 97.7583 49.5333C98.7983 48.4077 99.8456 47.2967 100.906 46.1914C102.01 45.0413 101.254 43.5087 100.166 42.699C98.978 41.8168 95.9432 38.8617 94.26 39.5382C91.8655 40.5015 89.4971 42.5715 87.572 44.2648C87.2852 44.5154 87.5807 45.0195 87.9356 44.8993Z" fill="#231F20"/>
<path d="M94.4526 52.81C95.8432 54.1456 96.7456 55.7723 97.3642 57.5873C97.8118 58.8983 97.5235 60.7119 98.3391 61.8026C98.4332 61.9287 98.6563 62.0156 98.778 61.8591C99.6978 60.6728 98.9315 58.5666 98.5448 57.2629C97.9465 55.2465 96.8239 53.4082 95.2609 52.0031C94.7148 51.5121 93.9166 52.2957 94.4526 52.81Z" fill="#231F20"/>
<path d="M98.3654 62.053C99.6705 62.2673 101.012 62.0602 102.333 62.0602C102.743 62.0616 104.373 61.94 104.562 62.4615C104.871 63.3103 104.783 64.3214 104.723 65.2036C104.617 66.7695 104.726 68.4962 104.38 70.0273C103.897 72.1654 99.84 71.0471 98.3668 71.2354C97.7019 71.3208 97.6773 72.3696 98.3668 72.2986C100.159 72.1161 103.118 73.1576 104.603 71.7076C106.146 70.2011 105.633 67.8414 105.844 65.8931C105.979 64.6575 106.366 62.0399 105.016 61.2461C103.425 60.3118 100.002 60.7493 98.3654 61.2693C98.0148 61.3808 97.9438 61.9834 98.3654 62.053Z" fill="#231F20"/>
<path d="M98.1044 71.7417C97.7596 73.8566 97.2512 75.7875 96.3371 77.7388C95.5288 79.4654 94.2613 80.8763 93.3531 82.5277C93.1315 82.9304 93.6298 83.265 93.9586 82.9941C96.9745 80.5229 98.8982 75.6919 99.0706 71.8721C99.0952 71.3245 98.1942 71.1898 98.1044 71.7417Z" fill="#231F20"/>
<path d="M93.3936 83.0134C94.509 84.2925 95.6548 85.4934 96.6949 86.8434C97.1135 87.3866 97.7306 87.9182 97.593 88.7367C97.4598 89.5247 96.2806 90.3736 95.72 90.9081C94.4279 92.1408 93.4675 93.9935 91.4453 92.7144C90.1126 91.8714 89.0002 90.6415 87.5994 89.9477C87.2445 89.7724 86.9229 90.1201 87.0808 90.4663C87.8645 92.1828 90.4415 93.8081 92.1624 94.444C93.9933 95.119 95.5346 92.7999 96.5428 91.7338C97.7002 90.5112 99.0561 89.5942 98.7272 87.7314C98.5911 86.9665 97.5858 86.1206 97.1469 85.5513C96.2096 84.3403 95.2261 83.1438 93.8919 82.3674C93.4733 82.1211 93.0938 82.6687 93.3936 83.0134Z" fill="#231F20"/>
<path d="M87.0157 89.8813C85.8844 91.2299 84.64 92.4727 83.2364 93.5374C81.9167 94.5398 80.458 95.0352 78.9675 95.6958C78.5199 95.8942 78.7357 96.6721 79.2195 96.6243C82.6439 96.2882 85.7931 93.2318 87.8051 90.6693C88.2397 90.1159 87.4836 89.3221 87.0157 89.8813Z" fill="#231F20"/>
<path d="M78.6707 96.2165C78.3434 98.1315 78.4143 100.09 78.0942 102.009C77.7944 103.803 76.5544 103.74 75.0378 103.814C73.4183 103.892 70.6515 105.099 70.172 102.854C69.7404 100.83 69.9258 98.7587 69.5057 96.7626C69.4231 96.3758 68.8046 96.3729 68.7235 96.7626C68.2657 98.9658 68.5308 102.109 69.4086 104.21C70.1691 106.029 73.1445 105.17 74.5395 105.003C75.9025 104.841 77.8407 105.355 78.7229 103.917C79.9773 101.872 79.9035 98.4806 79.5558 96.2165C79.4877 95.7732 78.7446 95.7804 78.6707 96.2165Z" fill="#231F20"/>
<path d="M69.113 96.3584C67.0459 96.4642 65.1063 96.4077 63.0652 96.0021C60.9967 95.5907 59.2106 94.4608 57.1971 93.9393C56.8408 93.8466 56.5004 94.3319 56.8161 94.5955C60.0986 97.3217 65.1671 97.9504 69.2506 97.3652C69.8242 97.2812 69.6837 96.3295 69.113 96.3584Z" fill="#231F20"/>
<path d="M56.8161 93.9338C55.8383 94.9637 54.8156 95.9632 53.7872 96.9454C51.9967 98.6547 50.3425 97.2756 48.6781 96.2834C46.6849 95.0956 46.6849 93.9208 47.6539 91.8537C48.1899 90.7108 48.7056 89.5606 49.1836 88.3902C49.4342 87.776 48.4463 87.5196 48.1957 88.1178C47.3816 90.0661 45.7056 92.3027 45.6767 94.4683C45.6593 95.7923 47.1542 96.66 48.1059 97.2626C49.6066 98.2129 50.9596 99.2848 52.8036 98.9835C54.7128 98.672 56.3859 95.8343 57.4317 94.4089C57.6997 94.0453 57.1174 93.6166 56.8161 93.9338Z" fill="#231F20"/>
<path d="M41.3772 73.682C40.9644 77.0905 41.835 80.6018 43.4298 83.609C44.2903 85.2314 46.0329 88.5283 48.1594 88.5805C48.5534 88.5906 48.7084 88.1111 48.465 87.8432C47.0005 86.2352 45.62 84.9098 44.5119 82.976C42.8953 80.1542 42.4839 76.866 42.1754 73.682C42.1247 73.1634 41.438 73.1736 41.3772 73.682Z" fill="#231F20"/>
<path d="M41.7757 72.9423C39.5391 72.7598 37.3228 72.402 35.0747 72.3658C35.2572 72.5049 35.4397 72.6454 35.6237 72.7844C35.3021 70.91 35.0631 68.9255 35.3325 67.0308C35.8163 63.6295 39.8911 66.2543 41.9887 66.0211C42.6782 65.9443 42.668 65.0433 41.9887 64.9579C39.7984 64.6798 35.825 62.8241 34.5387 65.672C33.5595 67.8391 34.1404 70.8347 34.5257 73.0872C34.5677 73.3363 34.84 73.5015 35.0747 73.5058C37.3185 73.5435 39.5348 73.9085 41.7757 73.9925C42.4594 74.0186 42.4406 72.9959 41.7757 72.9423Z" fill="#231F20"/>
<path d="M45.7318 52.7307C43.6778 53.2724 42.6449 56.2492 42.0206 58.0324C41.2514 60.2386 40.5807 63.3414 41.376 65.6301C41.5991 66.2718 42.516 66.0154 42.3885 65.3505C41.9714 63.1791 42.3161 61.0266 42.8941 58.916C43.5416 56.5534 44.9192 55.2019 46.0998 53.2087C46.2461 52.9595 46.0056 52.6582 45.7318 52.7307Z" fill="#231F20"/>
<path d="M46.0721 52.5638C45.2841 51.5353 44.2759 50.7748 43.301 49.9289C42.568 49.293 41.6598 48.4021 41.8756 47.2983C42.0408 46.461 43.1026 45.3703 43.5936 44.7561C43.9239 44.3432 44.2324 43.913 44.5627 43.4987C45.471 42.3631 46.6313 43.0439 47.5569 43.6045C48.8447 44.3867 50.2034 45.0009 51.6302 45.4847C52.2966 45.7107 52.5848 44.6532 51.92 44.433C50.5684 43.984 49.327 43.393 48.0958 42.6846C47.4482 42.3124 46.6559 41.6388 45.8461 41.6721C44.1846 41.7416 43.401 43.3046 42.4623 44.4751C41.499 45.6788 40.4647 46.9014 40.8819 48.5078C41.3802 50.4286 43.9196 51.9424 45.3507 53.1186C45.7216 53.4243 46.4125 53.0071 46.0721 52.5638Z" fill="#231F20"/>
<path d="M59.6671 55.5821C54.9578 59.9785 52.8907 65.3787 54.0988 71.9624C55.1707 77.8073 60.2219 83.38 66.0538 84.8807C66.2435 84.9299 66.384 84.6344 66.1914 84.5518C61.343 82.5021 56.9162 78.197 55.3272 73.1053C53.402 66.9359 55.9124 60.3754 59.7699 55.6849C59.8279 55.6139 59.7366 55.5169 59.6671 55.5821Z" fill="#EAE028"/>
<path d="M80.642 56.5485C86.8882 61.7618 85.7453 69.1423 83.4812 75.9983C83.4001 76.2431 83.7376 76.3459 83.8694 76.162C87.9167 70.5343 87.204 59.9526 80.755 56.4007C80.6667 56.3544 80.558 56.4789 80.642 56.5485Z" fill="#EAE028"/>
<path d="M82.324 77.9901C81.9937 78.4783 81.5099 78.8607 81.1145 79.2967C80.7074 79.7443 80.3004 80.1847 79.9237 80.6598C79.8513 80.7525 79.9397 80.8887 80.0541 80.8278C80.6104 80.5251 81.0782 80.1528 81.5099 79.6921C81.9604 79.2127 82.2009 78.6695 82.4978 78.0915C82.5558 77.9771 82.3964 77.8858 82.324 77.9901Z" fill="#EAE028"/>
<path d="M90.9412 84.6368C90.1112 85.8275 89.0654 86.7894 87.9427 87.6875C87.7892 87.8106 87.9543 88.0916 88.1368 88.0206C89.5955 87.4543 90.5472 86.1752 91.1832 84.7788C91.257 84.6151 91.0455 84.4891 90.9412 84.6368Z" fill="#EAE028"/>
<path d="M97.477 64.9203C97.619 65.7286 97.7363 66.4587 97.6871 67.2858C97.6436 68.0348 97.5755 68.7822 97.5741 69.5326C97.5741 69.718 97.8117 69.7238 97.8739 69.5731C98.4432 68.1984 99.0502 65.9256 97.9102 64.6683C97.7218 64.4597 97.4365 64.6857 97.477 64.9203Z" fill="#EAE028"/>
<path d="M88.9872 46.9284C89.5101 47.3586 90.0548 47.77 90.5401 48.2437C91.0109 48.7015 91.3846 49.375 91.9582 49.701C92.1074 49.785 92.2827 49.6474 92.2421 49.4837C92.077 48.8275 91.4266 48.2799 90.9471 47.8381C90.4025 47.334 89.8317 46.9168 89.1118 46.7184C88.9945 46.6851 88.8858 46.8444 88.9872 46.9284Z" fill="#EAE028"/>
<path d="M65.0034 39.8882C65.761 39.6405 66.5215 39.4566 67.3124 39.3494C68.0062 39.2567 68.7291 39.345 69.407 39.2045C69.5895 39.1669 69.5533 38.9264 69.407 38.8714C68.0511 38.36 66.1347 39.0713 64.8904 39.6217C64.7383 39.6883 64.8484 39.9404 65.0034 39.8882Z" fill="#EAE028"/>
<path d="M49.5675 47.7519C48.5984 48.6558 46.7659 50.1522 46.9354 51.6616C46.9514 51.8122 47.1455 51.889 47.2324 51.7427C47.6641 51.0184 47.8828 50.2536 48.4144 49.5669C48.8548 48.9991 49.3198 48.4704 49.7442 47.8895C49.8239 47.7809 49.6573 47.6679 49.5675 47.7519Z" fill="#EAE028"/>
<path d="M42.5305 68.9182C42.3494 69.4802 41.8844 70.5985 42.4291 71.0766C42.5145 71.1519 42.6521 71.1461 42.7115 71.0403C42.8709 70.7579 42.7811 70.4551 42.7854 70.1393C42.7897 69.7584 42.8013 69.3861 42.8651 69.0095C42.8998 68.7936 42.6 68.7024 42.5305 68.9182Z" fill="#EAE028"/>
<path d="M49.9877 87.4879C51.6868 89.6071 54.6158 91.7915 57.3811 92.1855C57.6447 92.2232 57.8475 91.8727 57.5752 91.7235C55.0315 90.3357 52.385 89.2464 50.1571 87.3184C50.0383 87.217 49.892 87.3691 49.9877 87.4879Z" fill="#EAE028"/>
<path d="M72.8257 95.6392C73.3153 95.7362 73.8281 95.6986 74.3264 95.6884C74.8305 95.6783 75.3476 95.6623 75.8169 95.4653C76.1081 95.3437 76.0559 94.9714 75.7445 94.9308C75.2737 94.87 74.7986 94.9381 74.3264 94.9641C73.8281 94.9931 73.3167 94.9525 72.8257 95.0496C72.533 95.1075 72.533 95.5812 72.8257 95.6392Z" fill="#EAE028"/>
<path d="M78.9139 85.9594C78.7763 86.3838 78.6285 86.8488 78.7777 87.2863C78.8067 87.3717 78.9211 87.3717 78.9501 87.2863C79.0935 86.8734 78.9878 86.436 79.0993 86.0115C79.1312 85.8884 78.9516 85.8421 78.9139 85.9594Z" fill="#231F20"/>
<path d="M80.7158 86.7563C80.5565 87.0011 80.555 87.2923 80.6376 87.5646C80.6593 87.6356 80.7578 87.6341 80.7796 87.5646C80.8404 87.3705 80.8288 87.1098 80.9621 86.9461C81.104 86.7693 80.8375 86.568 80.7158 86.7563Z" fill="#231F20"/>
<path d="M54.3087 53.0311C54.5766 53.4801 55.0547 53.9741 55.5399 54.1798C55.6587 54.2305 55.7688 54.1276 55.7123 54.0074C55.4936 53.5279 54.9417 53.2064 54.5998 52.8051C54.4622 52.6414 54.2015 52.8515 54.3087 53.0311Z" fill="#231F20"/>
<path d="M56.0296 52.6555C56.3019 52.6599 56.467 52.728 56.6872 52.883C56.7669 52.938 56.848 52.8468 56.835 52.77C56.7698 52.389 56.3468 52.3687 56.0296 52.3702C55.8456 52.3702 55.8456 52.6526 56.0296 52.6555Z" fill="#231F20"/>
<path d="M57.3724 51.3643C57.6477 51.5092 57.8461 51.7294 58.0996 51.9003C58.1923 51.964 58.3169 51.8394 58.2546 51.7453C58.0706 51.4715 57.8128 51.2629 57.5245 51.1065C57.355 51.0138 57.203 51.276 57.3724 51.3643Z" fill="#231F20"/>
<path d="M92.5535 59.3939C92.3739 59.5561 92.1465 59.6604 92.003 59.8574C91.9654 59.9096 92.0364 59.9661 92.0842 59.9386C92.2957 59.8241 92.5042 59.6836 92.6897 59.5301C92.7853 59.4518 92.6477 59.3099 92.5535 59.3939Z" fill="#231F20"/>
<path d="M92.6158 61.5831C92.4478 61.7265 92.3247 61.7569 92.2349 61.9539C92.19 62.051 92.2609 62.1524 92.3696 62.1306C92.5622 62.0915 92.7115 62.0278 92.8693 61.9119C93.1142 61.7337 92.8462 61.3861 92.6158 61.5831Z" fill="#231F20"/>
<path d="M47.3267 77.2349C47.683 77.2928 48.0481 77.5087 48.4059 77.458C48.4899 77.4464 48.5232 77.332 48.4841 77.2682C48.2798 76.9293 47.7468 76.838 47.3788 76.8568C47.1702 76.867 47.1022 77.1987 47.3267 77.2349Z" fill="#231F20"/>
<path d="M48.2292 75.6383C48.6102 75.6586 49.0143 75.844 49.3881 75.718C49.4532 75.6963 49.4866 75.5876 49.4098 75.5543C49.052 75.4008 48.6174 75.3501 48.2292 75.3399C48.0351 75.3341 48.038 75.6282 48.2292 75.6383Z" fill="#231F20"/>
<path d="M65.1077 92.0445C64.9918 92.3356 64.928 92.6543 65.0179 92.9599C65.0439 93.0483 65.1714 93.0483 65.1975 92.9599C65.2786 92.692 65.2598 92.4225 65.3757 92.1575C65.4597 91.9633 65.1859 91.8475 65.1077 92.0445Z" fill="#231F20"/>
<path d="M80.4247 43.9925C79.9336 44.0215 79.3325 44.3228 79.1876 44.8254C79.163 44.9109 79.2644 44.9993 79.344 44.9457C79.7149 44.6878 79.922 44.3286 80.4247 44.2982C80.6202 44.2866 80.6217 43.9809 80.4247 43.9925Z" fill="#231F20"/>
<path d="M81.2214 45.9322C81.233 45.9192 81.2461 45.9062 81.2577 45.8946C81.1997 45.8366 81.1432 45.7801 81.0853 45.7236C81.0317 45.7816 80.9781 45.8381 80.9245 45.896C80.8245 46.0018 80.9781 46.1568 81.0853 46.0554C81.1432 46.0018 81.1997 45.9467 81.2577 45.8946C81.3721 45.7859 81.1997 45.6164 81.0853 45.7236C81.0722 45.7352 81.0592 45.7468 81.0462 45.7598C80.9303 45.8685 81.1128 46.0496 81.2214 45.9322Z" fill="#231F20"/>
</svg>
