<svg width="141" height="136" viewBox="0 0 141 136" fill="none" xmlns="http://www.w3.org/2000/svg">
<mask id="mask0_121_1600" style="mask-type:luminance" maskUnits="userSpaceOnUse" x="0" y="0" width="141" height="136">
<path d="M70.3584 0C109.216 0 140.717 30.4446 140.717 68C140.717 105.555 109.216 136 70.3584 136C31.5005 136 0 105.555 0 68C0 30.4446 31.5005 0 70.3584 0Z" fill="white"/>
</mask>
<g mask="url(#mask0_121_1600)">
<path d="M0 0H140.717V136H0V0Z" fill="#F2FB3E"/>
</g>
<path d="M106.645 36.8349L105.243 35.376L101.427 36.1061L103.129 41.5627V54.2688L102.295 71.2135L100.778 74.2096L97.2521 78.7442L94.3953 81.8944L90.0161 87.1187L84.2317 94.6885L84.9972 96.6097L85.1709 97.8009L89.2591 92.8835L95.4385 86.204L103.493 77.2706L104.882 74.7477L106.269 61.4742L106.645 38.525V36.8349Z" fill="#EAE028"/>
<path d="M107 42.2494C106.32 53.6005 107.221 63.7018 105.252 74.7227C105.049 76.3039 104.17 77.5024 103.107 78.614C99.3042 82.5958 95.4753 86.5544 91.7295 90.59C90.0198 92.4317 88.1928 94.2637 86.9356 96.4025C84.924 99.7191 81.5132 99.2311 78.3838 99.6029C76.2633 100.037 74.1415 100.016 71.9855 99.949C69.5299 99.8438 67.0291 100.469 64.5747 100.454C61.9014 100.017 59.2721 100.751 56.622 100.707C50.4255 100.883 44.3954 99.3326 38.2196 99.5907C36.6629 99.5075 34.4775 99.5442 33.6154 98.04C33.0345 96.6288 32.6945 95.1246 33.383 93.6033C33.5163 93.3086 33.6875 92.9539 33.6362 92.6641C33.2412 90.4347 34.5289 88.8865 35.8912 87.5095C40.8477 82.9444 46.396 79.0213 51.5702 74.7019C52.9961 73.5426 53.8485 72.0971 53.7665 70.1209C54.153 63.7581 53.0597 57.4857 52.9191 51.1437C53.2859 46.9405 51.5787 38.7984 56.973 37.5241C66.2085 35.5295 75.845 36.6522 85.1355 35.439C90.0235 34.6331 94.832 35.1235 99.7078 35.439C108.102 35.4892 106.239 33.8847 107 42.2494ZM104.081 37.8249C104.191 37.3896 104.3 36.9542 104.451 36.3526C103.67 36.4284 103.052 36.4883 102.295 36.5617C102.689 37.3187 102.968 37.8567 103.254 38.4058C103.611 38.149 103.873 37.9619 104.135 37.7736C103.921 38.4168 103.707 39.0601 103.493 39.7046C105.649 38.2175 105.759 37.979 105.186 36.8588C104.838 37.1621 104.46 37.4935 104.081 37.8249ZM89.2714 88.6016C90.6558 88.2591 90.0027 89.8061 89.999 90.6071C90.1262 90.6292 90.2534 90.6499 90.3806 90.672C90.635 89.4038 90.8906 88.1356 91.1449 86.8675C91.0679 86.821 90.9896 86.7745 90.9126 86.7268C88.5316 89.6765 88.3836 88.6321 88.408 92.4806C89.1748 91.2981 89.6187 90.0409 89.2714 88.6016ZM103.203 68.0028C103.22 68.3097 103.237 68.6167 103.258 68.986C105.093 67.4464 105.093 67.4464 104.846 66.2773C104.283 66.8692 103.719 67.461 103.155 68.0529C103.68 67.1088 104.136 66.1171 104.751 65.2366C105.279 64.4796 105.415 63.7703 104.993 62.8849C103.323 64.482 102.946 65.7514 103.203 68.0028ZM48.217 81.7373C47.2264 82.6142 46.2273 83.4812 45.2489 84.3715C44.8111 84.7702 44.3721 85.2997 44.9469 85.8145C45.4373 86.2536 46.0769 86.7953 46.8167 86.1447C47.9149 85.1774 48.9984 84.193 50.0892 83.2146C49.4472 82.7218 48.9006 82.3011 48.3539 81.8804C49.3359 81.8865 50.768 82.2828 51.6118 81.889C52.7014 80.9608 53.6455 79.8626 54.8672 78.6006C53.6797 78.5993 52.9729 77.5745 52.0422 78.3853C50.7631 79.4994 49.4912 80.6196 48.217 81.7373ZM89.6823 69.5412C89.6823 69.6244 89.6823 69.7075 89.6811 69.7895C92.7787 69.8616 97.1849 70.2774 97.7535 66.2332C98.7979 58.8542 97.8208 51.4458 98.343 44.0471C98.557 41.1121 97.0528 39.4979 93.9381 39.5223C88.3665 39.6092 82.8059 39.8978 77.2514 40.3429C73.9776 40.4615 70.7198 40.6829 67.4754 41.1378C65.0565 41.3604 62.6302 41.4937 60.215 41.7444C59.0312 41.8679 57.6921 43.5947 57.7337 44.7026C59.1559 78.4673 51.454 68.5397 89.6823 69.5412ZM52.1682 89.0149C51.4173 88.264 50.6689 88.0256 49.7444 88.0831C48.4811 88.3839 41.8884 86.9849 43.8915 85.0881C45.5694 83.0043 47.5994 81.2763 49.6857 79.6217C51.2645 78.1652 52.8176 76.6757 54.3181 75.1385C54.9515 74.4891 55.5544 74.2507 56.4643 74.4451C64.5893 76.0581 72.9773 76.9313 81.2601 76.6647C85.6724 76.4446 89.8706 75.3806 94.3282 75.5213C94.2585 77.5501 92.3898 78.1909 91.7454 79.7403C92.4021 79.5239 92.9047 79.3869 93.5565 79.3294C91.2281 80.8923 88.3224 81.6615 87.3942 84.8741C84.1327 86.0506 84.4568 90.1681 79.4429 89.8526C75.7925 89.7694 72.1054 89.6154 68.4904 89.3549C68.0135 89.4478 67.4779 89.8233 67.1966 90.2305C65.9504 92.1982 64.6065 93.8748 63.6991 96.0711C69.8687 95.3203 82.6983 97.0495 86.2936 91.4558C90.4515 85.0319 96.4988 79.958 100.778 73.6673C90.5225 74.4879 80.316 73.6881 70.0558 73.4717C64.9635 73.2271 59.8652 73.1965 54.7681 73.2161C54.4025 73.2173 53.9732 73.468 53.6822 73.726C48.5227 78.5871 42.9609 82.9737 37.5336 87.5242C35.1672 89.4295 32.9 93.6546 37.2144 94.7565C49.929 96.3035 45.3113 98.7566 52.1682 89.0149ZM79.6948 39.4062C83.8918 39.4795 98.7576 35.8022 99.1672 41.8936C99.0865 47.5251 99.2528 53.1676 99.2541 58.793C98.7857 63.2616 99.5989 71.0185 93.3315 71.1885C86.5663 70.7935 79.7779 70.9378 73.0067 71.1347C70.71 71.1775 68.3853 70.9782 66.1229 71.2704C64.1148 71.5297 62.2144 71.2998 60.3067 70.9048C57.9795 70.4229 57.2714 69.5106 57.2482 67.1309C57.2934 60.4183 57.0696 53.6812 57.3069 46.9785C57.428 44.968 57.1137 42.7203 58.9016 41.139C64.5123 40.6315 70.156 40.1216 75.6005 39.63C76.0016 38.6846 76.3134 37.9497 76.6289 37.2061C70.1071 37.2416 63.4948 37.6036 57.0293 38.6467C55.4957 38.8583 54.7669 39.9345 54.3597 41.2797C52.9276 46.6483 53.983 52.1832 54.1958 57.6337C54.4404 62.6562 54.5798 67.532 54.8341 72.5838C58.1446 72.9397 61.806 72.5851 65.1812 72.53C69.3306 72.486 73.4738 72.9495 77.6146 73.0583C80.1362 72.9042 82.62 72.8822 85.1392 73.1721C90.6435 72.7819 96.039 73.7236 101.554 72.552C101.6 72.1093 101.798 71.6275 101.657 71.2851C100.873 69.0154 102.08 66.8312 102.157 64.5774C102.357 57.3109 102.567 50.0443 102.659 42.7765C102.675 41.4802 102.19 40.1717 101.889 38.8803C101.607 37.6684 100.821 37.0349 99.5573 36.9616C92.802 36.4125 85.8803 35.9942 79.2166 37.2759C79.3646 37.9313 79.4979 38.5269 79.6948 39.4062ZM83.9248 95.4425C77.1487 96.5762 70.5033 97.0128 63.6734 97.0384C55.7844 96.6422 47.7278 97.892 39.9537 96.4074C38.0484 95.9794 35.8655 96.3915 34.3357 94.5327C33.9859 97.974 35.3323 98.8606 37.706 98.8508C40.1934 98.8398 42.6845 98.9278 45.167 99.0856C48.3478 99.2874 51.4748 100.002 54.7106 99.7802C57.121 99.6151 59.5387 99.7484 61.9319 99.1944C62.7794 98.9988 63.7272 99.2385 64.6285 99.2764C66.9679 99.4341 69.333 98.7236 71.6504 98.9401C75.8658 99.0073 80.2157 98.9963 84.2306 97.7233C84.0985 96.7352 84.0043 96.0357 83.9248 95.4425ZM55.9629 95.9427C57.9 95.7703 61.2104 96.3769 62.5299 95.5477C64.3386 93.7867 65.7609 91.7616 66.6316 89.3903C65.5126 89.2937 64.357 88.8804 63.4471 89.191C62.2047 89.6154 61.0209 89.5408 59.8053 89.5163C59.1645 89.5029 58.767 89.5799 58.487 90.2611C57.7349 92.093 56.885 93.8858 55.9629 95.9427ZM55.2622 95.9024C56.2209 93.7941 57.1883 91.6674 58.2094 89.4234C56.1023 89.4405 54.0013 88.3924 52.48 89.8868C50.9282 91.8227 49.4961 93.569 48.4664 95.9024C50.8034 95.9024 52.9337 95.9024 55.2622 95.9024ZM93.5223 76.2428C91.8567 75.9554 90.3574 76.4825 88.7321 76.5375C87.8345 76.5436 87.3331 76.8983 86.9259 77.6369C86.3193 78.7363 85.6455 79.7978 84.9961 80.8825C88.2943 81.7007 92.0303 79.7244 93.5223 76.2428ZM104.356 59.2247C104.231 59.1599 104.108 59.0951 103.983 59.0303C104.654 57.7169 105.744 56.5025 105.111 54.7892C104.816 55.1206 104.544 55.4251 104.274 55.7296C104.241 55.6905 104.209 55.6514 104.176 55.6122C104.598 54.6999 105.02 53.7889 105.442 52.8766C105.26 52.7359 105.079 52.5941 104.897 52.4534C104.914 53.0404 104.72 53.1505 104.164 53.4746C104.654 51.9863 106.053 51.0361 105.701 49.2078C105.124 49.8376 104.679 50.3256 104.233 50.8123C104.515 49.3741 105.914 48.3848 105.606 46.7779C104.576 47.629 103.655 48.4398 103.671 49.9783C103.703 54.4627 103.432 58.9471 103.504 63.434C104.29 62.5608 105.682 62.1083 105.112 60.532C104.776 60.8267 104.499 61.0676 104.111 61.4076C104.602 60.2874 105.004 59.3666 105.408 58.4445C105.265 58.3418 105.12 58.2378 104.977 58.1351C104.771 58.4983 104.564 58.8615 104.356 59.2247ZM72.8159 79.9702C75.499 80.8067 75.7778 80.8691 77.4116 77.4437C74.9303 77.2994 72.7511 77.1429 70.2673 76.935C69.5923 77.7788 68.8854 78.6617 68.0172 79.7464C71.2298 80.1769 72.0846 80.4863 73.7844 77.621C73.8505 77.6626 73.9165 77.7042 73.9825 77.7458C73.5937 78.4881 73.206 79.2279 72.8159 79.9702ZM56.5303 77.8913C57.0378 78.9051 57.9721 78.29 58.6973 78.4832C60.4816 78.9931 61.093 77.1416 62.2988 76.2819C62.3746 76.3639 62.4517 76.4446 62.5275 76.5265C61.9772 77.1698 61.4269 77.8118 60.8215 78.5174C63.4129 79.2793 64.8731 78.5835 65.52 76.337C63.4948 76.3162 61.5675 76.0239 59.5864 75.7353C58.1421 75.6069 57.5246 76.9961 56.5303 77.8913ZM55.7526 88.0231C59.1938 89.136 60.8986 88.3876 62.9629 84.7579C61.9063 84.6405 60.8876 84.4681 59.8664 84.4461C58.3989 84.8876 57.0941 86.9042 55.7526 88.0231ZM58.9554 79.6425C56.2919 78.5822 54.5358 79.3013 51.975 82.5212C56.6318 83.8457 55.8553 83.019 58.9554 79.6425ZM54.5859 84.0915C49.7407 82.8404 51.0541 83.5069 47.3927 86.5189C50.5491 88.7997 52.4238 86.4859 54.5859 84.0915ZM60.7139 88.6175C64.9538 88.9415 65.1763 88.1809 67.8716 85.197C66.5338 84.3666 65.3365 84.6626 64.1772 84.7176C63.9803 84.7274 63.7578 84.9414 63.611 85.115C62.6975 86.1985 61.8011 87.2979 60.7139 88.6175ZM80.6144 81.0073C85.5856 81.1137 83.8405 81.1614 86.6801 76.7552C82.2176 76.5546 82.3204 77.1698 80.6144 81.0073ZM66.4628 80.6746C62.8442 79.3343 62.4077 80.8838 60.2223 83.3871C63.9681 84.1771 64.8217 83.8077 66.4628 80.6746ZM88.8568 81.4903C87.7146 81.6151 86.6568 81.8547 85.6088 81.8193C83.4565 81.7471 83.5262 83.9961 82.1626 84.7127C85.149 85.3034 87.6303 84.0902 88.8568 81.4903ZM58.2962 84.6442C58.2485 84.5501 58.2021 84.4571 58.1544 84.3629C55.042 83.7686 53.4376 85.5125 51.9236 87.9926C55.3172 88.8449 56.512 86.2389 58.2962 84.6442ZM83.2767 82.0101C79.4025 81.5637 79.8648 81.6456 77.5314 84.6479C81.1256 85.4929 82.4072 84.8827 83.2767 82.0101ZM65.0418 83.7319C66.4237 83.8738 67.5256 83.9875 68.7032 84.1086C69.4712 83.1229 70.2453 82.1311 71.0903 81.0464C66.6891 80.4826 67.7579 80.2723 65.0418 83.7319ZM85.5097 85.3523C82.3167 85.1432 79.9785 86.503 79.3683 88.7667C82.3204 89.4185 83.9762 87.6734 85.5097 85.3523ZM69.3379 84.2443C73.4555 84.5256 72.8636 85.0355 74.7187 81.324C73.7636 81.302 72.5896 80.6734 71.7312 81.1772C70.9656 82.1116 70.2392 83.0789 69.3379 84.2443ZM62.3318 80.2295C62.3135 80.0913 62.2964 79.9531 62.278 79.8161C61.3804 79.8161 60.2211 79.4627 59.6414 79.8907C58.5041 80.7321 57.6884 82.0088 56.7223 83.1254C59.5045 84.7347 60.6564 81.7569 62.3318 80.2295ZM80.5251 85.9491C76.9457 85.5015 76.1263 85.8635 74.8826 88.3655C78.0903 89.4185 78.0866 88.955 80.5251 85.9491ZM81.7994 77.4889C78.3642 77.2395 77.4043 77.8473 76.9322 80.3934C80.1411 81.3326 80.3955 80.084 81.7994 77.4889ZM66.0801 88.2983C67.4143 87.7419 68.5614 89.1091 69.5703 88.0855C70.3505 87.2931 71.522 86.7403 71.714 85.4599C68.9441 84.4644 67.5476 86.0579 66.0801 88.2983ZM73.7844 84.3678C74.6759 84.4901 75.8353 85.3535 76.5898 84.742C77.3651 83.8249 78.1038 82.8771 79.0075 81.7508C75.0171 80.7896 75.8548 81.2433 73.7844 84.3678ZM70.2942 88.5722C71.5196 88.6065 72.6948 88.9892 73.4017 88.5734C74.3849 87.9962 75.225 86.969 75.6604 85.8745C72.9712 84.7041 71.7776 86.4749 70.2942 88.5722ZM69.4578 77.0707C67.0694 76.0398 65.5236 76.9655 64.4071 79.1607C66.9862 80.2454 68.0918 79.1289 69.4578 77.0707ZM94.9946 85.4966C97.0112 84.3507 96.0158 82.0052 97.0626 80.331C97.1421 80.8006 97.1934 81.1027 97.2448 81.4047C97.3047 81.3998 97.3659 81.3949 97.4258 81.3913C97.5053 80.5976 97.5848 79.8039 97.6765 78.8782C95.0411 80.8336 94.651 81.9844 94.9946 85.4966ZM100.649 79.3796C102.896 78.6507 101.022 76.0288 102.549 74.4598C102.486 75.4063 102.424 76.3529 102.36 77.2994C102.481 77.3055 102.604 77.3116 102.725 77.3177C103.803 76.0532 102.925 74.6665 102.878 73.2785C100.412 73.4986 100.998 77.511 100.649 79.3796ZM94.2242 82.7903C93.2447 83.8995 92.3788 84.8741 91.5228 85.8573C91.1351 86.7696 91.5998 87.8874 91.5656 88.9024C93.0771 88.8462 91.0581 86.766 92.961 85.1016C92.9879 85.8977 92.8313 86.5226 92.9671 87.3383C94.1655 86.6314 94.4297 85.6702 94.2242 82.7903ZM98.206 82.1238C99.2076 81.5649 99.1917 81.5637 99.2516 80.7456C99.3372 79.5716 99.4485 78.3988 99.5586 77.226C99.5622 77.1918 99.6674 77.1661 99.731 77.1343C99.7934 77.4828 99.8508 77.8118 99.9095 78.1395C100.005 78.1408 100.1 78.1408 100.197 78.142C100.329 77.2872 100.46 76.4336 100.607 75.4846C98.5387 76.8677 97.822 78.8782 98.206 82.1238ZM85.3605 96.3096C87.4211 95.0133 87.5422 92.8769 87.8846 90.8346C85.5061 93.0163 84.7809 94.6 85.3605 96.3096ZM55.4138 78.0772C56.2246 77.2737 57.0219 76.4825 57.9452 75.5677C55.7819 75.2424 54.2997 75.8955 53.555 77.3018C54.1102 77.533 54.6678 77.7665 55.4138 78.0772ZM105.727 41.5622C103.957 42.2568 103.624 43.0566 104.131 45.4963C104.862 44.1927 106.198 43.2755 105.727 41.5622ZM102.941 72.2757C104.141 71.1518 105.07 70.1784 104.848 68.4651C103.515 69.3884 102.854 70.5061 102.941 72.2757ZM103.943 41.9816C105.462 41.0094 105.769 40.4664 105.46 39.2863C104.08 39.9357 103.748 40.5264 103.943 41.9816ZM105.793 44.2465C104.59 45.2419 104.066 46.2704 103.775 47.7746C104.881 46.7583 105.797 45.9732 105.793 44.2465ZM77.0826 39.2606C77.7809 39.2032 78.5526 39.5798 78.7605 38.6259C78.8852 38.0561 78.4902 37.7846 77.9289 37.7613C76.8894 37.7198 76.9872 38.4034 77.0826 39.2606Z" fill="black"/>
<path d="M87.9054 44.2871C84.8176 49.0063 80.6205 52.6934 76.4161 56.3756C80.2353 52.34 84.4507 48.6713 87.9054 44.2871Z" fill="black"/>
<path d="M66.6719 55.7279C70.4385 51.8818 74.2062 48.0345 77.9728 44.1885C78.078 44.2936 78.1844 44.4 78.2896 44.5052C74.4949 48.3268 70.7002 52.1484 66.9055 55.97C66.8272 55.8893 66.7501 55.8086 66.6719 55.7279Z" fill="black"/>
<path d="M73.3978 54.268C76.586 51.0359 79.7729 47.8025 82.961 44.5703C80.1874 48.1938 76.8966 51.3294 73.3978 54.268Z" fill="black"/>
<path d="M87.2414 50.335C85.0133 52.4812 82.7778 54.6347 80.4506 56.8751C81.4264 55.1214 86.1824 50.5844 87.2414 50.335Z" fill="black"/>
<path d="M72.7107 44.8203C71.2077 46.2437 69.7048 47.6684 68.2018 49.0919C68.1749 49.0711 68.148 49.0491 68.1223 49.0283C69.5336 47.5009 70.9448 45.9747 72.3573 44.4473C72.4734 44.572 72.5921 44.6955 72.7107 44.8203Z" fill="black"/>
<path d="M72.9065 60.4873H72.0135C71.9607 60.2304 71.8683 60.0048 71.7363 59.8103C71.6066 59.6159 71.4482 59.4527 71.261 59.3206C71.0761 59.1862 70.8709 59.0854 70.6453 59.0182C70.4196 58.951 70.1844 58.9174 69.9395 58.9174C69.4931 58.9174 69.0886 59.0302 68.7261 59.2558C68.3661 59.4815 68.0792 59.8139 67.8656 60.2532C67.6543 60.6925 67.5487 61.2314 67.5487 61.8699C67.5487 62.5084 67.6543 63.0473 67.8656 63.4866C68.0792 63.9258 68.3661 64.2583 68.7261 64.4839C69.0886 64.7096 69.4931 64.8224 69.9395 64.8224C70.1844 64.8224 70.4196 64.7888 70.6453 64.7216C70.8709 64.6544 71.0761 64.5548 71.261 64.4227C71.4482 64.2883 71.6066 64.1239 71.7363 63.9295C71.8683 63.7326 71.9607 63.507 72.0135 63.2525H72.9065C72.8392 63.6294 72.7168 63.9667 72.5392 64.2643C72.3616 64.562 72.1407 64.8152 71.8767 65.024C71.6126 65.2305 71.3162 65.3877 70.9873 65.4957C70.6609 65.6037 70.3116 65.6578 69.9395 65.6578C69.3106 65.6578 68.7513 65.5041 68.2616 65.1969C67.772 64.8896 67.3867 64.4527 67.1058 63.8862C66.825 63.3197 66.6846 62.6476 66.6846 61.8699C66.6846 61.0922 66.825 60.42 67.1058 59.8535C67.3867 59.287 67.772 58.8502 68.2616 58.5429C68.7513 58.2357 69.3106 58.082 69.9395 58.082C70.3116 58.082 70.6609 58.136 70.9873 58.2441C71.3162 58.3521 71.6126 58.5105 71.8767 58.7193C72.1407 58.9258 72.3616 59.1778 72.5392 59.4755C72.7168 59.7707 72.8392 60.108 72.9065 60.4873Z" fill="black"/>
<path d="M74.3494 65.5569V58.1828H76.841C77.4171 58.1828 77.89 58.2813 78.2597 58.4781C78.6294 58.6725 78.903 58.9402 79.0806 59.281C79.2583 59.6219 79.3471 60.0096 79.3471 60.444C79.3471 60.8785 79.2583 61.2638 79.0806 61.5998C78.903 61.9359 78.6306 62.1999 78.2633 62.392C77.896 62.5816 77.4267 62.6764 76.8554 62.6764H74.8391V61.8699H76.8266C77.2203 61.8699 77.5372 61.8123 77.7772 61.6971C78.0196 61.5818 78.1949 61.4186 78.3029 61.2074C78.4133 60.9937 78.4685 60.7393 78.4685 60.444C78.4685 60.1488 78.4133 59.8907 78.3029 59.6699C78.1925 59.4491 78.016 59.2786 77.7736 59.1586C77.5312 59.0362 77.2107 58.975 76.8122 58.975H75.2424V65.5569H74.3494ZM77.8204 62.2444L79.6351 65.5569H78.5981L76.8122 62.2444H77.8204Z" fill="black"/>
<path d="M80.835 58.1828H81.9008L84.4069 64.3039H84.4933L86.9993 58.1828H88.0651V65.5569H87.2297V59.9544H87.1577L84.8533 65.5569H84.0468L81.7424 59.9544H81.6704V65.5569H80.835V58.1828Z" fill="black"/>
</svg>
