<svg width="141" height="136" viewBox="0 0 141 136" fill="none" xmlns="http://www.w3.org/2000/svg">
<mask id="mask0_121_1107" style="mask-type:luminance" maskUnits="userSpaceOnUse" x="0" y="0" width="141" height="136">
<path d="M70.3584 0C109.216 0 140.717 30.4446 140.717 68C140.717 105.555 109.216 136 70.3584 136C31.5005 136 0 105.555 0 68C0 30.4446 31.5005 0 70.3584 0Z" fill="white"/>
</mask>
<g mask="url(#mask0_121_1107)">
<path d="M0 0H140.717V136H0V0Z" fill="#F2FB3E"/>
</g>
<path d="M100.481 82.1788C94.3681 93.7587 80.6766 100.569 67.936 96.9541C57.7713 94.0728 51.1918 85.7231 49.0082 75.6565C46.8903 65.8866 50.2968 55.2861 57.7552 48.626C68.1843 39.3129 83.07 42.2848 93.5078 49.6762C93.997 50.0213 94.5854 49.2454 94.1447 48.8507C84.4691 40.1918 69.916 37.9846 58.8625 45.4641C49.3235 51.9182 45.4565 63.8916 47.1262 74.9129C48.8543 86.3239 56.6329 95.0324 67.5027 98.5245C80.5028 102.701 95.7349 94.8177 101.143 82.5649C101.337 82.1242 100.715 81.7344 100.481 82.1788Z" fill="#231F20"/>
<path d="M100.939 82.0386C97.1403 79.6327 91.76 78.4944 87.5764 76.8756C82.9062 75.0681 78.1082 72.697 73.2009 71.6008C72.7726 71.5052 72.6 72.1247 73.0196 72.2563C77.8698 73.7894 82.6083 75.8539 87.3567 77.6701C90.2169 78.7625 93.0734 79.8574 95.9386 80.9337C97.3513 81.4651 99.2631 82.5438 100.811 82.5141C101.069 82.5091 101.154 82.1739 100.939 82.0386Z" fill="#231F20"/>
<path d="M73.1575 72.0893C79.3683 64.2609 86.7684 56.5729 93.9934 49.6719C94.2504 49.4273 93.9177 48.9941 93.6148 49.1815C89.5169 51.7152 86.2035 56.3221 82.9647 59.803C79.6092 63.4081 74.9824 67.3123 72.8 71.8149C72.697 72.0322 72.9875 72.304 73.1575 72.0893Z" fill="#231F20"/>
<path d="M75.531 71.4148C79.6674 73.0982 84.1737 74.1298 88.4268 75.5003C92.552 76.8274 96.774 78.6014 101.079 79.2283C101.419 79.2779 101.553 78.8323 101.223 78.7081C97.103 77.175 92.8574 75.9547 88.6738 74.6028C84.5424 73.2683 79.9752 71.1554 75.6092 70.8438C75.2529 70.8177 75.2517 71.3006 75.531 71.4148Z" fill="#231F20"/>
<path d="M75.7619 71.2841C79.4427 69.016 82.535 65.1317 85.6336 62.1597C89.0798 58.8538 92.6687 55.6634 96.0068 52.252C96.2241 52.031 95.9485 51.6797 95.6803 51.8287C91.8829 53.9279 88.7011 57.8495 85.6187 60.8339C82.2383 64.1087 78.4632 67.2346 75.3932 70.8037C75.1759 71.0581 75.4528 71.474 75.7619 71.2841Z" fill="#231F20"/>
<path d="M101.628 79.0688C103.915 70.4409 104.139 57.8021 95.9583 52.0457C95.7287 51.8843 95.4084 52.2046 95.5698 52.4343C98.0687 55.9835 100.127 58.9256 101.149 63.2619C102.396 68.5528 101.459 73.6686 100.889 78.9694C100.843 79.3977 101.521 79.4685 101.628 79.0688Z" fill="#231F20"/>
<path d="M76.5926 70.72C76.8086 70.9273 77.0904 71.0539 77.3362 71.2227C77.5931 71.4002 77.8352 71.5442 78.1356 71.6311C78.2412 71.6609 78.2983 71.5331 78.2362 71.4586C77.8874 71.0452 77.2691 70.4642 76.6882 70.4891C76.5739 70.4928 76.5032 70.6343 76.5926 70.72Z" fill="#231F20"/>
<path d="M77.6277 69.9097C78.3092 70.4906 79.064 70.9884 79.7952 71.5061C80.5115 72.0126 81.234 72.6147 82.0471 72.9524C82.1638 72.9995 82.2445 72.8307 82.1638 72.7513C81.6077 72.2063 80.9013 71.8016 80.2744 71.341C79.4774 70.7563 78.709 70.1145 77.8636 69.6018C77.6774 69.4888 77.4551 69.7632 77.6277 69.9097Z" fill="#231F20"/>
<path d="M78.9907 68.262C81.6051 70.211 84.0134 72.453 86.6911 74.3126C86.8749 74.4417 87.1045 74.1463 86.932 74.001C84.4281 71.908 81.8658 69.8001 79.1521 67.9864C78.9783 67.8697 78.8293 68.1428 78.9907 68.262Z" fill="#231F20"/>
<path d="M81.1125 66.0835C84.8839 69.5446 88.4865 73.5531 92.6725 76.5052C92.7123 76.5337 92.7582 76.4716 92.7234 76.4394C89.0377 72.9386 85.558 68.647 81.3099 65.8278C81.1547 65.7235 80.9772 65.9581 81.1125 66.0835Z" fill="#231F20"/>
<path d="M83.1297 64.4072C88.0308 68.633 91.8071 74.1858 97.1949 77.884C97.3774 78.0093 97.5797 77.7325 97.427 77.5835C94.8014 75.0188 91.9487 72.6986 89.3827 70.0618C87.4473 68.0743 85.8248 65.4785 83.2749 64.2185C83.1582 64.1614 83.0204 64.3141 83.1297 64.4072Z" fill="#231F20"/>
<path d="M84.8292 62.5378C87.6583 64.9164 90.1796 67.6934 92.8474 70.2495C95.6356 72.921 98.7007 75.4063 101.365 78.1858C101.526 78.3547 101.783 78.0977 101.62 77.9301C98.9353 75.1568 95.9981 72.5622 93.1789 69.918C90.4825 67.388 88.0283 64.4509 85.0787 62.2138C84.8912 62.0736 84.6504 62.3889 84.8292 62.5378Z" fill="#231F20"/>
<path d="M86.7112 61.0527C87.7378 62.2544 89.1655 62.9943 90.3498 64.0284C91.7339 65.2363 92.9878 66.5944 94.3086 67.8693C96.8498 70.3199 99.7907 72.3856 102.058 75.1105C102.261 75.355 102.598 75.0074 102.403 74.7654C100.169 71.9685 97.2781 69.9177 94.645 67.5304C93.2845 66.2965 92.0008 64.9756 90.6527 63.7255C89.4969 62.6529 88.1239 61.8733 86.9818 60.7821C86.8018 60.6083 86.5535 60.8665 86.7112 61.0527Z" fill="#231F20"/>
<path d="M88.7409 58.7407C90.7532 61.3291 93.7996 63.3178 96.2713 65.4555C97.5624 66.5716 98.7256 67.8713 100.074 68.9178C100.833 69.5087 101.814 70.1294 102.352 70.945C102.473 71.1313 102.728 71.0071 102.696 70.7998C102.604 70.2213 101.855 69.7794 101.449 69.433C100.215 68.379 99.0111 67.3226 97.8243 66.2128C94.9728 63.545 91.7699 61.2384 89.0401 58.4378C88.8439 58.238 88.577 58.5309 88.7409 58.7407Z" fill="#231F20"/>
<path d="M90.7718 56.7643C94.2565 60.5854 98.4773 63.7932 102.332 67.2282C102.466 67.3486 102.665 67.2319 102.627 67.0556C102.362 65.7832 99.6032 64.1247 98.6734 63.3078C96.1111 61.0534 93.673 58.5905 90.9518 56.5297C90.8116 56.4242 90.6638 56.6452 90.7718 56.7643Z" fill="#231F20"/>
<path d="M92.7357 54.9654C95.8032 57.0485 98.6398 59.4184 101.678 61.5387C101.885 61.684 102.079 61.3451 101.875 61.2023C98.8819 59.108 96.1831 56.3347 92.8797 54.7209C92.7146 54.639 92.5842 54.8612 92.7357 54.9654Z" fill="#231F20"/>
<path d="M94.2441 53.3783C94.9032 53.7631 95.6009 54.0697 96.2539 54.472C96.8883 54.8618 97.5102 55.398 98.2389 55.5942C98.3059 55.6128 98.3606 55.5247 98.3072 55.475C97.7622 54.9648 97.0434 54.5986 96.414 54.1951C95.7772 53.7855 95.0621 53.3559 94.3036 53.2367C94.2205 53.2219 94.1621 53.3299 94.2441 53.3783Z" fill="#231F20"/>
<path d="M61.2498 44.2119C61.3652 44.2119 61.472 44.2243 61.5725 44.2454C61.755 44.1201 61.9387 43.9972 62.1237 43.8817L61.8643 43.4087C61.7215 43.1977 61.6855 43.0202 61.5216 42.788C61.3069 42.4839 60.9655 41.9774 60.7706 41.7788C60.0381 41.0339 59.2449 40.2071 58.4293 39.5864C58.1028 39.3381 57.7366 39.0265 57.3455 38.8267C56.7136 38.5052 56.2134 38.1836 55.5331 37.908C55.3468 37.8323 55.029 37.7293 54.8639 37.6784C54.5821 37.5902 54.391 37.5195 54.1476 37.4487C53.3072 37.2017 51.8423 37.008 50.9336 37.0006C48.9995 36.9844 47.3348 37.3171 45.5471 37.9949C45.382 38.057 45.3771 38.0731 45.2467 38.1141C44.3852 38.3922 42.2313 39.8285 41.6044 40.4269L41.3859 40.6205C40.9936 40.9271 40.5492 41.379 40.2923 41.8011C40.2227 41.9166 40.003 42.1077 39.8515 42.3026C39.7398 42.4454 39.5685 42.6502 39.4593 42.7955L38.0962 45.0536C37.9783 45.246 37.9174 45.4583 37.8293 45.6656C37.6381 46.11 37.5785 46.6116 37.4196 47.123C37.1478 47.997 37.0025 49.401 37 50.4401C36.9988 51.206 37.0398 52.5852 37.2297 53.1973C37.4047 53.7646 37.5214 54.6472 37.8007 55.3759C37.8703 55.5559 37.9447 55.6168 38.0292 55.8166C38.2961 56.446 38.5555 57.0903 38.9354 57.6502C39.0546 57.8252 39.098 57.9581 39.1899 58.0884C39.2519 58.1766 39.3165 58.2299 39.3488 58.2734C39.3922 58.3317 39.422 58.3913 39.4704 58.477L41.7633 61.0504C42.0414 61.3136 42.2611 61.4998 42.564 61.696L46.0003 63.7406C46.4832 63.712 46.9648 63.6946 47.4453 63.6897C47.5272 63.5506 47.6129 63.4153 47.6774 63.2688C47.8909 62.7797 48.1554 62.4321 48.3279 61.9343C48.5663 61.2453 49.29 60.1951 49.6426 59.4875C49.7133 59.346 49.6575 59.4751 49.7319 59.305L50.2161 58.3218C50.5327 57.8451 50.8294 57.1872 51.0975 56.6782L52.1887 54.8285C52.3203 54.5814 52.2172 54.7254 52.3935 54.5541L54.2681 51.566C54.2606 51.5648 54.2519 51.5648 54.2445 51.5623C53.7938 51.4593 53.5096 51.1427 53.3705 50.7579C53.342 50.8001 53.3122 50.8423 53.2886 50.8783C53.2476 50.9429 53.2327 50.9789 53.193 51.0595L52.5661 51.9918C52.1564 51.9956 51.8349 51.5834 51.455 51.3922C51.0814 51.2048 50.6928 51.0335 50.3167 50.8311C50.2831 50.3904 50.2782 49.4929 50.334 49.0634L50.4358 47.416C50.4582 46.1175 50.5674 45.3726 50.668 44.0766C50.9386 44.0319 50.8678 44.0195 51.0938 44.0965L51.2278 44.1548C51.2974 44.1734 51.3718 44.1672 51.4625 44.1908C52.6815 44.5099 52.2756 45.5849 52.7014 45.8121C53.0763 46.0132 53.9105 45.6954 53.4922 44.7197C52.864 43.2573 51.3197 43.2188 50.7909 42.9655C50.7338 42.104 51.0454 41.8272 50.0733 41.8532C49.7158 42.2766 49.7543 42.243 49.7183 42.968C49.3992 43.3777 48.5638 43.2461 47.0182 44.4577C46.5912 44.7929 46.4472 45.0027 46.1679 45.4695C45.9345 45.858 45.6502 46.3596 45.5993 46.9368C45.4615 48.5147 46.0499 49.0584 46.6495 49.9832C46.9835 50.4984 47.6129 50.7219 48.1305 51.0347C48.2323 51.0955 48.3192 51.1713 48.457 51.247C48.745 51.4034 48.8282 51.3811 49.105 51.5884C49.1572 52.6063 49.0864 53.6665 49.1472 54.6671C49.2031 55.5684 49.3769 56.698 49.2639 57.6639C48.6966 57.7657 48.1554 57.6353 47.8164 57.3696C47.3882 57.0345 47.4639 56.6521 46.6855 56.7291C46.4372 57.1027 46.5514 57.4342 46.8593 57.7756L47.1014 58.0177C47.6687 58.4819 47.8152 58.5055 48.6196 58.6756L47.5706 60.8642C47.0505 60.858 46.4844 60.4471 46.0847 60.1951L45.464 59.7892C45.3411 59.706 45.2591 59.6675 45.1213 59.5806C44.96 59.4776 44.9438 59.4391 44.8209 59.3311C44.374 58.9375 43.767 58.5924 43.3834 58.112C42.821 57.4069 42.1991 56.7651 41.7447 55.9867C41.5349 55.6267 41.1414 54.9265 41.0321 54.5243L40.7441 53.6938C40.6436 53.3959 40.5778 53.16 40.5157 52.8186C40.471 52.5703 40.4375 52.6101 40.404 52.4015C40.25 51.4531 40.2538 50.7492 40.2562 49.8082C40.2587 48.8995 40.9427 46.3918 41.5622 45.5775C41.5746 45.5613 41.6131 45.5229 41.6243 45.5067C41.9272 45.0797 41.7211 45.179 42.3791 44.4168L44.0289 42.7806C44.0897 42.7309 44.1381 42.6688 44.2002 42.6055C44.8259 41.9687 46.6681 41.2238 47.4788 40.9532L48.6556 40.6317C48.9176 40.6007 48.6519 40.6491 48.93 40.5746C49.4601 40.4306 50.6692 40.3822 51.2651 40.4492C51.5879 40.4852 51.3495 40.5075 51.6748 40.551L52.0521 40.5982C52.0968 40.6044 52.108 40.6069 52.1626 40.6118C53.4947 40.726 54.962 41.2884 56.0917 41.9737C57.0252 42.5397 56.623 42.3573 57.0687 42.7048L57.5578 43.1071C58.0854 43.6359 58.6949 44.1759 59.0587 44.8227L59.261 45.0437C59.3405 45.1244 59.4274 45.2485 59.5167 45.3987C59.6036 45.3478 59.6968 45.3031 59.7936 45.2684C59.8532 45.2473 59.9103 45.2212 59.9686 45.1964C60.1089 44.6626 60.5335 44.2119 61.2498 44.2119ZM50.3167 52.1483C50.9076 52.1234 51.4923 52.7752 51.8585 53.0955C51.7964 53.2953 51.2787 54.2649 51.0826 54.4672C50.7499 54.8111 50.8318 55.1401 50.5128 55.2729C50.267 54.934 50.2968 52.8757 50.3167 52.1483ZM49.0616 50.2042C48.7438 50.2079 48.2857 49.8752 47.9965 49.6654C47.9853 49.6568 47.9679 49.6456 47.9567 49.6369L47.6153 49.3054C47.6054 49.2955 47.593 49.2794 47.5831 49.2694C47.2715 48.938 47.2168 48.7344 47.0095 48.3086C46.5825 47.4272 46.8146 46.989 47.0853 46.1225C47.2442 45.616 47.2094 45.7401 47.4837 45.4868C47.8785 45.1206 47.7482 45.0884 48.4123 44.7023L48.9275 44.4627C48.9412 44.4565 48.9598 44.4478 48.9734 44.4403L49.4365 44.3224L49.0616 50.2042ZM38.0279 52.3804C37.9236 51.1998 37.8951 48.4203 38.3457 47.4259C38.5555 47.4148 39.3053 47.6953 39.4729 47.7847C39.5201 48.1882 39.2073 49.6617 39.2122 50.6325C39.2222 52.1743 39.6566 52.3978 38.8162 52.4276C38.5381 52.4375 38.301 52.4375 38.0279 52.3804ZM40.7615 56.2822C41.011 56.6347 40.9117 56.6869 41.4703 57.351L42.8073 58.9549C43.5634 59.7705 43.9259 59.8736 44.4572 60.3168C44.8532 60.6482 46.0884 61.336 46.6681 61.6128L47.0108 61.7841C47.0418 62.2409 46.8295 62.4582 46.6706 62.7251C46.256 62.7338 44.8246 62.0373 44.6645 61.8946C44.5031 61.7493 44.5242 61.7729 44.302 61.6401L43.4132 61.0902C43.0072 60.7724 42.8322 60.7016 42.5715 60.426C42.3592 60.2013 42.106 60.0449 41.6578 59.5657L40.548 58.2759C40.07 57.6279 39.7795 57.1723 39.4282 56.451C39.3252 56.2387 39.3115 56.2983 39.2184 56.0475C39.031 55.5398 38.6809 54.9228 38.5505 54.3853C38.5381 54.3344 38.5195 54.1842 38.5121 54.1643C38.5121 54.1643 38.2179 53.7435 38.3755 53.4753C38.4761 53.3028 39.2706 53.3661 39.5002 53.3711C39.9173 53.7894 39.9831 55.1798 40.7615 56.2822ZM40.5232 45.3515L39.8416 46.737C39.5462 46.7581 39.067 46.5557 38.7839 46.4514C38.6983 46.1088 39.0124 45.5477 39.1439 45.2113C39.3326 44.7271 39.211 44.8823 39.5313 44.4379C39.6802 44.2305 39.6355 44.2976 39.7696 44.0505L40.0502 43.6533C40.0589 43.6434 40.0738 43.6297 40.0825 43.6198L40.2438 43.374C40.6125 43.3926 41.0954 43.6843 41.3276 43.9289C41.3102 44.2492 40.7156 45.03 40.5232 45.3515ZM42.1668 43.0884C41.9942 43.158 41.4356 42.8302 41.2382 42.7222C41.0123 42.5993 41.0756 42.5435 41.0259 42.4901C41.0756 42.3026 41.5126 41.8396 41.6876 41.8433L42.1891 42.1475C42.7726 42.644 42.3778 43.004 42.1668 43.0884ZM57.595 40.5038L57.5963 40.474C57.5764 40.484 57.5504 40.4989 57.5144 40.52C57.0749 40.7695 57.1643 41.1891 56.7422 41.1792C56.4169 41.1717 55.9688 40.6938 55.9154 40.6602C55.2984 40.2791 53.9279 39.9179 53.2029 39.7242C51.9404 39.3878 51.8237 39.3667 50.514 39.3692C48.534 39.3729 49.254 39.5479 48.3925 39.6597C47.9331 39.7193 47.7047 39.795 47.372 39.8893C46.4236 40.16 46.405 40.1674 45.6676 40.5746L44.6819 41.0873C43.8104 41.4994 44.0612 41.6956 43.3983 41.8644C43.0904 41.6012 42.7602 41.3691 42.6149 40.9855C42.8074 40.6751 42.9687 40.6242 43.33 40.3685C43.6987 40.1066 43.6043 40.1115 43.6776 40.0457C43.8923 39.8533 45.495 39.106 45.8339 38.9719C47.1548 38.448 48.4558 38.0719 50.1714 38.0756C51.7343 38.0793 53.296 38.1687 54.6256 38.6641C55.5318 39.0017 56.8589 39.6261 57.6087 40.2344L57.5963 40.474C57.7018 40.4182 57.605 40.4889 57.595 40.5038ZM58.5633 42.6639L58.2828 42.3883C58.1872 42.2964 58.1996 42.2964 58.1164 42.217C57.8607 41.9699 57.5131 41.9029 58.2356 41.1854C58.4032 41.019 58.2356 41.1295 58.4479 41.0376C58.8054 41.0898 59.4361 41.8135 59.6434 42.063C59.9152 42.3908 60.4453 42.9482 60.5484 43.3119C60.4081 43.4733 59.95 43.8333 59.7477 43.9636C59.405 43.6396 59.3256 43.302 58.5633 42.6639Z" fill="black"/>
<path fill-rule="evenodd" clip-rule="evenodd" d="M42.615 40.9861C42.7602 41.3697 43.0905 41.6018 43.3983 41.865C44.0612 41.6962 43.8105 41.5 44.6819 41.0879L45.6676 40.5752C46.405 40.168 46.4236 40.1593 47.3721 39.8899C47.706 39.7943 47.9344 39.7198 48.3925 39.6602C49.2541 39.5485 48.534 39.3735 50.5141 39.3698C51.8238 39.3673 51.9405 39.3871 53.203 39.7248C53.928 39.9185 55.2985 40.2797 55.9155 40.6608C55.9689 40.6943 56.417 41.1723 56.7423 41.1797C57.1643 41.1897 57.075 40.7701 57.5144 40.5205C57.7639 40.379 57.5802 40.5044 57.5951 40.5081L57.6088 40.235C56.8602 39.6267 55.5319 39.0035 54.6256 38.6646C53.2961 38.1681 51.7344 38.0787 50.1715 38.0762C48.4571 38.0725 47.1548 38.4486 45.834 38.9725C45.4951 39.1066 43.8912 39.8539 43.6776 40.0463C43.6044 40.1121 43.6987 40.1084 43.33 40.3691C42.9688 40.6248 42.8074 40.6757 42.615 40.9861Z" fill="#EAE028"/>
<path fill-rule="evenodd" clip-rule="evenodd" d="M44.4559 60.3173C43.9246 59.8741 43.5621 59.7711 42.8061 58.9555L41.4691 57.3516C40.9104 56.6874 41.0097 56.6353 40.7602 56.2827C39.9819 55.1816 39.9161 53.79 39.4977 53.3704C39.2681 53.3642 38.4735 53.3021 38.373 53.4747C38.2153 53.7428 38.5095 54.1624 38.5095 54.1637C38.517 54.1835 38.5356 54.3337 38.548 54.3846C38.6784 54.9209 39.0285 55.5391 39.2159 56.0469C39.309 56.2989 39.3227 56.2393 39.4257 56.4503C39.777 57.1704 40.0675 57.6272 40.5455 58.2752L41.6553 59.565C42.1034 60.0442 42.3567 60.2006 42.569 60.4253C42.8297 60.7009 43.0047 60.7717 43.4106 61.0895L44.2995 61.6394C44.5217 61.7735 44.5006 61.7499 44.662 61.8939C44.8209 62.0367 46.2522 62.7331 46.6681 62.7244C46.827 62.4588 47.0405 62.2403 47.0083 61.7834L46.6656 61.6121C46.0871 61.3365 44.8519 60.6475 44.4559 60.3173Z" fill="#EAE028"/>
<path fill-rule="evenodd" clip-rule="evenodd" d="M38.0279 52.3816C38.3011 52.4387 38.5382 52.4387 38.8175 52.4287C39.6579 52.3989 39.2222 52.1755 39.2135 50.6337C39.2073 49.6629 39.5201 48.1881 39.4742 47.7859C39.3066 47.6965 38.5568 47.4159 38.347 47.4271C37.8951 48.4215 37.9237 51.1997 38.0279 52.3816Z" fill="#EAE028"/>
<path fill-rule="evenodd" clip-rule="evenodd" d="M40.5232 45.3519C40.7156 45.0291 41.3115 44.2482 41.3276 43.928C41.0955 43.6834 40.6113 43.3917 40.2439 43.373L40.0825 43.6188C40.0738 43.6288 40.0589 43.6424 40.0502 43.6524L39.7697 44.0496C39.6356 44.2967 39.6803 44.2296 39.5313 44.4369C39.211 44.8814 39.3327 44.7262 39.144 45.2103C39.0124 45.5468 38.6983 46.1079 38.784 46.4505C39.067 46.5548 39.5462 46.7571 39.8417 46.736L40.5232 45.3519Z" fill="#EAE028"/>
<path fill-rule="evenodd" clip-rule="evenodd" d="M58.2369 41.1848C57.5144 41.9024 57.862 41.9694 58.1177 42.2165C58.1996 42.2959 58.1885 42.2959 58.2841 42.3878L58.5646 42.6634C59.3268 43.3014 59.4063 43.6391 59.7502 43.9631C59.9525 43.8328 60.4106 43.4728 60.5509 43.3114C60.4466 42.9476 59.9178 42.3902 59.6459 42.0625C59.4386 41.813 58.8079 41.0892 58.4504 41.0371C58.2369 41.129 58.4045 41.0185 58.2369 41.1848Z" fill="#EAE028"/>
<path fill-rule="evenodd" clip-rule="evenodd" d="M41.0259 42.4903C41.0755 42.5437 41.0122 42.5995 41.2382 42.7224C41.4355 42.8304 41.9942 43.1582 42.1667 43.0887C42.3765 43.003 42.7713 42.6442 42.1891 42.1489L41.6875 41.8448C41.5138 41.8398 41.0755 42.3041 41.0259 42.4903Z" fill="#EAE028"/>
</svg>
