<svg width="141" height="136" viewBox="0 0 141 136" fill="none" xmlns="http://www.w3.org/2000/svg">
<mask id="mask0_121_1599" style="mask-type:luminance" maskUnits="userSpaceOnUse" x="0" y="0" width="141" height="136">
<path d="M70.3584 0C109.216 0 140.717 30.4446 140.717 68C140.717 105.555 109.216 136 70.3584 136C31.5005 136 0 105.555 0 68C0 30.4446 31.5005 0 70.3584 0Z" fill="white"/>
</mask>
<g mask="url(#mask0_121_1599)">
<path d="M0 0H140.717V136H0V0Z" fill="#F2FB3E"/>
</g>
<path d="M57.6743 93.5407L56.7352 98.2579L62.2148 96.3725L60.867 94.4899L58.0584 92.877L57.6743 93.5407Z" fill="#EAE028"/>
<path d="M102.151 59.0786L100.084 62.4901L98.057 64.2436L95.5774 61.8944L88.0052 54.7845L86.9646 53.5034L88.9616 50.8716L91.8847 48.9688H93.0992L94.889 49.9716L98.4497 53.7671L101.148 56.7714L102.151 59.0786Z" fill="#EAE028"/>
<path d="M86.1039 52.7471C78.5172 62.0454 69.7102 70.5422 61.7409 79.5289C57.5338 84.2722 57.7758 91.8923 56.1918 97.9023C56.0628 98.3892 56.5135 98.8399 57.0004 98.7109C61.8684 97.4341 66.661 95.4023 71.3812 93.6401C74.8839 92.3314 78.4012 87.4837 80.7997 84.8505C86.6807 78.4014 93.879 72.49 98.6876 65.1728C98.9615 64.7555 98.3368 64.2787 97.9992 64.6424C92.1225 70.9741 86.059 77.142 80.2345 83.523C78.4302 85.4997 76.6013 87.4823 74.6579 89.3243C73.7246 90.2097 72.2174 91.9372 71.0333 92.3807C66.3161 94.1458 61.5191 96.1733 56.6497 97.4443C56.9193 97.7138 57.1888 97.9834 57.4584 98.2515C58.4279 94.5937 59.1873 90.8793 59.9525 87.175C60.7308 83.4027 60.951 82.3781 63.4915 79.4608C71.0971 70.7306 79.7476 62.6309 86.8995 53.5413C87.3386 52.9834 86.5647 52.1834 86.1039 52.7471Z" fill="#231F20"/>
<path d="M58.2206 93.4608C58.5105 93.6463 58.8438 93.7246 59.151 93.8811C59.5684 94.0941 59.9148 94.4217 60.2423 94.7521C60.8206 95.3361 61.3017 96.0216 61.7901 96.6796C62.2031 97.2361 63.1466 96.6897 62.7263 96.1318C62.1263 95.3376 61.535 94.5535 60.7901 93.8869C60.1655 93.3289 59.1829 92.6217 58.3018 92.8391C58.0047 92.913 57.9815 93.3087 58.2206 93.4608Z" fill="#231F20"/>
<path d="M60.5249 83.4605C62.4335 83.9243 64.4146 83.4272 66.3174 84.0953C66.2276 83.8721 66.1377 83.6518 66.0479 83.4316C65.2696 84.988 64.4016 86.4228 63.9972 88.1314C63.9421 88.3633 64.0668 88.6676 64.3262 88.7126C66.3174 89.0531 68.1464 88.0285 70.0956 87.7966C69.9347 87.6358 69.7753 87.4764 69.6159 87.3169C69.6637 89.256 69.9289 91.3531 71.0709 92.9748C71.3984 93.4385 72.1028 93.0414 71.8376 92.5255C70.9796 90.8618 70.6245 89.1821 70.5753 87.3169C70.5695 87.0793 70.3608 86.8054 70.0956 86.8358C68.2913 87.0532 66.4 88.0981 64.5784 87.801C64.6885 87.9952 64.7972 88.1894 64.9073 88.3821C65.2812 86.7474 66.1001 85.3735 66.8276 83.8866C66.9609 83.6142 66.8464 83.3214 66.558 83.2214C64.7436 82.6026 62.3712 82.5316 60.5249 83.02C60.3104 83.0765 60.3046 83.4069 60.5249 83.4605Z" fill="#231F20"/>
<path d="M66.3262 84.0008C70.6043 80.84 74.1825 76.2807 77.8896 72.4895C81.7924 68.4984 85.8009 64.5883 89.3124 60.2392C89.5356 59.9624 89.1791 59.5813 88.9153 59.8421C81.0967 67.5651 73.5868 75.5807 65.8436 83.3747C65.532 83.6877 65.9537 84.2776 66.3262 84.0008Z" fill="#231F20"/>
<path d="M70.4912 87.5008C75.3708 83.6415 79.4967 78.5141 83.7183 73.9737C86.9472 70.4984 90.3254 67.0841 93.2064 63.3088C93.3977 63.0581 93.0064 62.8161 92.7963 62.9914C89.1964 66.0029 86.1632 69.8043 82.9807 73.2331C78.6895 77.8562 74.1853 82.2865 69.9101 86.9197C69.5405 87.3197 70.0825 87.8254 70.4912 87.5008Z" fill="#231F20"/>
<path d="M86.1821 53.6739C90.1254 57.3824 93.6862 61.5186 97.7397 65.1054C98.2281 65.5387 98.9252 64.8576 98.46 64.3851C94.6601 60.5258 90.8732 56.6332 86.8197 53.0348C86.3879 52.6551 85.756 53.2724 86.1821 53.6739Z" fill="#231F20"/>
<path d="M84.8749 55.4881C85.2111 57.2287 87.9995 59.0837 89.2255 60.317C91.5849 62.6908 94.2051 64.7502 96.5905 67.0892C97.0615 67.5501 97.7673 66.8414 97.3108 66.369C94.9949 63.9719 92.2819 61.985 89.9124 59.63C88.6777 58.404 86.8241 55.6157 85.0836 55.2795C84.9517 55.2534 84.8488 55.3563 84.8749 55.4881Z" fill="#231F20"/>
<path d="M86.9646 53.5035C88.4341 52.3485 91.0297 48.5964 93.1992 49.5544C94.7513 50.2399 96.0426 51.9963 97.1411 53.2441C98.173 54.4165 99.3019 55.4875 100.36 56.6353C102.98 59.4831 99.5758 61.9873 97.7541 63.98C97.331 64.4438 98.002 65.1249 98.4483 64.6727C99.7251 63.3742 103.155 60.8192 102.573 58.5802C101.913 56.0455 99.5396 54.4006 97.8686 52.5181C96.7846 51.2964 94.4673 48.1138 92.4731 48.3341C89.8674 48.6225 88.2907 51.4297 86.4574 52.9963C86.0994 53.3021 86.6081 53.7847 86.9646 53.5035Z" fill="#231F20"/>
<path d="M57.3468 30.5817C54.4194 30.3977 51.5876 30.1238 48.6688 30.547C45.6081 30.989 43.3777 34.0266 41.5299 36.199C36.9619 41.5713 38.0677 47.7348 38.2431 54.4013C38.688 71.3167 38.4344 88.2654 38.6851 105.187C38.6909 105.582 38.9952 105.848 39.3735 105.875C43.6458 106.188 47.8906 105.829 52.1629 105.717C57.0091 105.59 61.8757 105.974 66.732 105.876C73.3883 105.742 80.0621 105.4 86.7097 105.05C87.0966 105.029 87.398 104.748 87.4082 104.352C87.6256 95.6391 87.6763 86.5988 87.0763 77.915C87.0256 77.1745 85.9778 77.1745 85.9271 77.915C85.5474 83.4004 85.8111 88.9872 85.888 94.4826C85.9155 96.4811 86.0184 98.4767 86.0561 100.474C86.0764 101.552 86.0474 102.633 86.0271 103.713C85.9097 104.372 86.0633 104.356 86.4908 103.666C86.0126 103.693 85.5343 103.716 85.0575 103.737C70.8957 104.421 56.741 104.548 42.5705 104.658C38.7372 104.688 40.0445 100.045 40.0459 97.2478C40.0474 93.6363 39.8474 90.0176 39.785 86.4046C39.6575 79.0194 39.6155 71.6152 39.7314 64.2271C39.8416 57.2911 39.5256 50.3405 39.5227 43.4016C39.5213 39.6525 42.998 36.3917 45.4559 33.9469C48.6485 30.7716 53.2325 31.7266 57.3454 31.6179C58.0164 31.5962 58.0077 30.6223 57.3468 30.5817Z" fill="#231F20"/>
<path d="M52.5396 31.3843C63.7813 32.0336 75.1027 31.5438 86.3603 32.164C86.5676 32.1756 86.1487 31.0336 86.4053 33.6306C86.4966 34.5654 86.4371 35.5103 86.4198 36.4479C86.3835 38.4203 86.4226 40.3942 86.4444 42.368C86.4821 45.765 86.0169 49.4635 86.7415 52.804C86.8023 53.0866 87.2473 53.0866 87.3081 52.804C88.0313 49.4606 87.5733 45.7679 87.6415 42.368C87.7154 38.7305 88.1081 34.9364 87.4661 31.3351C87.4125 31.0307 87.0951 30.8554 86.8154 30.8394C75.5012 30.1684 63.8422 29.5858 52.5411 30.3916C51.9034 30.4365 51.8991 31.3481 52.5396 31.3843Z" fill="#231F20"/>
<path d="M39.2691 43.6236C42.5342 44.041 45.6254 45.1815 48.8833 45.6032C49.1543 45.6395 49.3905 45.3482 49.3876 45.1004C49.3645 43.0251 49.0659 40.9556 48.85 38.8933C48.6659 37.1441 48.7152 34.6166 47.8442 33.0631C47.7138 32.8312 47.4037 32.9558 47.3819 33.1877C47.208 34.9963 47.8732 37.0803 48.0659 38.8933C48.2848 40.9585 48.3601 43.0251 48.3804 45.1004C48.5485 44.9323 48.7167 44.7641 48.8848 44.596C45.6631 44.1729 42.5545 42.6526 39.2706 42.8135C38.7344 42.841 38.7633 43.5598 39.2691 43.6236Z" fill="#231F20"/>
<path d="M52.1222 43.4207C54.4396 43.699 56.6786 43.4744 58.7249 44.2613C58.8641 44.3149 59.0148 44.225 59.0887 44.112C60.2249 42.3903 62.748 43.8671 64.2682 44.2048C65.8928 44.5656 66.7421 42.5019 68.5884 43.9946C68.8101 44.1743 69.0855 44.1019 69.1898 43.8352C69.9898 44.112 70.4941 44.6468 70.7014 45.4424C70.7854 45.612 71.084 45.6236 71.1637 45.4424C71.9955 43.541 74.4187 44.6004 76.2621 44.4323C76.6084 44.4004 76.6215 43.8816 76.2621 43.883C75.4621 43.8859 72.4303 43.9932 71.7579 43.5787C71.6753 43.528 71.5492 43.557 71.5042 43.6454C70.7217 45.1902 70.3304 43.5671 69.4898 42.7773C69.4217 42.7135 69.3072 42.7048 69.2406 42.7773C68.629 43.4396 67.7348 42.5005 67.058 42.3425C65.8841 42.07 65.3755 43.6961 63.5204 43.2758C62.0205 42.9352 61.0031 42.715 59.438 42.7512C58.4134 42.7744 59.3423 45.0584 57.5482 42.515C57.4279 42.3454 57.1496 42.2541 56.9931 42.4439C56.4163 43.1439 52.9222 42.8048 52.1222 42.8048C51.7165 42.8077 51.7396 43.3758 52.1222 43.4207Z" fill="#231F20"/>
<path d="M44.643 51.2053C45.0691 51.3951 45.4937 51.5879 45.9183 51.7792C45.9734 52.0299 46.356 52.1531 46.5285 51.9401C47.3197 50.9633 51.6921 51.2096 52.8196 51.0473C54.8586 50.7546 56.5876 50.9879 58.5281 51.6154C58.631 51.6488 59.3121 51.8966 59.6426 51.8386C61.2396 51.5531 62.2396 51.0807 63.8613 51.527C64.1004 51.5937 64.696 51.6372 64.8685 51.343C65.5511 50.1807 65.9061 51.2299 66.7525 51.3125C67.822 51.4169 68.4684 50.6589 69.5741 50.7444C71.5755 50.8981 73.6218 51.0053 75.6073 50.7068C75.9275 50.6589 75.8522 50.114 75.5305 50.143C73.1711 50.3561 70.3335 49.5285 68.0365 50.1604C66.8945 50.4749 66.4264 50.1213 65.1859 49.9604C65.0946 49.9488 65.0076 50.0198 64.9612 50.0894C64.6627 50.5372 57.5644 50.5633 57.7339 50.614C56.5064 50.2488 54.8441 50.1705 53.621 50.3807C52.7544 50.5314 50.7993 49.9198 50.2385 50.243C50.1472 50.2952 46.5951 51.4343 46.4314 50.6024C46.0908 48.8749 44.6662 50.0213 44.1387 50.6995C43.8575 51.0546 44.3445 51.5662 44.643 51.2053Z" fill="#231F20"/>
<path d="M45.2963 61.6109C45.8355 59.5588 47.2644 59.8283 48.189 61.4573C48.3209 61.6877 48.7151 61.6543 48.773 61.3804C49.2296 59.2341 50.0513 59.2979 51.2208 60.8297C51.3005 60.9341 51.4382 61.0341 51.5802 60.9761C53.6077 60.1472 55.8612 61.4631 57.9351 61.3906C59.3858 61.3413 60.0683 60.2051 61.5784 61.3558C61.6683 61.4239 61.8002 61.4007 61.8929 61.3558C64.8392 59.924 68.4261 59.7124 71.6636 59.8457C71.9201 59.8559 71.9564 59.4805 71.723 59.4095C69.1231 58.6168 66.7116 59.5675 64.1001 59.7704C63.4233 59.824 63.1697 59.9457 62.6146 60.2298C61.5596 60.7718 61.148 59.9892 60.3133 59.3776C60.2278 59.3138 60.1118 59.337 60.0234 59.3776C58.6423 60.0109 60.2712 59.4993 58.2119 60.5645C57.2974 61.0399 54.87 60.2573 53.7946 60.1211C51.8889 59.879 51.5309 60.0573 50.073 58.7878C49.9614 58.6907 49.8382 58.6805 49.7063 58.7399C48.7716 59.1718 48.6252 59.5675 48.3049 60.5587C48.4151 60.2182 47.5093 58.7428 46.8992 58.3849C45.2833 57.4385 44.7645 60.5138 44.5282 61.3993C44.3949 61.8964 45.1659 62.108 45.2963 61.6109Z" fill="#231F20"/>
<path d="M44.9803 69.7257C46.6064 68.404 48.2991 70.4996 49.8266 70.6735C51.6903 70.8851 53.6945 70.4011 55.4699 70.6474C57.322 70.9025 58.2538 69.1779 60.4074 70.2025C61.974 70.9489 64.4681 69.8489 65.9637 69.5214C66.1971 69.4707 66.0956 69.1286 65.8666 69.1692C63.6971 69.5417 61.8001 70.4851 59.6132 69.5446C58.3147 68.9881 59.5364 69.1939 57.8698 69.0866C56.9727 69.0301 55.0278 69.7388 53.954 70.0243C52.8337 70.3214 48.8686 69.0518 48.2194 68.6316C46.8295 67.7345 45.6484 68.1823 44.4253 69.1736C44.0325 69.4895 44.5919 70.0431 44.9803 69.7257Z" fill="#231F20"/>
<path d="M44.4835 77.5195C47.5573 76.3833 50.6239 77.8224 53.5832 76.921C55.1208 76.4529 56.2208 76.934 57.6657 77.3297C58.6468 77.6007 60.1337 77.2616 61.0047 77.192C61.4192 77.1587 61.4308 76.5355 61.0047 76.5384C59.3221 76.5572 58.0599 76.7746 56.5077 75.8775C55.7831 75.4573 55.1034 75.721 54.3716 75.8848C50.9572 76.6413 47.6211 75.5413 44.2951 76.8384C43.8791 77.0021 44.0531 77.6775 44.4835 77.5195Z" fill="#231F20"/>
<path d="M41.2545 77.3887C41.1588 84.2276 41.0472 91.1462 41.4835 97.975C41.5081 98.3518 42.0501 98.3547 42.0704 97.975C42.4602 91.1404 41.8124 84.2276 41.6719 77.3887C41.6675 77.1191 41.2588 77.1191 41.2545 77.3887Z" fill="#231F20"/>
<path d="M41.5805 99.5401C41.5124 100.059 41.5182 100.563 41.6168 101.075C41.6631 101.32 42.0023 101.328 42.1182 101.141C42.4254 100.644 42.4646 100.11 42.3907 99.5401C42.324 99.0198 41.6501 99.0212 41.5805 99.5401Z" fill="#231F20"/>
<path d="M64.1392 103.115C68.7231 103.57 74.507 103.955 78.9344 102.48C79.1677 102.402 79.1417 102.013 78.8735 102.031C76.4185 102.2 74.0143 102.538 71.5462 102.58C69.0608 102.624 66.5681 102.461 64.1073 102.871C63.9581 102.896 64.0102 103.103 64.1392 103.115Z" fill="#231F20"/>
<path d="M80.9054 102.429C81.3518 102.326 81.8634 102.263 82.1909 101.921C82.2532 101.855 82.2126 101.724 82.1126 101.731C81.6692 101.766 81.2402 101.974 80.8112 102.09C80.591 102.15 80.6852 102.481 80.9054 102.429Z" fill="#231F20"/>
<path d="M84.2938 34.0238C84.2155 37.4063 84.2401 40.87 84.8749 44.2046C84.9111 44.3974 85.2068 44.3467 85.2082 44.1597C85.23 40.783 84.8474 37.3991 84.7387 34.0238C84.7285 33.7369 84.2996 33.7369 84.2938 34.0238Z" fill="#231F20"/>
<path d="M84.7444 46.0392C84.7285 46.5044 84.6169 47.0319 84.8212 47.4638C84.8618 47.5478 85.0053 47.5478 85.0458 47.4638C85.2502 47.0319 85.1386 46.5058 85.1227 46.0392C85.1154 45.7942 84.7531 45.7942 84.7444 46.0392Z" fill="#231F20"/>
<path d="M48.1354 92.1085C47.7804 92.4722 47.2036 93.0447 47.2007 93.5867C47.2007 93.6867 47.3253 93.7374 47.3963 93.6678C47.5557 93.5113 47.6297 93.2983 47.7456 93.1084C47.9181 92.8273 48.1441 92.5824 48.376 92.349C48.5296 92.1925 48.2876 91.9519 48.1354 92.1085Z" fill="#231F20"/>
<path d="M48.646 93.613C48.4879 93.8669 48.3356 94.1221 48.1963 94.3876C48.1659 94.447 48.2297 94.5195 48.2906 94.4818C48.5763 94.3049 48.7243 94.0409 48.9114 93.7682C49.0231 93.6058 48.7504 93.4433 48.646 93.613Z" fill="#231F20"/>
<path d="M49.9154 94.6407C49.5992 94.835 49.37 95.2368 49.6239 95.5631C49.6688 95.6197 49.7675 95.6095 49.8139 95.5631C49.9691 95.4021 49.9517 95.1628 50.1504 95.041C50.4042 94.8843 50.1707 94.4826 49.9154 94.6407Z" fill="#231F20"/>
<path d="M78.5202 91.5788C78.6376 91.8167 78.7131 92.0777 78.8726 92.288C78.9408 92.3765 79.1018 92.3577 79.0989 92.2271C79.0916 91.9298 78.9393 91.6731 78.8073 91.4105C78.7116 91.2191 78.4259 91.3873 78.5202 91.5788Z" fill="#231F20"/>
<path d="M67.1294 37.8494C66.6754 37.9161 66.3621 38.4673 66.5507 38.8879C66.5869 38.9662 66.703 38.9517 66.7421 38.8879C66.9162 38.6065 67.0119 38.3193 67.2759 38.1003C67.4064 37.993 67.2599 37.8291 67.1294 37.8494Z" fill="#231F20"/>
<path d="M68.7406 38.3518C68.5421 38.6518 68.3392 39.0112 68.4348 39.3778C68.4609 39.4778 68.5928 39.4662 68.6232 39.3778C68.7362 39.0633 68.7696 38.772 68.9435 38.4706C69.0189 38.3387 68.8232 38.2257 68.7406 38.3518Z" fill="#231F20"/>
<path d="M72.4493 37.8457C72.3405 38.1068 72.2796 38.4113 72.4261 38.6637C72.458 38.7203 72.5407 38.7174 72.5726 38.6637C72.7075 38.4346 72.6553 38.1778 72.7583 37.9313C72.838 37.7413 72.5276 37.6586 72.4493 37.8457Z" fill="#231F20"/>
<path d="M74.0274 57.9532C74.0535 58.1823 74.1216 58.3839 74.2 58.6015C74.2232 58.6682 74.3363 58.6856 74.3508 58.6015C74.3929 58.3694 74.329 58.1881 74.3145 57.9532C74.3029 57.7661 74.0071 57.7704 74.0274 57.9532Z" fill="#231F20"/>
<path d="M74.9245 57.3468C75.0376 57.6847 75.145 58.0357 75.3828 58.307C75.4205 58.349 75.5032 58.3041 75.4815 58.2504C75.3495 57.9328 75.1986 57.6296 75.0884 57.3018C75.0536 57.2003 74.8897 57.2438 74.9245 57.3468Z" fill="#231F20"/>
<path d="M77.9301 55.9675C77.9446 56.2852 78.0287 56.5898 78.3159 56.7624C78.3812 56.8015 78.445 56.7261 78.4145 56.6637C78.2913 56.4186 78.1622 56.2591 78.1462 55.969C78.1375 55.8297 77.9229 55.8268 77.9301 55.9675Z" fill="#231F20"/>
<path d="M43.0518 56.336C42.8603 56.6405 42.6892 56.9814 42.7501 57.3483C42.7631 57.4238 42.8763 57.4151 42.8951 57.3483C42.985 57.0162 43.0373 56.7406 43.2215 56.436C43.2867 56.3258 43.1185 56.2301 43.0518 56.336Z" fill="#231F20"/>
<path d="M44.53 56.8381C44.3646 57.0426 44.2631 57.2717 44.2326 57.5357C44.2283 57.5807 44.2935 57.6053 44.3226 57.572C44.4763 57.3907 44.5053 57.1615 44.6678 56.9773C44.7519 56.8816 44.6083 56.7394 44.53 56.8381Z" fill="#231F20"/>
<path d="M42.5259 39.9279C42.375 40.1876 42.1647 40.4022 42.1879 40.7112C42.1952 40.8025 42.3069 40.8663 42.3779 40.7895C42.5824 40.5719 42.5969 40.2775 42.7101 40.0063C42.7565 39.8989 42.5824 39.8322 42.5259 39.9279Z" fill="#231F20"/>
<path d="M43.1299 40.6468C43.0327 40.86 42.9602 41.0572 43.0675 41.2748C43.0922 41.3256 43.1778 41.3256 43.2024 41.2748C43.2851 41.1109 43.2749 40.9456 43.3489 40.7759C43.4156 40.6279 43.1981 40.4959 43.1299 40.6468Z" fill="#231F20"/>
<path d="M67.3928 77.544C67.3145 77.8585 67.3029 78.5961 67.7971 78.5454C67.8493 78.5396 67.8869 78.515 67.9043 78.4628C67.9884 78.2092 67.8493 77.7976 67.784 77.544C67.7333 77.3527 67.4406 77.3498 67.3928 77.544Z" fill="#231F20"/>
<path d="M68.671 77.2847C68.6899 77.569 68.9002 77.8837 69.2091 77.6923C69.2657 77.6575 69.2846 77.5705 69.2309 77.5226C69.1482 77.4472 69.0249 77.4124 69.0104 77.2847C68.9872 77.073 68.658 77.0628 68.671 77.2847Z" fill="#231F20"/>
<path d="M88.1271 72.435C88.4778 72.5394 88.9343 72.6379 89.2763 72.4713C89.3517 72.435 89.3517 72.3104 89.2763 72.2742C88.956 72.1162 88.5647 72.193 88.2198 72.1003C88.0039 72.0438 87.914 72.3713 88.1271 72.435Z" fill="#231F20"/>
<path d="M89.114 72.0084C89.4011 72.0084 89.7072 72.0519 89.9755 71.9431C90.0654 71.9069 90.0654 71.7966 89.9755 71.7604C89.7086 71.6516 89.4011 71.6951 89.114 71.6951C88.9109 71.6951 88.9109 72.0084 89.114 72.0084Z" fill="#231F20"/>
<path d="M92.7154 53.7826C92.4544 53.9146 92.2585 54.1495 92.3891 54.4411C92.4152 54.4991 92.4964 54.4846 92.5254 54.4411C92.6328 54.283 92.6632 54.1017 92.8271 53.974C92.9388 53.8884 92.846 53.7159 92.7154 53.7826Z" fill="#231F20"/>
<path d="M93.0704 54.8535C92.9587 55.0638 92.8267 55.2292 92.8891 55.4714C92.9079 55.5468 93.0254 55.57 93.0631 55.4946C93.1444 55.3249 93.2183 55.1581 93.3083 54.9928C93.3924 54.8376 93.1531 54.6969 93.0704 54.8535Z" fill="#231F20"/>
<path d="M97.7413 59.6407C97.6035 59.9307 97.4483 60.2368 97.4701 60.5646C97.4759 60.6501 97.589 60.7183 97.6543 60.6414C97.8602 60.4021 97.9124 60.1004 98.0415 59.8162C98.1315 59.6146 97.8385 59.4376 97.7413 59.6407Z" fill="#231F20"/>
<path d="M98.6313 59.7767C98.5472 59.9638 98.4776 60.1509 98.45 60.3554C98.4428 60.4149 98.5298 60.4453 98.5675 60.4033C98.7024 60.2495 98.7372 60.0769 98.8242 59.8884C98.8837 59.7593 98.6893 59.6462 98.6313 59.7767Z" fill="#231F20"/>
<path d="M62.6427 90.6445C62.3627 90.7562 62.2365 90.994 62.2148 91.2885C62.2046 91.4277 62.3772 91.4683 62.4657 91.3914C62.6499 91.2334 62.7456 91.0347 62.7949 90.7968C62.8138 90.7141 62.7384 90.6068 62.6427 90.6445Z" fill="#231F20"/>
<path d="M63.7031 92.2969C63.6001 92.5551 63.5842 92.8118 63.6552 93.0801C63.6726 93.1468 63.7698 93.1454 63.7872 93.0801C63.8481 92.8524 63.8394 92.6131 63.9352 92.3941C64.0106 92.2258 63.7713 92.1257 63.7031 92.2969Z" fill="#231F20"/>
<path d="M67.9322 92.3924C67.8292 92.5839 67.7102 92.7362 67.7378 92.9566C67.7465 93.0219 67.8306 93.0393 67.8538 92.9726C67.9147 92.7957 67.9916 92.6405 68.0801 92.4766C68.1309 92.3808 67.9844 92.2953 67.9322 92.3924Z" fill="#231F20"/>
</svg>
