<svg width="141" height="136" viewBox="0 0 141 136" fill="none" xmlns="http://www.w3.org/2000/svg">
<mask id="mask0_121_1499" style="mask-type:luminance" maskUnits="userSpaceOnUse" x="0" y="0" width="141" height="136">
<path d="M70.3584 0C109.216 0 140.717 30.4446 140.717 68C140.717 105.555 109.216 136 70.3584 136C31.5005 136 0 105.555 0 68C0 30.4446 31.5005 0 70.3584 0Z" fill="white"/>
</mask>
<g mask="url(#mask0_121_1499)">
<path d="M0 0H140.717V136H0V0Z" fill="#F2FB3E"/>
</g>
<path d="M86.6774 69.0609L80.4009 68.834L79.6323 72.9349L78.6499 86.8069L78.8637 92.6017L80.8299 93.3396L84.0728 93.5958L85.5237 93.1332L86.7243 69.2234" fill="#EAE028"/>
<path d="M52.3363 61.3224C52.0288 55.1075 49.9074 44.9995 55.6012 40.6702C61.516 36.1726 59.7562 46.976 59.5541 48.2673C59.2218 50.3931 59.5673 52.251 60.3389 54.2393C60.5658 54.8264 61.4062 54.6067 61.2847 53.9787C60.6873 50.8807 60.7605 48.6919 61.1851 45.6422C61.3813 44.2221 61.3579 42.881 61.0621 41.4872C60.5541 39.1051 58.0242 38.6235 56.0682 39.2501C48.4257 41.6995 51.0171 55.9098 51.9234 61.3795C51.9615 61.6153 52.3494 61.5582 52.3363 61.3224Z" fill="#231F20"/>
<path d="M59.4472 50.1306C59.7723 54.4013 61.7634 57.921 64.6959 60.9662C66.1058 62.4289 67.9828 63.5738 69.5698 64.8153C71.8318 66.5868 72.987 68.7141 74.2856 71.1972C74.413 71.4402 74.7732 71.3158 74.7805 71.0625C74.8595 67.9835 72.5902 65.6747 70.2638 63.9164C65.0254 59.956 61.7956 56.5638 59.9172 50.0662C59.8425 49.8159 59.4253 49.8554 59.4472 50.1306Z" fill="#231F20"/>
<path d="M74.3383 72.953C74.3251 73.9779 74.4554 74.9661 74.287 75.9895C74.1201 77.0041 73.5623 77.8767 73.2988 78.8591C73.2431 79.0655 73.4906 79.1915 73.6399 79.0582C75.2767 77.6117 75.4407 74.8651 74.9693 72.8681C74.8829 72.508 74.3441 72.5958 74.3383 72.953Z" fill="#231F20"/>
<path d="M73.2081 68.2372C73.8567 69.4231 74.8434 70.3543 75.9312 71.1376C76.8697 71.814 78.6881 72.6587 79.7554 71.9091C79.9457 71.7744 79.9589 71.5109 79.7554 71.3791C79.2781 71.0673 78.8155 71.0893 78.2606 70.9882C77.6179 70.8696 77.0073 70.5754 76.4407 70.2664C75.3324 69.6662 74.4803 68.7014 73.4335 68.0132C73.2901 67.9195 73.1349 68.0996 73.2081 68.2372Z" fill="#231F20"/>
<path d="M51.5016 57.5444C51.5265 59.5253 50.0068 60.9411 48.4051 61.8298C47.5779 62.288 46.6599 62.5618 45.7434 62.7697C45.0787 62.9205 44.357 62.881 43.7479 63.2001C43.6322 63.2616 43.6235 63.4593 43.7479 63.5164C45.2735 64.2382 47.7507 63.0274 49.0815 62.269C50.8984 61.2339 51.8574 59.6073 51.588 57.543C51.5822 57.4902 51.5002 57.4859 51.5016 57.5444Z" fill="#231F20"/>
<path d="M52.6304 67.7637C52.4386 68.4855 52.3434 69.2366 52.1692 69.9672C51.9686 70.7973 51.6729 71.6347 51.5338 72.4737C51.503 72.6567 51.7241 72.7577 51.8325 72.5996C52.7182 71.3097 53.6962 69.3713 53.3683 67.7637C53.2892 67.386 52.7255 67.4124 52.6304 67.7637Z" fill="#231F20"/>
<path d="M53.5089 67.6526C51.0727 63.6718 45.07 63.8445 41.1389 62.3146C39.6251 61.7245 36.3192 59.9808 34.6048 60.9852C33.3955 61.6938 33.3252 64.3072 32.984 65.4814C31.7469 69.7418 39.4918 71.0375 42.0423 71.6231C44.5107 72.1897 49.9644 75.339 51.875 72.4196C52.1312 72.0287 51.5909 71.7037 51.2762 71.9569C49.1064 73.7007 45.3642 71.5324 43.0949 70.9014C40.2371 70.1078 32.8171 69.4051 34.126 64.8869C34.7043 62.8899 34.249 61.4391 37.3441 61.9749C39.3659 62.3263 41.3307 63.4038 43.2633 64.07C46.4828 65.1827 50.7125 64.802 52.7812 68.0786C53.0697 68.5369 53.7944 68.1181 53.5089 67.6526Z" fill="#231F20"/>
<path d="M36.1112 69.1696C32.8742 68.6279 31.4965 70.1169 31.129 73.3568C30.7117 77.02 34.754 77.6012 37.669 78.4035C41.3424 79.4122 47.4051 81.5161 50.8061 79.1048C53.2014 77.4065 53.3492 73.9688 50.7432 72.5823C50.2469 72.3203 49.8618 73.0099 50.3098 73.3246C52.9085 75.1503 51.118 78.0184 48.8545 78.9159C47.3319 79.5191 45.3056 78.8559 43.7903 78.5441C42.1271 78.2 40.4507 77.976 38.7949 77.5924C36.8696 77.1459 34.9546 76.5588 33.1699 75.6994C31.7615 75.02 32.066 74.0508 32.3003 72.6922C32.6355 70.7479 33.9386 69.7991 35.9883 70.0685C36.5007 70.133 36.6178 69.2545 36.1112 69.1696Z" fill="#231F20"/>
<path d="M32.6766 76.3117C30.9329 76.827 30.605 79.7727 31.4351 81.1943C33.0895 84.0259 37.9429 84.2674 40.7466 85.1986C43.2487 86.0287 47.1563 86.7036 49.5354 85.2923C51.4855 84.1357 51.2674 80.4564 50.0742 78.9309C49.8707 78.6703 49.3773 78.8826 49.411 79.2061C49.5881 80.8854 50.7447 83.9717 48.0128 84.752C46.1695 85.2791 43.6103 84.7008 41.8197 84.3318C39.2386 83.7989 28.485 81.1197 33.0997 77.0422C33.4335 76.7465 33.0836 76.1916 32.6766 76.3117Z" fill="#231F20"/>
<path d="M32.2595 82.5856C31.7734 84.2385 31.3927 85.5971 32.7236 86.8826C34.561 88.6585 38.2095 89.026 40.5461 89.7537C44.2341 90.9044 48.0422 90.0289 48.373 85.5986C48.4155 85.0364 47.641 85.0262 47.4624 85.4756C46.0818 88.9587 44.4508 89.7493 40.7862 88.8767C39.2885 88.5194 37.8039 87.9997 36.3281 87.5619C33.6899 86.7816 32.2756 85.6045 33.034 82.7993C33.1701 82.2971 32.4059 82.0892 32.2595 82.5856Z" fill="#231F20"/>
<path d="M34.5932 87.9329C44.0248 94.8506 65.3402 98.9764 71.6723 85.5787C71.7953 85.3166 71.5054 85.1102 71.2858 85.2814C68.813 87.2184 66.9434 89.5243 64.1236 91.0777C60.9026 92.8551 57.0975 93.2416 53.49 93.1699C46.7084 93.0352 40.8887 89.9709 34.7294 87.6093C34.5274 87.5303 34.4439 87.8231 34.5932 87.9329Z" fill="#231F20"/>
<path d="M63.2611 92.5795C65.936 91.1901 69.3985 91.4946 72.3208 91.6117C74.432 91.6952 77.0819 92.4389 79.098 91.6981C79.3835 91.5927 79.3703 91.2413 79.098 91.133C76.6515 90.1491 73.088 90.4654 70.4731 90.4288C67.8144 90.3922 65.3825 90.9441 63.0898 92.2852C62.8995 92.3965 63.0664 92.6805 63.2611 92.5795Z" fill="#231F20"/>
<path d="M86.8151 68.5541C84.5384 68.1646 82.3248 68.0168 80.0335 68.3403C79.8578 68.3652 79.6719 68.5629 79.6411 68.7342C78.2019 76.4674 78.1331 84.7131 78.1434 92.5781C78.1434 92.846 78.3235 93.0627 78.5723 93.1417C80.5796 93.7815 83.0319 94.5663 85.0948 93.8708C85.5545 93.7156 85.4842 93.0187 84.9791 93.0143C83.6878 93.0026 82.5985 92.9265 81.2984 92.6732C80.3395 92.4858 79.3161 91.7918 79.3132 92.4258C79.319 90.5972 79.3439 88.7685 79.3922 86.9414C79.4698 84.0615 79.7304 81.1846 79.8227 78.3019C79.9061 75.7441 80.0818 73.1981 80.4259 70.6609C80.7172 68.5102 85.414 69.2451 86.7228 69.2246C87.0962 69.2173 87.2045 68.62 86.8151 68.5541Z" fill="#231F20"/>
<path d="M86.3978 66.8488C85.7858 76.4034 85.4886 85.9418 84.6336 95.4861C84.6013 95.8477 84.9483 96.1025 85.2704 96.123C92.5908 96.6017 100.916 98.7817 108.167 97.3542C108.434 97.3015 108.438 96.8652 108.167 96.8169C105.639 96.3499 85.859 96.0058 86.0581 93.8185C86.8707 84.9287 87.5588 75.7724 87.0507 66.8503C87.0273 66.4257 86.4241 66.4272 86.3978 66.8488Z" fill="#231F20"/>
<path d="M86.7741 67.0497C93.3273 68.8652 101.908 68.3322 108.596 67.3747C108.833 67.3411 108.829 66.9399 108.596 66.9004C105.494 66.3762 102.362 66.5417 99.226 66.6002C95.0988 66.6793 90.9862 66.2928 86.8692 66.3411C86.4622 66.3455 86.3788 66.9399 86.7741 67.0497Z" fill="#231F20"/>
<path d="M57.011 66.6133C58.418 71.0846 58.9143 77.7505 64.4206 79.137C64.6769 79.2029 64.8233 78.853 64.5993 78.7139C62.204 77.2366 60.636 75.6788 59.5511 73.0523C58.6786 70.9382 58.1632 68.6645 57.418 66.502C57.3301 66.2458 56.929 66.3527 57.011 66.6133Z" fill="#231F20"/>
<path d="M60.8469 84.3707C61.1734 83.3297 62.5891 83.1804 63.5071 82.9886C63.655 82.9579 63.6579 82.7148 63.5071 82.687C62.2392 82.4498 60.6668 82.8056 60.2686 84.2111C60.1632 84.5859 60.7312 84.7382 60.8469 84.3707Z" fill="#231F20"/>
<path d="M55.1794 84.2381C54.9642 84.2103 54.8471 84.1034 54.6553 84.0522C54.4591 83.9995 54.2585 83.9775 54.0579 83.9365C53.7578 83.8765 53.4518 83.7462 53.1429 83.7813C52.9906 83.7974 52.8559 83.957 52.954 84.1093C53.1561 84.4211 53.5162 84.5485 53.8603 84.648C54.0287 84.6964 54.2307 84.7593 54.4064 84.7593C54.6758 84.7593 54.9115 84.6598 55.178 84.6319C55.4356 84.607 55.4298 84.2718 55.1794 84.2381Z" fill="#231F20"/>
<path d="M49.4974 65.7863C49.3934 66.2123 49.3846 66.6296 49.351 67.0659C49.3188 67.4831 49.2353 67.9428 49.3261 68.3528C49.3627 68.5167 49.594 68.5343 49.6745 68.3982C49.8795 68.0497 49.8795 67.6324 49.9117 67.2386C49.9512 66.7511 49.9293 66.2621 49.8122 65.7877C49.7741 65.6296 49.5354 65.6296 49.4974 65.7863Z" fill="#231F20"/>
<path d="M48.7902 71.1675C48.7038 71.7298 48.6277 72.2905 48.8034 72.8395C48.8429 72.9625 49.0127 72.9625 49.0537 72.8395C49.2294 72.2905 49.1533 71.7298 49.0669 71.1675C49.0449 71.0314 48.8122 71.0314 48.7902 71.1675Z" fill="#231F20"/>
<path d="M48.0333 73.2458C47.925 74.7186 47.4887 76.0304 47.0919 77.4345C47.0627 77.5413 47.2105 77.5984 47.2662 77.5077C48.048 76.2442 48.6863 74.7464 48.66 73.2443C48.6526 72.8358 48.0611 72.8446 48.0333 73.2458Z" fill="#231F20"/>
<path d="M46.8957 78.4772C46.8825 78.8198 46.7244 79.18 46.802 79.5196C46.8239 79.6177 46.9572 79.6031 46.985 79.5196C47.0962 79.1975 47.1577 78.8184 47.1812 78.4772C47.1943 78.2942 46.9015 78.2913 46.8957 78.4772Z" fill="#231F20"/>
<path d="M46.0817 80.5941C45.9807 81.3129 45.8943 82.0201 45.6879 82.7184C45.4873 83.3963 45.0598 84.0112 44.9119 84.7008C44.8929 84.7872 44.9763 84.8443 45.0525 84.8091C46.3189 84.2293 46.6761 81.878 46.5502 80.657C46.5253 80.411 46.1227 80.3071 46.0817 80.5941Z" fill="#231F20"/>
<path d="M44.054 86.1192C43.7992 86.7766 43.6807 87.4603 43.3849 88.1089C43.1433 88.6418 42.5797 89.2172 42.6397 89.8146C42.6514 89.9229 42.751 90.0386 42.8725 89.9917C43.4713 89.7633 43.7026 88.9918 43.9559 88.4427C44.2692 87.7561 44.5913 86.9435 44.5093 86.1793C44.48 85.9157 44.1506 85.8704 44.054 86.1192Z" fill="#231F20"/>
<path d="M36.4289 67.1242C36.1581 67.3892 35.9736 67.6747 35.9809 68.0656C35.9809 68.1315 36.0732 68.1842 36.12 68.1242C36.3308 67.8548 36.3821 67.5151 36.5827 67.2443C36.6529 67.1506 36.5065 67.0481 36.4289 67.1242Z" fill="#231F20"/>
<path d="M36.7496 67.7154C36.6149 67.8838 36.5315 68.0346 36.6032 68.2454C36.6193 68.2922 36.6882 68.3083 36.7145 68.26C36.7892 68.1209 36.8228 67.9731 36.9195 67.8486C36.9956 67.7505 36.8258 67.6188 36.7496 67.7154Z" fill="#231F20"/>
<path d="M38.4246 68.2284C38.3294 68.4056 38.2855 68.5388 38.3573 68.7321C38.3763 68.7818 38.4363 68.7789 38.4553 68.7321C38.511 68.5959 38.5315 68.4685 38.6061 68.3353C38.675 68.2167 38.489 68.1098 38.4246 68.2284Z" fill="#231F20"/>
<path d="M39.328 76.1447C39.1918 76.4127 38.9941 76.7289 39.1757 77.0115C39.2138 77.0715 39.3104 77.0964 39.3616 77.0364C39.5271 76.8402 39.552 76.5737 39.6632 76.3409C39.7716 76.1155 39.4436 75.9193 39.328 76.1447Z" fill="#231F20"/>
<path d="M40.3294 76.9409C40.2709 77.1458 40.2342 77.3391 40.2284 77.5514C40.2284 77.5924 40.287 77.5894 40.2899 77.5514C40.3089 77.3376 40.3441 77.1619 40.4085 76.9628C40.4246 76.913 40.3441 76.8896 40.3294 76.9409Z" fill="#231F20"/>
<path d="M41.382 76.9063C41.2576 77.1552 41.139 77.3939 41.1785 77.6764C41.1873 77.7423 41.2869 77.7335 41.303 77.6764C41.3688 77.4378 41.4245 77.2211 41.5358 76.9956C41.5855 76.8932 41.4347 76.8024 41.382 76.9063Z" fill="#231F20"/>
<path d="M38.9414 82.4793C38.8916 82.6828 38.8711 82.8219 38.9326 83.0224C38.956 83.0956 39.0541 83.0927 39.0775 83.0224C39.1507 82.8014 39.1141 82.8219 39.1785 82.5437C39.2137 82.39 38.9794 82.3241 38.9414 82.4793Z" fill="#231F20"/>
<path d="M39.9648 82.9241C39.8754 83.0617 39.8769 83.1613 39.9794 83.2828C40.0101 83.3179 40.0731 83.315 40.1053 83.2828C40.1697 83.2125 40.1756 83.154 40.2283 83.0793C40.3425 82.9197 40.0716 82.7587 39.9648 82.9241Z" fill="#231F20"/>
<path d="M40.098 88.3584C40.0262 88.5136 40.0248 88.6278 40.1287 88.7698C40.158 88.8108 40.2297 88.8357 40.2693 88.7889C40.3293 88.7113 40.3688 88.6307 40.4215 88.5473C40.5533 88.3394 40.1975 88.1403 40.098 88.3584Z" fill="#231F20"/>
<path d="M52.1751 79.9512C52.0799 80.2748 51.9745 80.632 52.0975 80.957C52.1238 81.0273 52.2161 81.0668 52.2746 81.0039C52.5235 80.736 52.5411 80.3553 52.5572 80.0025C52.566 79.7785 52.2351 79.7462 52.1751 79.9512Z" fill="#231F20"/>
<path d="M53.4781 80.3905C53.361 80.6013 53.2688 80.796 53.2439 81.039C53.2351 81.1342 53.3888 81.1781 53.4284 81.0888C53.5191 80.8853 53.5718 80.6701 53.6538 80.4651C53.6934 80.3612 53.5309 80.2982 53.4781 80.3905Z" fill="#231F20"/>
<path d="M54.2146 81.0482C54.1707 81.1814 54.1502 81.2824 54.1678 81.4201C54.178 81.5079 54.2703 81.5562 54.342 81.4933C54.4606 81.3849 54.4811 81.2883 54.5426 81.139C54.6246 80.9399 54.2849 80.8374 54.2146 81.0482Z" fill="#231F20"/>
<path d="M72.3545 87.5331C72.2682 87.9035 72.1818 88.29 72.1906 88.6721C72.195 88.8127 72.3882 88.8361 72.4321 88.7043C72.5449 88.3529 72.6005 87.984 72.7088 87.6297C72.7806 87.4013 72.4087 87.3017 72.3545 87.5331Z" fill="#231F20"/>
<path d="M73.738 88.0278C73.6033 88.3762 73.4291 88.8799 73.5814 89.243C73.6107 89.3118 73.7219 89.3542 73.7615 89.2664C73.9298 88.9106 73.902 88.4904 74.0528 88.1142C74.1304 87.9194 73.8127 87.8331 73.738 88.0278Z" fill="#231F20"/>
<path d="M75.0689 88.6788C74.9621 88.8896 74.8406 89.0829 74.8713 89.3244C74.8801 89.3874 74.9635 89.405 74.987 89.3391C75.0543 89.1385 75.1304 88.957 75.2285 88.7696C75.2842 88.6671 75.1217 88.5719 75.0689 88.6788Z" fill="#231F20"/>
<path d="M76.442 89.1113C76.3776 89.3295 76.3351 89.4554 76.3673 89.675C76.3791 89.7467 76.4757 89.7599 76.5211 89.7145C76.6807 89.5593 76.7187 89.4232 76.7963 89.208C76.8798 88.9884 76.5108 88.8829 76.442 89.1113Z" fill="#231F20"/>
<path d="M87.7902 93.5765C91.7564 94.1124 95.5322 94.6804 99.5701 94.4872C99.7282 94.4784 99.7795 94.228 99.6096 94.1987C97.8147 93.8913 95.9963 93.9498 94.1809 93.9206C92.0272 93.8869 89.9746 93.4023 87.8502 93.1344C87.5999 93.1036 87.5398 93.5428 87.7902 93.5765Z" fill="#231F20"/>
<path d="M101.533 94.6848C102.006 94.7434 102.642 94.9235 103.097 94.7434C103.227 94.6921 103.224 94.534 103.097 94.4813C102.653 94.2954 102.005 94.3832 101.533 94.433C101.369 94.4491 101.372 94.6643 101.533 94.6848Z" fill="#231F20"/>
<path d="M90.3186 89.177C90.0639 89.445 89.8106 89.9018 89.9263 90.281C89.9555 90.3776 90.0712 90.382 90.1239 90.3073C90.3289 90.0218 90.2703 89.6558 90.506 89.3644C90.6114 89.2341 90.4387 89.0511 90.3186 89.177Z" fill="#231F20"/>
<path d="M91.0361 90.0389C90.919 90.2394 90.856 90.3961 90.9526 90.6128C90.9834 90.6816 91.0756 90.6391 91.08 90.5791C91.0815 90.4239 91.1225 90.2746 91.2074 90.1384C91.2703 90.0272 91.099 89.9276 91.0361 90.0389Z" fill="#231F20"/>
<path d="M92.197 89.962C92.0154 90.2358 91.9012 90.6003 92.0798 90.8961C92.1208 90.9634 92.2189 90.9488 92.2424 90.8756C92.3244 90.6076 92.2819 90.3573 92.4444 90.1055C92.5454 89.9503 92.298 89.8097 92.197 89.962Z" fill="#231F20"/>
<path d="M93.9612 90.4263C93.9012 90.6869 93.8295 90.8963 93.9217 91.1496C93.9466 91.2169 94.0505 91.2477 94.0901 91.1701C94.1955 90.9607 94.2189 90.7396 94.2775 90.5127C94.3287 90.3092 94.0081 90.2214 93.9612 90.4263Z" fill="#231F20"/>
<path d="M81.0598 88.7567C80.931 89.0671 80.7553 89.3921 80.8651 89.7244C80.8812 89.7727 80.9588 89.7947 80.9837 89.7391C81.1169 89.4433 81.1213 89.1139 81.2297 88.8035C81.2692 88.6937 81.1023 88.6542 81.0598 88.7567Z" fill="#231F20"/>
<path d="M81.9002 89.5329C81.7567 89.6955 81.6864 89.8375 81.7274 90.0512C81.7435 90.1317 81.8489 90.1142 81.8723 90.0512C81.928 89.9004 81.9411 89.7804 82.0407 89.6413C82.0978 89.5593 81.966 89.4583 81.9002 89.5329Z" fill="#231F20"/>
<path d="M82.9851 89.5632C82.9324 89.7477 82.9265 89.8677 82.9909 90.0493C83.0114 90.1122 83.092 90.1108 83.1154 90.0493C83.1798 89.8765 83.1666 89.8209 83.2296 89.6306C83.2794 89.4768 83.0305 89.408 82.9851 89.5632Z" fill="#231F20"/>
<path d="M51.3143 57.0989C51.0522 57.7607 51.061 58.5015 50.8985 59.1984C50.6687 60.1881 50.0142 60.8499 49.1548 61.3316C48.4111 61.7488 47.619 62.1148 46.8416 62.4691C46.0788 62.8176 45.2252 62.8791 44.4991 63.2641C44.4141 63.3095 44.4156 63.4413 44.4991 63.4867C46.0319 64.3227 48.9835 62.4852 50.2324 61.6332C51.5325 60.7445 52.3187 58.5894 51.7711 57.0989C51.6906 56.8676 51.4022 56.8764 51.3143 57.0989Z" fill="#231F20"/>
<path d="M52.4709 62.6041C52.6012 63.137 52.8282 63.6172 53.1239 64.077C53.3874 64.4884 53.7022 64.9569 54.1898 65.1106C54.2761 65.1384 54.3493 65.0359 54.3054 64.9598C54.0726 64.566 53.7388 64.2482 53.4841 63.8661C53.2074 63.4503 52.9585 62.9877 52.8003 62.5133C52.7301 62.3069 52.4182 62.3903 52.4709 62.6041Z" fill="#231F20"/>
</svg>
