<svg width="141" height="136" viewBox="0 0 141 136" fill="none" xmlns="http://www.w3.org/2000/svg">
<mask id="mask0_121_1293" style="mask-type:luminance" maskUnits="userSpaceOnUse" x="0" y="0" width="141" height="136">
<path d="M70.3584 0C109.216 0 140.717 30.4446 140.717 68C140.717 105.555 109.216 136 70.3584 136C31.5005 136 0 105.555 0 68C0 30.4446 31.5005 0 70.3584 0Z" fill="white"/>
</mask>
<g mask="url(#mask0_121_1293)">
<path d="M0 0H140.717V136H0V0Z" fill="#F2FB3E"/>
</g>
<path d="M80.296 69.7373V73.2293L81.3331 74.8291L84.701 73.7087L85.2518 69.8852L84.701 68.8431L87.2953 68.6986L86.0219 65.1131L83.4735 63.3398L79.6517 64.0182L77.4926 67.2467L78.5483 69.2171L80.296 69.7373Z" fill="#EAE028"/>
<path d="M65.8333 43.8595H63.1625L61.5729 43.0095L61.9333 35.5409L65.8333 30.3811L75.342 29.8711L81.702 30.8912L84.9118 32.241L86.2022 36.1105L86.5014 40.6701L86.6221 43.8595L84.701 44.849L83.142 44.0006L83.1131 42.3804L82.632 39.4409L81.9129 36.0203L79.1825 33.681L68.9836 34.5498L66.2532 36.8092L66.0424 41.9894L65.8333 43.8595Z" fill="#EAE028"/>
<path d="M61.4659 43.8527C62.9722 44.6109 65.6889 45.4831 66.9691 43.885C67.576 43.1267 66.6716 42.2308 65.9116 42.8275C64.7114 43.7694 63.2272 43.0978 61.913 42.7935C61.2942 42.6507 60.8572 43.5467 61.4659 43.8527Z" fill="#231F20"/>
<path d="M61.8772 43.3904C62.6151 41.9879 62.406 40.5173 62.4621 38.9464C62.6746 32.9637 66.0136 30.7944 71.6528 30.672C74.8643 30.6006 78.1183 31.2211 81.2856 31.6462C86.2618 32.316 85.6582 40.349 85.9081 43.8971C85.9761 44.8593 87.3226 44.8542 87.3991 43.8971C87.6949 40.1484 87.5929 34.4411 85.0496 31.3537C82.7511 28.5656 74.7657 29.0722 71.6528 29.0059C68.0248 28.9277 64.2353 29.5958 62.2326 32.8362C60.694 35.3269 59.9901 40.8862 61.5219 43.3887C61.5984 43.5179 61.8024 43.5316 61.8772 43.3904Z" fill="#231F20"/>
<path d="M66.7904 43.2857C66.5269 40.4567 65.971 36.4462 69.3576 35.3105C71.1563 34.7087 73.3307 34.9144 75.2127 34.8515C78.4514 34.7461 81.4759 34.083 81.7921 38.6053C81.9247 40.5026 81.8941 42.3506 82.1746 44.2411C82.3327 45.3037 83.9512 44.8531 83.7897 43.7957C83.4055 41.2914 84.2725 36.5686 82.3276 34.5199C80.2841 32.3693 77.1831 33.233 74.5429 33.3469C71.9587 33.4591 69.0618 33.2823 66.8907 34.9127C64.5004 36.708 65.0835 40.7916 65.4151 43.2857C65.5273 44.1425 66.8737 44.1833 66.7904 43.2857Z" fill="#231F20"/>
<path d="M82.292 44.7097C82.8701 45.1909 83.7949 45.1824 84.5192 45.247C85.3811 45.3269 86.3672 45.2249 87.0489 44.6587C87.6677 44.1453 87.003 43.1592 86.2924 43.3582C85.6089 43.552 85.019 43.6387 84.3015 43.6302C83.6725 43.6217 83.0044 43.4262 82.4212 43.7186C82.0761 43.8937 81.9894 44.4581 82.292 44.7097Z" fill="#231F20"/>
<path d="M36.42 45.4084C44.8525 47.0235 44.2455 55.4356 45.5971 61.981C46.5696 66.6869 52.1799 68.8868 56.2074 70.0854C62.5624 71.9759 69.4053 71.068 75.8606 70.4237C83.3937 69.6723 90.9609 69.2914 98.5195 68.9531C101.996 68.7967 107.008 68.4873 109.312 65.4186C111.923 61.9351 111.15 56.7498 110.526 52.7359C109.788 47.9875 109.075 42.9382 104.711 40.2078C99.9935 37.2548 91.8075 37.9654 86.5287 37.5234C85.3896 37.4282 85.4457 39.1249 86.5287 39.266C91.9809 39.9868 98.63 39.6604 103.689 41.9555C108.57 44.1691 108.732 53.8851 108.997 58.319C109.417 65.3506 104.633 66.8824 98.5195 67.3023C92.7001 67.7018 86.8704 67.996 81.0476 68.3955C71.7837 69.0296 49.9562 73.2833 47.1136 60.2384C45.8334 54.3629 45.1857 43.5247 36.4183 44.8338C36.1293 44.878 36.1412 45.3557 36.42 45.4084Z" fill="#231F20"/>
<path d="M61.3315 37.7455C55.5393 37.5874 49.6399 37.8917 43.8494 38.179C40.3557 38.3524 36.8841 39.0121 34.0738 41.1865C31.136 43.4595 31.5118 49.5238 31.221 52.8203C30.5988 59.8995 31.4659 66.9056 31.6784 73.9729C31.8569 79.9011 32.3482 85.5829 33.2782 91.4346C33.7525 94.4166 33.052 99.8382 35.2741 102.256C37.2819 104.44 40.8555 102.871 43.2101 102.101C47.1748 100.804 51.1819 103.565 54.9969 102.176C55.6192 101.95 55.4712 101.149 54.8473 101.072C51.9826 100.715 49.0823 99.6937 46.2023 99.5866C43.3478 99.4812 40.6736 100.926 37.8497 101.208C35.2146 101.472 33.88 77.0705 33.8443 75.7784C33.5485 65.2208 32.4434 55.0338 34.4478 44.5425C35.3149 40.0066 42.4621 40.0457 45.949 39.942C51.085 39.789 56.2006 39.5663 61.3315 39.2841C62.3175 39.228 62.3277 37.7727 61.3315 37.7455Z" fill="#231F20"/>
<path d="M48.477 66.2827C49.1231 72.2364 49.3356 78.6033 49.2421 84.5893C49.1775 88.7648 48.7983 92.8773 49.6586 97.0035C50.3709 100.414 52.4178 101.767 55.6752 102.366C61.8279 103.498 68.885 102.694 75.0496 102.071C81.9095 101.38 88.9071 100.75 95.8061 100.808C99.7129 100.841 104.427 100.764 106.811 97.1395C109.006 93.8039 108.601 88.3109 108.587 84.5672C108.567 78.6186 108.191 72.5033 107.232 66.6278C107.13 66.0005 106.204 66.196 106.173 66.7706C105.707 75.7845 107.844 85.0688 105.9 93.9909C104.599 99.9565 97.246 98.7053 92.6116 98.8651C86.753 99.0674 80.8758 99.4312 75.0496 100.108C70.0887 100.686 65.2179 100.647 60.2383 100.667C57.0897 100.681 53.1404 100.883 51.7718 97.4081C51.0425 95.555 51.0306 93.4214 50.9677 91.4594C50.699 83.0542 51.6562 74.3888 49.9391 66.0838C49.7725 65.2694 48.3852 65.4445 48.477 66.2827Z" fill="#231F20"/>
<path d="M40.1737 50.3809C39.3406 57.0215 40.4474 63.7828 40.6854 70.442C40.6939 70.6784 41.0696 70.7498 41.1138 70.4998C42.2665 63.8559 41.0288 57.0521 40.6548 50.3809C40.6378 50.0647 40.2111 50.08 40.1737 50.3809Z" fill="#231F20"/>
<path d="M42.1391 78.6622C41.7124 81.3756 41.9317 84.1536 42.0524 86.889C42.1918 90.0631 42.1136 93.3256 42.695 96.4538C42.7477 96.7377 43.2203 96.7411 43.2696 96.4538C43.7372 93.7472 43.5213 90.9812 43.4193 88.244C43.3002 85.0648 43.3801 81.7989 42.848 78.6606C42.7885 78.312 42.1952 78.3069 42.1391 78.6622Z" fill="#231F20"/>
<path d="M77.5674 69.796C78.3257 68.8711 78.2118 67.4651 78.8391 66.3856C79.4902 65.2669 80.6871 64.5138 81.9605 64.3421C83.1455 64.1823 84.2539 64.6719 85.0768 65.4964C86.1002 66.5233 85.8911 68.1554 86.8755 69.1176C87.0642 69.303 87.3243 69.235 87.4705 69.0411C88.4515 67.7236 87.3056 65.7106 86.4215 64.6226C85.4253 63.3951 83.7983 62.8664 82.2665 62.9021C80.6684 62.9378 79.2012 63.7963 78.1931 64.9932C77.3073 66.0439 76.1835 68.4818 77.0999 69.7331C77.2019 69.8759 77.4348 69.9575 77.5674 69.796Z" fill="#231F20"/>
<path d="M79.3832 69.5252C79.0125 71.7302 79.0006 75.5877 82.0863 75.5418C83.6912 75.5163 85.1822 74.6629 85.7993 73.1753C86.3128 71.9393 85.8877 69.7343 85.053 68.7397C84.7725 68.4048 84.1655 68.6734 84.191 69.0968C84.2591 70.2324 84.9221 71.1896 84.6892 72.3797C84.458 73.5595 82.916 73.9471 81.8721 73.9437C80.427 73.9369 80.852 70.4007 80.7092 69.5269C80.6021 68.8621 79.4954 68.8655 79.3832 69.5252Z" fill="#231F20"/>
<path d="M66.9593 38.5615C67.0194 38.5615 67.0194 38.4688 66.9593 38.4688C66.8991 38.4688 66.8991 38.5615 66.9593 38.5615Z" fill="#231F20"/>
<path d="M66.4879 39.4797C68.7354 39.733 70.9286 39.7381 73.1965 39.7381C76.3366 39.7381 79.7759 40.3297 82.8479 39.6004C83.6521 39.4082 83.7116 38.0703 82.8479 37.9207C77.5674 37.006 71.8466 37.5466 66.4896 37.4854C65.1737 37.4701 65.2434 39.3402 66.4879 39.4797Z" fill="#231F20"/>
<path d="M96.1393 41.6524C100.422 42.7201 103.948 43.6908 105.787 48.174C107.227 51.683 106.819 55.396 107.051 59.0665C107.069 59.3691 107.508 59.4524 107.591 59.1396C109.737 51.0998 105.451 40.9622 96.1937 41.2461C95.9659 41.2529 95.9081 41.5929 96.1393 41.6524Z" fill="#231F20"/>
<path d="M106.226 61.457C106.268 61.7273 106.131 62.0231 105.993 62.2492C105.852 62.4804 105.651 62.5552 105.682 62.8579C105.696 62.9956 105.764 63.1027 105.901 63.1452C106.364 63.2897 106.671 62.8052 106.836 62.4396C107.02 62.0367 106.945 61.6151 106.688 61.2632C106.515 61.0252 106.18 61.1697 106.226 61.457Z" fill="#231F20"/>
<path d="M105.004 87.0123C103.905 91.0891 103.552 94.5029 98.9461 96.0619C95.4473 97.2452 91.6323 96.4818 88.0485 96.968C87.7816 97.0037 87.7867 97.4577 88.0485 97.4985C95.4864 98.6426 106.829 97.3183 105.498 87.0803C105.464 86.8133 105.083 86.7147 105.004 87.0123Z" fill="#231F20"/>
<path d="M83.6401 96.8218C79.7741 95.982 75.5425 97.2162 71.6867 97.677C67.0437 98.2312 62.7901 98.1938 58.1505 97.6158C57.9278 97.5886 57.8309 97.9524 58.0349 98.0425C61.8856 99.7528 65.8231 99.5709 69.9679 99.1663C74.4545 98.7293 79.3083 98.3383 83.6401 97.1533C83.7999 97.1091 83.8101 96.8575 83.6401 96.8218Z" fill="#231F20"/>
<path d="M40.6277 44.0085C44.9595 44.6359 46.459 51.6607 47.576 55.0796C47.6389 55.2717 47.9415 55.2445 47.9364 55.0303C47.8412 51.1387 45.5001 43.6889 40.6583 43.7841C40.5342 43.7875 40.4968 43.9898 40.6277 44.0085Z" fill="#231F20"/>
<path d="M47.9381 58.2092C47.8259 61.7658 49.866 66.1214 53.749 66.611C53.8358 66.6212 53.8596 66.492 53.7916 66.4546C50.6532 64.695 49.271 61.4478 48.2985 58.1599C48.239 57.9609 47.9432 58.0017 47.9381 58.2092Z" fill="#231F20"/>
<path d="M51.7412 52.4048C51.1784 52.6191 50.1975 53.209 50.2842 53.9281C50.2978 54.0335 50.4168 54.1457 50.5256 54.0658C50.7449 53.9077 50.852 53.668 51.0033 53.447C51.2175 53.1291 51.5457 52.9064 51.884 52.7415C52.0693 52.648 51.9367 52.33 51.7412 52.4048Z" fill="#231F20"/>
<path d="M51.8483 54.4268C51.2142 54.6835 50.3726 55.1307 50.2995 55.8855C50.2876 55.9977 50.4287 56.064 50.5171 56.0113C50.7875 55.8515 50.9439 55.6254 51.1666 55.4095C51.4114 55.1698 51.7242 55.01 52.0353 54.8739C52.2886 54.7634 52.105 54.3231 51.8483 54.4268Z" fill="#231F20"/>
<path d="M52.3379 56.7492C51.8823 56.9396 51.5661 57.1963 51.5848 57.72C51.5882 57.7914 51.6749 57.8322 51.7276 57.7795C51.9418 57.5652 52.1798 57.3272 52.4671 57.2218C52.7646 57.113 52.6235 56.6302 52.3379 56.7492Z" fill="#231F20"/>
<path d="M73.6504 64.1106C73.409 64.5577 72.933 65.2378 73.188 65.7478C73.2424 65.8549 73.3937 65.8379 73.4515 65.7478C73.5773 65.5523 73.5569 65.486 73.6062 65.2395C73.6725 64.9113 73.8289 64.5968 73.9666 64.2959C74.0636 64.0834 73.766 63.8981 73.6504 64.1106Z" fill="#231F20"/>
<path d="M74.4494 65.2106C74.1332 65.5574 73.8203 66.1933 74.1331 66.6251C74.1995 66.7152 74.3474 66.7679 74.4324 66.6642C74.6823 66.3599 74.6143 65.9485 74.8812 65.6458C75.1396 65.35 74.7163 64.9182 74.4494 65.2106Z" fill="#231F20"/>
<path d="M76.095 65.1811C76.0916 65.4922 75.9828 65.9427 76.2531 66.162C76.3347 66.2283 76.4214 66.2283 76.5013 66.162C76.7717 65.9427 76.6629 65.4922 76.6595 65.1811C76.6561 64.8172 76.0984 64.8172 76.095 65.1811Z" fill="#231F20"/>
<path d="M93.9394 45.8612C93.8765 46.0516 93.8663 46.2522 93.8595 46.4528C93.8425 46.9067 94.4511 47.0274 94.6755 46.6738C94.8353 46.4205 94.8693 46.1451 94.7792 45.8595C94.65 45.4412 94.072 45.4514 93.9394 45.8612Z" fill="#231F20"/>
<path d="M95.1465 47.0779C95.1618 47.3431 95.1396 47.5641 95.2893 47.7902C95.3726 47.9177 95.5477 47.9177 95.6327 47.7902C95.7806 47.5641 95.7602 47.3431 95.7755 47.0779C95.7959 46.6733 95.1261 46.6733 95.1465 47.0779Z" fill="#231F20"/>
<path d="M64.8474 85.1328C64.1724 85.2297 63.9038 86.2056 64.0687 86.7649C64.1146 86.9196 64.2982 86.9587 64.4138 86.8567C64.7862 86.5269 65.2894 85.9761 65.252 85.4406C65.235 85.2161 65.0616 85.1022 64.8474 85.1328Z" fill="#231F20"/>
<path d="M65.1313 87.0777C65.1415 87.2069 65.1415 87.2188 65.1806 87.3413C65.201 87.4076 65.2928 87.4076 65.3132 87.3413C65.3523 87.2188 65.3523 87.2069 65.3625 87.0777C65.3727 86.9298 65.1211 86.9298 65.1313 87.0777Z" fill="#231F20"/>
<path d="M91.5661 85.6175C91.8517 86.0324 92.2138 86.5271 92.7103 86.6784C92.8854 86.7328 93.0792 86.5135 92.9602 86.3537C92.6865 85.9831 92.2903 85.7365 92.0149 85.3557C91.8211 85.0888 91.374 85.3404 91.5661 85.6175Z" fill="#231F20"/>
<path d="M93.0366 85.5865C93.3002 85.8279 93.5841 86.0047 93.8935 85.7565C93.987 85.6817 93.9581 85.544 93.8935 85.4641C93.7762 85.3213 93.6079 85.2771 93.4804 85.1445C93.1982 84.8521 92.7391 85.3128 93.0366 85.5865Z" fill="#231F20"/>
<path d="M99.9832 78.7646C100.175 78.9211 100.396 79.1149 100.648 79.1472C100.843 79.1744 101.053 79.0333 100.986 78.8089C100.905 78.5334 100.685 78.4518 100.481 78.2665C100.14 77.9588 99.633 78.4841 99.9832 78.7646Z" fill="#231F20"/>
<path d="M42.1798 53.1238C41.3281 52.7821 40.5171 53.151 39.7317 53.5199C38.9632 53.882 37.967 54.4465 37.746 55.3339C37.7052 55.4954 37.8565 55.6739 38.0282 55.6161C38.7456 55.3747 39.3441 54.8341 39.9969 54.4601C40.7041 54.0571 41.4998 53.8463 42.2274 53.4859C42.3991 53.4043 42.3226 53.1816 42.1798 53.1238Z" fill="#231F20"/>
<path d="M41.2481 55.7151C40.5697 55.421 39.9951 55.6182 39.3627 55.9446C38.7795 56.249 37.9278 56.8763 37.7612 57.5427C37.7306 57.6668 37.8241 57.8284 37.9669 57.8131C38.5143 57.7553 38.8985 57.3302 39.3219 57.0157C39.8931 56.5873 40.5238 56.2949 41.2005 56.079C41.3484 56.0297 41.4181 55.7865 41.2481 55.7151Z" fill="#231F20"/>
<path d="M41.5867 58.0258C40.2028 58.4865 38.2562 59.1512 37.5574 60.5606C37.4809 60.7153 37.6509 60.9465 37.8193 60.8224C38.4262 60.3702 38.9243 59.8279 39.5823 59.4318C40.2623 59.022 41.0086 58.699 41.7329 58.3777C41.9335 58.2876 41.7907 57.9578 41.5867 58.0258Z" fill="#231F20"/>
<path d="M42.1681 60.3604C40.5156 61.0336 38.7322 61.9449 37.3976 63.1435C37.3109 63.2217 37.4027 63.3645 37.5098 63.3339C39.232 62.8578 40.6703 61.6117 42.3313 60.9503C42.6934 60.8058 42.5336 60.2125 42.1681 60.3604Z" fill="#231F20"/>
<path d="M42.2682 62.361C41.2635 62.5293 40.3267 62.8897 39.4342 63.3742C38.8119 63.7109 37.6644 64.3773 37.6695 65.1831C37.6712 65.3056 37.78 65.3719 37.8922 65.3515C38.5739 65.2409 39.2403 64.4351 39.8439 64.0747C40.6497 63.5919 41.5525 63.2773 42.4756 63.1107C42.9721 63.0223 42.7578 62.2777 42.2682 62.361Z" fill="#231F20"/>
<path d="M41.2601 65.3895C40.3216 65.7754 38.6249 66.0117 38.2305 67.11C38.1982 67.1984 38.3121 67.2783 38.3869 67.2307C38.851 66.9366 39.225 66.5387 39.7079 66.2582C40.2179 65.9624 40.7721 65.7465 41.2873 65.4575C41.3264 65.4388 41.3009 65.3725 41.2601 65.3895Z" fill="#231F20"/>
<path d="M42.6167 66.9773C41.158 66.8651 39.4919 67.4601 38.6045 68.6706C38.5433 68.7539 38.6436 68.8644 38.7337 68.8389C40.1023 68.4564 41.1104 67.5094 42.6167 67.5434C42.9839 67.5519 42.9754 67.0062 42.6167 66.9773Z" fill="#231F20"/>
<path d="M42.0048 68.6985C41.3417 68.7818 40.5376 68.8753 40.1602 69.5078C40.0871 69.6302 40.2061 69.7594 40.3319 69.7339C40.9371 69.6081 41.4557 69.1848 42.0439 68.9995C42.202 68.9502 42.1833 68.6764 42.0048 68.6985Z" fill="#231F20"/>
<path d="M43.4211 80.5326C42.384 80.7604 41.2909 80.8743 40.315 81.3164C39.6792 81.6054 38.6744 82.2514 38.8359 83.0709C38.8529 83.161 38.9685 83.1729 39.028 83.1219C39.317 82.8703 39.4667 82.5132 39.7557 82.2463C40.1212 81.9097 40.6567 81.7023 41.1141 81.5357C41.8944 81.2484 42.7223 81.1124 43.5248 80.9015C43.7628 80.8386 43.6625 80.4799 43.4211 80.5326Z" fill="#231F20"/>
<path d="M44.4512 82.904C43.4924 82.7816 42.7817 82.7595 41.8688 83.1352C41.1037 83.4498 40.4764 83.9768 40.0378 84.6772C39.9596 84.803 40.1194 84.9764 40.2469 84.8863C41.4948 84.004 42.9024 83.4566 44.4512 83.4243C44.7963 83.4158 44.7742 82.9448 44.4512 82.904Z" fill="#231F20"/>
<path d="M44.8184 85.052C43.7626 85.1677 41.5355 85.3785 41.5304 86.8337C41.5304 86.9068 41.6239 86.9766 41.6919 86.9273C42.1084 86.6144 42.5233 86.2727 43.0078 86.0738C43.5773 85.8392 44.2115 85.7525 44.8184 85.6794C45.2128 85.6318 45.2213 85.0078 44.8184 85.052Z" fill="#231F20"/>
<path d="M44.5737 88.27C43.7339 88.1612 42.9467 88.2853 42.1664 88.6117C41.3146 88.967 40.9304 89.4515 40.4901 90.2302C40.4595 90.288 40.5292 90.3322 40.5751 90.2948C41.6257 89.4498 43.1133 88.8565 44.4683 89.0503C45.0412 89.1336 45.1466 88.3448 44.5737 88.27Z" fill="#231F20"/>
<path d="M43.8392 90.5714C43.1184 90.4813 42.3669 90.483 41.6869 90.7652C41.1922 90.9709 40.439 91.5557 40.779 92.1661C40.8198 92.2409 40.9066 92.2477 40.978 92.2171C41.4319 92.0233 41.6291 91.5149 42.1221 91.3245C42.6628 91.1171 43.2731 91.1239 43.8409 91.1664C44.2302 91.197 44.2115 90.619 43.8392 90.5714Z" fill="#231F20"/>
<path d="M44.696 91.8339C43.7661 91.7642 42.9126 91.8492 42.049 92.2028C41.4302 92.4578 40.5257 92.8132 40.2486 93.4643C40.1959 93.5901 40.2537 93.7567 40.4135 93.7516C41.0272 93.7363 41.539 93.2807 42.0779 93.0138C42.8803 92.6177 43.8018 92.3422 44.696 92.3524C45.0344 92.3592 45.0259 91.8594 44.696 91.8339Z" fill="#231F20"/>
<path d="M43.472 94.9221C42.6984 94.9136 41.5253 95.1312 41.2448 95.9677C41.2074 96.0799 41.3264 96.1853 41.4335 96.1564C41.7702 96.0629 42.0167 95.8487 42.3159 95.6787C42.6661 95.4797 43.0758 95.4032 43.4737 95.3811C43.7661 95.3641 43.7695 94.9238 43.472 94.9221Z" fill="#231F20"/>
</svg>
