<svg width="141" height="136" viewBox="0 0 141 136" fill="none" xmlns="http://www.w3.org/2000/svg">
<mask id="mask0_121_1177" style="mask-type:luminance" maskUnits="userSpaceOnUse" x="0" y="0" width="141" height="136">
<path d="M70.3584 0C109.216 0 140.717 30.4446 140.717 68C140.717 105.555 109.216 136 70.3584 136C31.5005 136 0 105.555 0 68C0 30.4446 31.5005 0 70.3584 0Z" fill="white"/>
</mask>
<g mask="url(#mask0_121_1177)">
<path d="M0 0H140.717V136H0V0Z" fill="#F2FB3E"/>
</g>
<path d="M71.7627 45.8848H69.2279L66.5488 46.462L64.204 47.878L63.4153 49.9456L63.6568 52.026L64.4684 53.0791H67.589L73.423 52.076L75.4463 50.4929L75.5721 48.9182L74.3561 46.2105L71.7627 45.8848Z" fill="#EAE028"/>
<path d="M74.3562 37.5889L73.0402 38.5905L72.8645 40.4209L74.1691 42.5599L77.0011 44.0559L80.4846 45.1075H82.7151L84.1697 43.4972L85.1727 41.9755L84.5197 40.9467L80.6604 39.3178L74.3562 37.5889Z" fill="#EAE028"/>
<path d="M64.7515 33.8542C64.7515 33.8542 61.1379 35.4745 60.9593 35.3587C60.7807 35.243 58.1544 38.0322 58.1544 38.0322L56.0668 40.4712L55.7782 42.1087L56.2369 43.2789L58.1544 43.9034L59.9233 43.4976L65.0787 40.6713L67.3763 39.0224L67.6778 37.9107L68.5651 37.2806L68.0364 36.126L66.909 35.5388L66.6419 34.3543L65.7059 33.6855L64.7515 33.8542Z" fill="#EAE028"/>
<path d="M38.3003 71.1703C39.3819 70.5645 40.4636 69.9586 41.5809 69.3328C41.038 68.7112 40.405 68.8398 39.8006 69.0799C37.9702 69.8043 36.1541 70.5616 34.2937 71.2718C35.9941 70.2944 37.6944 69.3171 39.4148 68.3283C37.6902 67.0638 37.6516 66.9823 38.2531 66.3993C42.3482 68.2769 46.089 70.563 50.3399 71.9805C50.6014 72.0734 51.0029 72.3763 50.9857 72.5463C50.86 73.7823 51.8873 73.8094 52.5846 74.0266C54.2178 74.5039 52.3717 75.9184 54.2721 76.4357C55.6052 76.7186 59.3074 78.2618 60.3276 77.563C62.2066 75.8584 64.5071 74.9097 66.7704 73.8866C68.8508 72.7178 70.9698 71.589 73.0931 70.4873C74.0204 70.0072 75.9851 71.1617 77.0025 71.4518C79.9531 72.7535 82.7208 74.1624 85.6757 75.5555C85.9043 75.0468 86.3072 74.9168 87.0417 75.0797C87.7575 75.2397 88.5677 74.9839 89.4079 74.9054C89.6351 73.678 90.7053 73.355 91.6884 72.9692C91.8712 72.8978 92.1742 73.1336 92.4214 73.2279C91.7527 74.6024 90.4824 73.1493 90.6424 76.2828C90.9311 81.9954 92.78 87.3122 93.7288 92.9733C94.4232 92.6861 94.9604 92.4647 95.6134 92.1946C94.4403 85.1003 92.1084 77.8145 93.0286 70.6688C95.532 68.1968 99.2585 67.9782 102.446 66.8866C105.107 66.0535 107.587 64.9948 110.411 64.709C110.644 65.3305 110.492 65.7763 109.899 65.7692C106.783 65.7278 104.157 67.3895 101.285 68.1854C99.6328 68.6441 97.9825 69.1213 96.365 69.6857C95.5406 70.0944 93.6816 70.6216 93.583 71.6561C93.6202 73.7223 93.4673 75.8298 93.8259 77.8445C94.8647 82.6541 95.502 87.6394 97.1538 92.2746C99.9386 91.9489 102.306 90.5614 104.79 89.5712C108.979 88.8982 109.465 84.1358 111.667 81.2467C110.692 83.4585 109.718 85.6704 108.679 88.028C111.541 86.8035 111.82 83.6957 113.364 81.3824C112.754 83.1113 112.143 84.8388 111.532 86.5678C111.652 86.6349 111.772 86.7021 111.892 86.7692C113.087 85.3561 113.87 83.7757 114.982 82.284C114.6 83.3199 114.219 84.3544 113.791 85.5118C115.722 85.5647 116.046 83.1813 117.604 82.184C117.331 82.9227 117.059 83.6614 116.732 84.5459C117.184 84.4116 117.519 84.313 117.925 84.193C118.242 85.2275 117.485 85.559 116.895 85.8219C113.72 87.2322 110.536 88.6267 107.322 89.9427C104.148 91.1644 100.973 92.5575 97.7453 93.5706C96.285 93.2863 94.9004 93.572 93.5044 93.9864C92.8014 94.0236 92.2728 92.8648 92.2227 92.2646C90.7939 92.4332 89.4479 92.4147 88.1276 92.6747C87.046 93.4177 85.6957 93.9821 84.9813 94.9923C84.1339 96.1983 83.0366 96.797 81.8378 97.4357C82.545 100.505 81.3377 103.048 77.4026 102.488C77.264 105.765 74.652 105.913 71.8243 105.79C69.058 109.602 65.0629 107.322 61.898 105.243C61.4022 104.952 61.0035 104.99 60.492 105.339C59.1988 106.143 56.294 105.58 56.6083 103.608C55.5438 104.356 54.4293 104.744 53.1519 104.24C51.9988 103.786 50.7771 103.45 50.5056 101.978C49.0911 102.903 46.2948 102.378 46.2205 100.412C46.6148 98.1115 43.5156 97.1142 42.9141 94.7194C42.5611 93.7407 41.6367 93.552 40.8437 93.3877C38.0488 92.8119 35.6612 91.4416 33.285 89.947C31.0374 88.461 28.4268 87.5394 26.2292 85.9733C25.2305 85.1546 24.2388 84.3273 23.2872 83.4557C23.0957 83.2799 23.09 82.8984 23 82.6127C23.7044 82.3083 24.3217 82.3655 24.7546 83.0427C25.872 84.5388 27.4252 85.4189 29.0384 86.2663C32.3876 88.1081 35.6497 90.1228 39.1376 91.7088C39.8677 92.056 40.4036 91.9374 40.8708 91.0772C44.0415 85.0346 48.0437 79.5349 49.9655 72.8821C48.7296 73.6365 47.495 74.391 46.259 75.1454C46.2133 75.074 46.1662 75.0025 46.1204 74.9311C47.1478 74.1323 48.1737 73.3336 49.4526 72.3391C47.6765 72.2805 46.7349 73.7223 45.0288 73.7823C46.0933 73.0921 46.9578 72.532 47.9051 71.9176C47.2164 71.2846 46.632 71.2775 45.9919 71.5218C44.5187 72.0834 43.0398 72.6335 41.4866 73.0707C42.5926 72.3163 43.6971 71.5632 44.8802 70.7559C42.4883 68.9899 40.4564 70.3116 38.3003 71.1703ZM68.3936 96.9813C71.6285 98.7717 74.5048 100.401 78.0227 101.286C81.452 102.192 82.0392 98.1273 79.3987 97.0313C76.8139 96.3683 75.1435 94.3208 72.9831 93.0276C72.4816 92.4361 72.9002 91.8103 73.6761 91.9789C73.9833 92.0646 74.2362 92.3646 74.4977 92.589C76.3195 94.165 78.1642 95.6768 80.6532 96.1168C83.6238 96.3297 84.977 94.4994 82.6665 92.2732C80.9519 90.2214 78.9072 88.5181 76.6267 87.1336C75.0649 86.1634 73.406 85.3675 72.1644 83.9301C71.3899 83.0342 70.4626 82.2712 69.7067 81.5482C68.2836 82.3526 67.0847 83.1185 65.8088 83.7157C64.5599 84.2244 64.5428 85.5247 64.4142 86.6549C64.167 89.0783 62.6124 91.5831 60.0019 91.7017C57.4156 91.9074 58.8188 88.0681 58.4816 86.5135C58.3272 83.8258 58.4173 81.1895 59.7075 78.5404C57.417 77.9803 55.2095 77.4402 52.9819 76.8958C50.5385 82.5469 47.4264 87.698 43.96 92.7519C43.5371 93.402 43.3456 94.1007 43.86 94.7951C44.6416 95.8468 45.4475 96.8813 46.3305 98.0358C47.265 95.8468 48.1037 93.9564 49.2097 91.9074C49.9984 90.5086 50.7528 90.3414 52.2274 90.8115C53.8377 91.3244 54.5093 92.5518 54.8537 94.1107C56.544 93.3291 58.1715 93.4577 59.5803 94.6337C60.0976 95.0652 60.5305 95.3838 61.2221 95.4924C65.4373 96.3097 62.3652 100.934 61.7251 103.643C64.1084 104.809 66.7504 107.789 69.7053 106.46C70.5226 106.163 70.5526 105.697 69.8082 105.236C68.3093 104.306 66.7904 103.405 65.2658 102.517C64.277 101.941 64.2513 101.852 65.0586 100.956C68.3078 102.677 71.9014 106.545 75.7579 104.203C76.741 103.57 76.5667 102.381 75.5279 101.851C72.9974 100.411 70.1539 99.3975 67.8535 97.6172C68.0835 97.3471 68.3164 97.0728 68.3936 96.9813ZM89.1407 88.9168C89.8223 90.1128 88.1805 90.8215 88.5763 91.9203C89.7537 91.5916 90.891 91.2759 92.1827 90.9158C91.0111 85.769 89.8908 80.8966 89.4207 75.6469C88.3705 75.7741 87.3689 75.8941 86.1901 76.037C86.6673 76.6714 87.056 77.1901 87.5818 77.8917C83.5424 75.7855 80.1174 73.9752 76.1495 72.1934C74.772 71.4961 73.4032 71.2746 71.9786 71.9905C60.7206 78.1575 58.7302 76.1742 59.7561 90.3771C63.5597 91.4673 64.1584 84.4602 63.6983 81.9868C63.6197 81.6839 63.9784 81.2681 64.1356 80.9052C64.2656 80.9052 64.3942 80.9052 64.5242 80.9066C64.6928 81.5496 64.86 82.194 65.0629 82.9699C67.7192 81.7153 68.9551 80.7851 70.5983 78.3575C70.6841 78.3961 70.7698 78.4347 70.8569 78.4732C70.6983 79.1334 70.5412 79.7949 70.3783 80.4765C72.2887 83.0499 74.9706 85.0446 78.97 86.8507C79.7873 86.4777 80.2374 85.2689 81.5477 85.799C80.9204 86.3649 80.336 86.8921 79.7202 87.4479C81.6449 89.394 83.4724 91.2416 85.3599 93.1491C88.6377 92.0846 87.3975 89.0011 89.1407 88.9168ZM50.2884 74.1338C48.0866 80.5865 44.4515 86.1362 41.4123 91.976C42.4511 92.909 42.8626 92.9062 43.6028 91.8888C45.9833 88.4281 48.1237 84.7888 50.1813 81.1323C51.0229 79.572 51.5501 77.8345 52.1474 76.1513C52.5889 74.8725 51.2872 74.8782 50.2884 74.1338ZM56.7926 94.8094C53.6806 94.3636 51.1329 100.035 52.1445 102.377C53.2491 103.548 55.2437 103.931 56.3925 102.2C57.5885 100.393 57.9257 98.3144 58.6502 96.3598C59.1588 95.2124 57.4656 94.918 56.7926 94.8094ZM47.1592 99.6319C47.4707 101.326 49.7155 101.849 50.5814 100.238C51.6644 98.053 53.3348 96.004 53.7106 93.5563C53.8235 92.4504 53.2433 91.8345 51.8816 91.2673C50.8857 90.8529 50.3499 91.453 50.0112 92.1246C48.8467 94.5808 47.5807 96.8884 47.1592 99.6319ZM57.69 103.164C57.6057 105.052 60.4334 104.937 60.8135 103.411C61.3921 101.484 64.1556 97.4057 61.0849 96.5941C58.7716 96.204 58.4087 101.509 57.69 103.164Z" fill="black"/>
<path d="M99.8228 85.1009C99.3613 83.8277 100.009 82.5575 101.429 82.4789C102.326 82.4046 103.155 82.5303 103.621 83.4448C104.437 85.1051 102.488 86.2182 101.152 86.5069C100.064 86.694 99.7113 86.2397 99.8228 85.1009ZM100.499 83.5291C100.659 84.3121 99.7999 85.2523 100.732 85.7681C101.42 86.1496 102.292 85.7538 102.796 85.1323C103.744 83.5505 101.89 82.7604 100.499 83.5291Z" fill="black"/>
<path d="M34.9124 86.4726C34.8281 83.7521 38.8947 84.7194 38.6561 86.9427C38.2131 89.2875 35.1139 89.1003 34.9124 86.4726ZM36.8414 87.72C38.6746 87.9015 37.8759 85.531 36.497 85.5167C35.9884 85.5153 35.554 85.6753 35.5626 86.3097C35.5768 87.2671 35.9912 87.7215 36.8414 87.72Z" fill="black"/>
<path d="M67.4206 53.5832C65.9089 53.4774 64.8715 53.8732 63.8671 53.0859C60.8293 48.0463 66.0404 45.6244 70.4241 45.6701C72.7946 45.6258 72.7046 44.7771 75.0079 46.1545C75.3523 46.6761 75.3823 47.4719 75.6552 48.0549C77.3412 52.9573 70.4127 53.0231 67.4206 53.5832ZM65.3074 47.5905C64.3972 47.8434 63.9685 48.4564 63.9371 49.5309C66.5205 50.101 69.1467 49.2009 71.7187 48.8808C72.5074 48.7322 73.2575 48.3078 73.9848 47.9292C75.2108 47.2819 74.0691 45.953 73.0432 46.0459C72.4017 46.1431 71.7244 46.3846 71.1185 46.2688C69.5654 46.0288 66.2318 46.2888 65.2731 47.622L65.3074 47.5905ZM69.4996 49.9982C69.4996 50.544 69.4996 51.0984 69.4996 51.7228C68.8452 51.2627 69.2024 50.6469 69.081 50.0782C68.6037 50.1768 68.1265 50.2754 67.5778 50.3882C67.7207 51.087 67.8536 51.7371 67.9865 52.3887C67.9236 52.4172 67.8607 52.4458 67.7964 52.4744C67.0334 52.0414 67.7493 49.9596 66.5105 50.5911C66.6934 51.257 66.8705 51.8971 67.082 52.6659C66.5705 52.4558 66.1747 52.2929 65.6746 52.0872C65.5703 51.6456 65.4402 51.0898 65.3088 50.5326C65.2316 50.5468 65.1559 50.5611 65.0787 50.5754C65.2545 51.1641 65.0573 52.7187 65.7917 52.833C66.7005 52.7301 67.6907 53.226 68.5209 52.4701C68.6266 52.3729 68.8809 52.3358 69.0167 52.3915C69.8811 52.713 69.5982 52.0043 70.094 51.8057C70.2341 51.9814 70.3627 52.1429 70.6227 52.4672C70.4498 51.6842 70.3241 51.1112 70.1512 50.3254C71.4258 50.8683 71.1 51.1284 71.1014 52.3115C71.3829 52.2472 71.6887 52.1786 72.0516 52.0972C71.8344 51.2456 71.6472 50.5126 71.4472 49.7238C70.7427 49.8238 70.1583 49.9053 69.4996 49.9982ZM74.7893 47.7448C74.1992 48.8851 72.9589 48.9722 73.8705 50.2525C73.9134 49.8296 73.9548 49.4223 73.9963 49.0151C74.0677 49.018 74.1392 49.0222 74.2106 49.0251C74.2463 49.4966 74.2821 49.9682 74.3221 50.494C74.5321 50.3982 74.7793 50.3339 74.7764 50.2796C74.7579 49.7981 74.6936 49.318 74.645 48.8408C74.8264 48.8408 74.9636 48.8408 75.1637 48.8408C75.0422 48.4807 74.9336 48.1664 74.7893 47.7448ZM63.657 50.2411C63.8128 51.1255 64.1042 51.9114 64.6715 52.7259C64.9158 51.1613 64.6058 50.4211 63.657 50.2411ZM73.1818 49.1494C72.7632 49.2752 72.4059 49.3823 72.0287 49.4966C72.0702 49.7695 72.1045 49.9996 72.1402 50.2311C72.3731 50.0196 72.586 49.8267 72.876 49.5624C72.9918 50.3597 73.0847 51.0084 73.179 51.6556C73.2604 51.6442 73.3419 51.6328 73.4233 51.6228C73.3476 50.8469 73.2718 50.071 73.1818 49.1494Z" fill="black"/>
<path d="M81.5419 45.6442C79.5557 45.217 77.4939 44.8426 75.6664 43.6881C74.6704 43.058 73.6017 42.5436 72.57 41.9721C71.6155 41.4419 71.264 40.8875 71.7956 39.8359C72.1514 39.1329 72.6272 38.4899 73.0573 37.8241C73.3659 37.3468 73.8703 37.2568 74.3732 37.2239C75.3034 37.1625 76.1908 37.3397 77.0681 37.6826C79.6986 38.5885 82.3377 39.493 84.8068 40.7947C85.6798 41.2419 85.6941 41.9406 85.0426 42.6936C84.0538 43.921 83.4365 45.6014 81.5419 45.6442ZM82.0062 44.2168C82.132 43.8167 82.2577 43.4152 82.4263 42.8751C81.4718 43.0751 81.5261 44.0939 80.7603 44.404C81.0618 43.8753 81.3204 43.4238 81.579 42.9708C81.5118 42.9308 81.4447 42.8894 81.3775 42.8494C80.9131 43.3509 80.5431 43.9167 80.3059 44.584C80.9632 45.247 81.5561 44.5426 82.0391 44.1868C81.9762 44.4183 81.9119 44.6497 81.8262 44.9612C83.0193 44.8855 85.0211 43.008 82.8193 42.9408C82.5306 43.3923 82.2691 43.8039 82.0062 44.2168ZM79.1328 42.4193C78.9456 43.0108 78.7584 43.6024 78.5712 44.1954C78.6427 44.2311 78.7127 44.2654 78.7841 44.3011C79.3243 43.8153 79.7658 43.2595 80.0044 42.3693C79.1171 42.5636 78.4684 42.2321 77.6868 41.9721C77.4396 42.425 77.2567 42.7608 77.0724 43.0966C77.0209 43.0709 76.9709 43.0451 76.9195 43.0208C77.0166 42.6936 77.1152 42.365 77.2195 42.0106C76.568 41.7091 75.9393 41.4162 75.2406 41.0933C75.0662 41.5391 74.9134 41.9335 74.739 42.3807C75.9407 42.9923 77.0509 43.5567 78.1512 44.1168C78.5227 43.4752 78.8284 42.9465 79.1328 42.4193ZM83.4665 42.5607C83.4751 42.5193 83.4837 42.4764 83.4923 42.435C83.8666 42.3779 84.8182 42.6336 84.8311 42.1107C84.8568 41.8606 84.531 41.4605 84.2624 41.3148C81.7648 39.9459 79.017 39.1229 76.3422 38.177C75.5735 37.9084 73.1659 37.474 74.1046 38.9872C75.1991 40.5132 76.8695 41.4362 78.7556 41.6263C80.3402 41.812 81.8962 42.2378 83.4665 42.5607ZM80.8717 42.7722C80.6945 42.7051 80.5159 42.6379 80.3759 42.585C79.9787 43.1966 79.6129 43.7553 79.2485 44.3168C80.0073 44.5997 80.3316 44.2968 80.8717 42.7722Z" fill="black"/>
<path d="M55.6138 42.3985C54.8336 40.4952 58.8102 36.9645 60.1447 35.7142C61.2107 34.7626 66.7118 31.6848 66.9304 34.5025C67.1076 35.7185 69.9067 36.7044 68.1807 37.9147C68.0835 37.9761 67.9092 38.0318 67.9035 38.1004C67.8049 39.315 66.7861 39.8508 65.9816 40.3695C63.9612 41.6726 61.8579 42.8614 59.7104 43.9459C58.543 44.536 57.2327 44.6189 56.0996 43.6716C55.7238 43.3572 55.3923 43.0071 55.6138 42.3985ZM66.246 35.187C66.276 34.001 66.1245 33.881 65.0214 34.091C63.5068 34.3782 62.1509 35.0641 60.8549 35.8428C58.8645 37.0402 57.5642 38.9006 56.3597 40.8238C55.2966 43.3372 61.3821 40.3709 61.9637 39.7265C62.931 38.9949 66.6203 36.4401 66.246 35.187ZM67.1133 38.1833C66.7604 37.8475 66.1317 37.1645 65.7444 37.0916C65.3758 37.4003 65.7802 37.6503 65.8988 37.9218C66.0174 38.189 66.1502 38.4505 66.2774 38.7148C66.1988 38.7663 66.1188 38.8163 66.0402 38.8677C65.7059 38.5134 65.3715 38.1576 65.0386 37.8032C64.9729 37.8661 64.9057 37.9275 64.84 37.9904C65.1843 38.3705 65.4787 38.7706 65.6401 39.2621C65.573 39.2921 65.5058 39.3221 65.4401 39.3521C65.1415 38.9963 64.8414 38.6391 64.5228 38.259C64.3413 38.4248 64.1913 38.5619 64.0427 38.6991C64.7028 39.4321 64.7028 39.4321 64.6757 39.9379C64.0012 40.1623 63.6512 39.4936 63.1939 39.3421C62.3709 39.9422 61.6093 40.4981 60.8277 41.0682C61.0778 41.4111 61.3207 41.7469 61.5965 42.1255C61.0078 42.2713 60.5591 42.3827 60.109 42.4928C60.0976 42.5571 60.0876 42.6228 60.0761 42.6871C60.702 43.13 61.2978 42.6371 61.8722 42.3556C62.7938 41.8126 63.6983 41.2382 64.6056 40.6695C65.3186 40.1137 66.566 39.6993 66.9533 38.8977C66.7718 38.8977 66.6675 38.8977 66.4817 38.8977C66.7175 38.632 66.909 38.4162 67.1133 38.1833ZM67.3719 37.8932C68.3193 37.0302 68.315 37.0116 66.949 35.9371C66.7718 36.15 66.5946 36.3644 66.4332 36.5587C66.7718 37.0402 67.0604 37.4517 67.3719 37.8932ZM56.1968 42.3599C56.6826 43.4229 57.157 43.693 58.1558 43.5544C57.6042 43.0372 57.1155 42.4999 56.1968 42.3599Z" fill="black"/>
<path d="M56.0668 55.7035C56.4569 54.5047 57.9672 53.4259 58.8316 53.7045C57.9186 54.3646 56.9684 55.0519 56.0668 55.7035Z" fill="black"/>
<path d="M57.6456 58.6654C57.7814 57.3094 58.9445 55.3104 59.7189 55.0732C59.0316 56.2606 58.3229 57.4894 57.6456 58.6654Z" fill="black"/>
<path d="M80.7847 53.6953C81.9692 54.2154 82.5665 55.0985 82.8265 56.5688C82.3336 55.4843 81.3348 54.7412 80.7847 53.6953Z" fill="black"/>
<path d="M81.7836 56.207C80.1961 55.3139 79.7003 54.8038 79.8246 54.208C80.6877 54.701 81.3892 55.3054 81.7836 56.207Z" fill="black"/>
<path d="M75.1607 30.9549C75.0549 30.1204 75.7794 29.4374 77.5597 28.8145C76.7296 29.5546 75.9508 30.249 75.1607 30.9549Z" fill="black"/>
<path d="M72.803 30.9806C72.7445 29.8747 73.166 28.9102 73.7689 28C73.5346 29.0188 73.3003 30.0376 73.0659 31.0563C72.9788 31.032 72.8916 31.0063 72.803 30.9806Z" fill="black"/>
<path d="M74.3992 30.669C74.232 29.633 74.7807 28.99 75.5695 28.3428C75.1422 29.1929 74.7707 29.9302 74.3992 30.669Z" fill="black"/>
<path d="M58.8688 55.0527C57.9058 55.6343 57.4671 55.9744 56.7955 56.8431C57.1442 55.7329 57.8872 55.0799 58.8688 55.0527Z" fill="black"/>
<path d="M65.2758 47.6208C66.5275 47.315 67.7663 46.9435 69.0337 46.7292C70.474 46.5606 71.6628 46.7192 73.1888 46.7635C73.1045 47.1807 73.0288 47.5565 72.9531 47.9337C72.8759 47.9495 72.7987 47.9666 72.7216 47.9823C73.1031 46.4249 67.1704 47.7809 66.2774 47.878C65.683 47.9866 65.1315 48.2681 65.1857 49.0525C65.1929 49.1554 65.1114 49.264 65.0229 49.4926C64.5199 48.5667 65.2243 48.1466 65.3072 47.588L65.2758 47.6208Z" fill="black"/>
<path d="M82.0491 41.4115C80.8575 41.5172 79.6715 41.2528 78.4898 41.1242C77.3325 40.9585 76.2151 40.6899 75.4464 39.6854C75.1692 39.3239 75.1449 39.0453 75.6921 38.8838C76.368 40.1012 77.5511 40.3527 78.8328 40.5041C79.9173 40.6327 80.9846 40.9113 82.0591 41.1228C82.0563 41.22 82.052 41.3157 82.0491 41.4115Z" fill="black"/>
<path d="M63.2154 35.5401C61.7365 36.6332 59.9662 37.3248 59.0002 39.0237C59.3746 37.5648 61.8694 35.523 63.2154 35.5401Z" fill="black"/>
</svg>
