<svg width="141" height="136" viewBox="0 0 141 136" fill="none" xmlns="http://www.w3.org/2000/svg">
<mask id="mask0_121_1188" style="mask-type:luminance" maskUnits="userSpaceOnUse" x="0" y="0" width="141" height="136">
<path d="M70.3584 0C109.216 0 140.717 30.4446 140.717 68C140.717 105.555 109.216 136 70.3584 136C31.5005 136 0 105.555 0 68C0 30.4446 31.5005 0 70.3584 0Z" fill="white"/>
</mask>
<g mask="url(#mask0_121_1188)">
<path d="M0 0H140.717V136H0V0Z" fill="#F2FB3E"/>
</g>
<path d="M82.9135 30.5216L83.2917 38.0502V40.409L81.8372 41.7142L78.3737 43.7218L75.3622 45.1764H73.9063L74.9613 39.4549L70.3432 37.6123L65.927 36.9966L63.3123 36.7947L59.6028 39.2545L57.244 41.6645L56.3041 42.8687L52.7268 40.1076L51.6349 38.4597L52.1482 37.5525L54.7842 35.4909L60.8824 31.3506L66.9806 29.9941L71.5475 30.1207L74.7096 31.4501L76.6916 32.7297L76.9973 33.4079L80.6315 30.9482L82.5638 30.1704L82.9135 30.5216Z" fill="#EAE028"/>
<path d="M56.5927 74.3912C58.3074 92.7497 76.6447 109.605 44.2911 105.894C34.2232 104.566 38.7432 93.8758 40.8844 87.4591C42.1072 83.4268 43.0413 79.3035 44.4788 75.3395C44.9935 72.5158 38.291 73.5565 39.4512 63.6009C39.8948 56.0411 48.8082 50.2827 55.8164 53.789C63.1686 57.3975 63.5056 70.2266 56.5927 74.3912ZM43.4338 82.2552C41.5186 86.7354 40.6441 91.6933 39.1612 96.3654C37.7905 100.462 41.4887 104.727 45.6703 104.773C46.7864 104.793 47.9025 104.832 49.0172 104.83C53.7021 104.471 63.5284 106.937 62.2146 99.0626C60.8752 93.4194 59.5942 87.5785 57.0975 82.3477C55.0401 82.8908 53.1377 83.3927 51.0149 83.9543C50.631 87.8046 51.5026 91.9393 51.4884 95.8251C51.3277 97.3891 49.8689 96.9043 48.9845 97.2242C48.1741 97.5171 47.7405 96.6796 47.6736 96.0498C46.7153 90.8302 47.8499 87.897 49.7694 82.9022C47.2144 84.4079 45.2864 83.4666 43.4338 82.2552ZM40.3342 65.2062C40.3939 65.2176 40.4536 65.2289 40.5133 65.2389C39.9659 71.2304 45.7428 74.0968 50.9225 74.4992C58.778 75.2513 61.9828 67.6304 59.9681 60.3819C57.7415 53.1747 50.24 52.3899 44.8669 56.2985C43.1664 57.2539 41.8271 58.5976 41.2726 60.4857C40.8219 62.0199 40.637 63.6308 40.3342 65.2062ZM49.7267 81.9993C49.785 80.8803 49.8462 79.7145 49.8917 78.8528C47.8115 78.5869 46.0698 78.3637 44.311 78.1376C44.0608 79.2737 43.1053 80.6244 44.375 81.3709C45.9404 82.4017 47.5727 83.2135 49.7267 81.9993ZM56.2046 78.1974C54.4088 78.6495 52.7069 79.0775 51.0035 79.5054C51.0035 80.3287 51.0035 81.1931 51.0035 82.1969C51.9561 82.2908 52.8576 82.5894 53.6638 82.423C56.6666 81.8003 56.7662 81.5699 56.2046 78.1974ZM45.5494 74.7338C45.2878 75.5016 45.103 76.0419 44.8883 76.6703C46.6798 77.104 50.0751 79.0178 50.1476 75.9552C48.676 75.5642 47.2016 75.1732 45.5494 74.7338ZM55.3771 75.4788C53.8984 75.6566 52.4495 75.83 50.9993 76.0035C51.3519 78.3708 52.8803 78.2087 54.6548 77.5575C56.2301 77.0713 56.2899 76.8864 55.3771 75.4788ZM49.3244 96.3569C49.5561 96.2218 49.7879 96.0853 50.0196 95.9502C50.0722 93.1237 49.6485 90.317 49.4182 87.4975C48.4414 90.2246 48.3177 93.7137 49.3244 96.3569Z" fill="black"/>
<path d="M83.0414 71.5847C75.5768 68.9657 75.7076 59.9813 79.7484 54.3835C80.9399 52.5792 82.6746 51.6309 84.8187 51.2058C93.8614 49.0901 99.8359 58.0063 96.1733 65.66C92.8235 72.1862 92.8591 69.0724 96.3226 75.5033C98.2989 82.1474 100.858 88.7305 102.135 95.5595C102.422 97.6737 101.728 99.6842 100.383 101.318C98.5819 102.889 92.8847 102.728 90.3638 102.983C87.2002 103.034 84.0281 102.832 80.866 102.646C78.9935 102.536 78.3565 101.757 77.7522 100.025C76.8721 97.5045 77.4337 95.0775 77.9498 92.6391C79.4086 85.5769 81.2271 78.5446 83.0414 71.5847ZM81.9992 69.2544C87.1618 71.3516 92.6856 71.5847 95.1183 66.1989C96.6596 62.1012 96.6056 57.004 92.9344 54.1034C90.4533 51.6693 83.6414 51.6423 81.2869 54.0537C77.7451 57.9025 76.1527 66.9013 81.9992 69.2544ZM81.8428 78.4934C80.9328 82.9095 80.5461 86.875 79.2792 91.021C78.4418 93.2291 78.2527 95.487 78.4489 97.769C78.6906 100.596 79.2792 101.112 82.2054 101.407C83.8518 101.574 85.5139 101.672 87.1675 101.67C91.0334 101.71 94.8709 101.302 98.69 100.743C99.7307 100.618 100.555 100.143 100.762 99.1013C100.993 97.9211 101.354 96.623 101.089 95.5126C99.4009 89.467 98.3658 82.8157 95.6316 77.181C93.5842 77.69 91.6989 78.1592 89.8221 78.6256C89.687 81.728 90.1462 84.8148 90.4121 87.903C90.614 90.0983 89.6244 91.8642 86.2163 91.5229C86.2163 89.3234 86.1978 87.1011 86.2348 84.8788C87.041 82.5441 87.7106 80.3844 88.5282 77.7611C85.8936 78.7123 84.503 78.8957 81.8428 78.4934ZM88.4756 74.5165C88.4756 73.7018 88.4756 73.0051 88.4756 72.2558C86.9102 72.1307 85.4073 72.0099 83.9272 71.8919C83.7935 72.7478 83.6769 73.49 83.5675 74.1824C85.1002 75.8559 86.7566 74.6644 88.4756 74.5165ZM89.5036 72.1023C89.6685 72.8914 89.6756 74.3331 89.9884 74.7767C91.6818 75.172 92.6444 73.9976 93.7477 72.8317C93.27 72.1904 92.8591 71.6373 92.5121 71.1738C91.4216 71.5094 90.5301 71.7852 89.5036 72.1023ZM89.5121 76.3891C90.233 77.5464 91.2638 77.3317 92.0998 77.2024C95.2747 76.709 95.424 76.0592 94.1472 73.7928C94.1088 73.726 93.9866 73.7075 93.8529 73.6421C92.6628 74.8777 91.7358 76.5739 89.5121 76.3891ZM88.3931 76.6123C87.6524 74.1526 85.521 77.282 83.3499 75.6639C83.2333 75.5957 83.0499 75.6412 82.8153 75.6298C82.6859 76.1189 82.5637 76.5768 82.4471 77.0161C84.5215 77.8948 86.0073 77.7924 88.3931 76.6123ZM87.2613 90.4594C87.4505 90.495 87.6396 90.5305 87.8287 90.5646C89.0983 89.6533 88.4344 88.2627 88.4983 87.0982C88.5652 85.8669 88.3448 84.62 88.2495 83.3802C88.0505 83.3873 87.85 83.3944 87.6509 83.4015C87.5215 85.7546 87.3907 88.1077 87.2613 90.4594Z" fill="black"/>
<path d="M65.654 34.0375C66.0663 33.0764 66.48 32.1166 66.9862 30.9351C66.2796 30.9934 65.8217 31.0318 65.6056 31.0503C64.8179 32.3413 64.1241 33.4773 63.4316 34.6134C63.2994 34.5437 63.1672 34.474 63.035 34.4029C63.4715 33.3906 63.9094 32.3782 64.4568 31.1071C63.5653 31.3176 62.9368 31.4654 62.4947 31.5692C61.8961 33.2797 61.3572 34.8224 60.8169 36.3636C60.6363 36.3082 60.4558 36.2513 60.2766 36.1958C60.7273 34.7641 61.0515 33.5712 61.4226 32.0399C58.5221 32.0228 59.7705 36.0465 57.541 36.8968C57.8439 35.8916 58.1467 34.8878 58.4496 33.8825C58.3088 33.8242 58.1666 33.7645 58.0259 33.7062C56.3168 34.693 56.5514 36.9921 55.1197 38.2916C54.3021 37.3418 55.6941 36.5883 55.3287 35.6598C54.0462 35.9854 53.8784 37.8835 52.458 37.9305C52.3542 37.8039 52.249 37.6774 52.1452 37.5523C54.7642 35.0555 57.4045 32.5162 60.6833 30.901C62.6596 29.8886 65.0184 29.9697 67.154 29.5929C70.6175 28.7242 73.4782 30.0436 76.1854 31.9446C77.4835 32.856 77.6371 32.8546 78.8883 31.892C80.1452 30.9251 81.4746 30.0521 82.9675 29C83.1978 29.6057 83.4409 29.9356 83.4267 30.254C83.2817 33.4432 83.4054 36.5911 84.3694 39.675C84.6139 40.4542 84.4035 41.1466 83.5021 41.5902C80.4935 42.8983 76.0588 46.2993 72.8825 46.2183C73.2849 44.3244 73.6446 42.5571 74.0441 40.7983C74.2233 40.0077 73.9929 39.5073 73.2038 39.2755C69.6393 38.2973 65.8246 36.2072 62.2103 38.0741C59.5529 39.1219 57.9548 41.4708 56.2202 43.6576C52.4765 40.922 51.1528 39.5257 51.2381 38.148C52.9329 39.4802 54.514 40.7229 56.041 41.9244C63.1686 33.8399 66.48 35.9854 75.6707 38.5234C75.1773 40.7556 74.7508 42.6822 74.2588 44.9045C77.9442 44.4666 80.121 41.721 82.9333 40.6319C82.7286 37.3105 82.5338 34.1555 82.3291 30.8214C80.0542 31.4725 78.7831 33.3977 77.2461 34.6745C75.8896 33.5541 74.6001 32.4892 73.2138 31.3417C72.5199 32.3143 71.954 33.1091 71.1607 34.2209C70.9446 32.701 71.9213 32.0854 72.3977 31.1654C71.8503 30.9308 71.3654 30.7232 70.9033 30.5256C70.0218 31.8934 69.1872 33.1873 68.354 34.4811C68.2189 34.4171 68.0838 34.3517 67.9488 34.2878C68.4564 33.1446 68.9639 32 69.4957 30.8015C68.6469 30.3067 68.1151 30.4673 67.6744 31.3645C67.1909 32.3498 66.5682 33.2683 66.0066 34.2152C65.8885 34.1555 65.772 34.0958 65.654 34.0375Z" fill="black"/>
<path d="M81.9992 69.2546C78.8669 66.0698 78.2541 61.1218 80.6215 57.6924C80.6655 57.8815 80.7637 58.0464 80.7182 58.1488C79.5722 60.7209 80.0172 63.2872 80.785 65.8295C81.4817 68.4271 84.4504 68.8124 86.6486 69.3385C85.1244 69.6072 83.4921 70.0381 81.9992 69.2546Z" fill="black"/>
<path d="M45.8978 69.8704C43.2362 70.9183 41.7077 65.1087 42.6461 63.3457C43.3215 61.4916 44.3594 59.7641 45.3206 58.0266C45.5466 57.6186 46.1054 57.3939 46.5106 57.084C46.6173 57.1849 46.7239 57.2873 46.8319 57.3883C44.0238 60.9755 41.9281 66.1751 45.8978 69.8704Z" fill="black"/>
<path d="M56.095 70.958C55.1268 72.0741 51.1087 74.1088 50.5059 71.9106C52.5831 72.4609 54.3234 71.6547 56.095 70.958Z" fill="black"/>
<path d="M58.2036 59.605C56.8657 58.7732 55.6173 57.9983 54.4031 57.2433C55.6202 56.3732 57.5638 57.4907 58.2036 59.605Z" fill="black"/>
<path d="M87.0609 54.6354C87.5969 53.4169 88.5581 53.7069 89.2903 53.8377C95.7966 55.4387 97.0407 64.7203 90.3013 66.2488C92.0871 65.0317 94.1544 63.8999 93.57 61.3705C93.3809 57.0525 91.2183 55.1259 87.0609 54.6354Z" fill="black"/>
</svg>
