<svg width="141" height="136" viewBox="0 0 141 136" fill="none" xmlns="http://www.w3.org/2000/svg">
<mask id="mask0_121_1127" style="mask-type:luminance" maskUnits="userSpaceOnUse" x="0" y="0" width="141" height="136">
<path d="M70.3584 0C109.216 0 140.717 30.4446 140.717 68C140.717 105.555 109.216 136 70.3584 136C31.5005 136 0 105.555 0 68C0 30.4446 31.5005 0 70.3584 0Z" fill="white"/>
</mask>
<g mask="url(#mask0_121_1127)">
<path d="M0 0H140.717V136H0V0Z" fill="#F2FB3E"/>
</g>
<path d="M40.9135 35.584L39.1473 36.7174L34.6539 43.4176L33.5205 45.5082L34.0493 46.3675L37.217 45.8595L38.9918 45.0982L39.3431 47.2084L40.2219 68.0348L40.4827 72.7681L41.8376 74.0778L43.7128 73.5796L45.4839 72.358V67.7325L44.0776 45.9452H45.4839L48.402 45.2671L47.0996 41.9329L40.9135 35.584Z" fill="#EAE028"/>
<path d="M42.8352 74.9676C39.2733 74.8428 39.8352 72.1353 39.7923 69.5245C39.5475 64.8108 39.1252 60.1045 38.9159 55.3896C38.7262 52.2011 39.1595 49.1289 38.643 45.9342C36.9967 46.5364 32.3051 48.4189 33.0872 45.0431C33.4422 43.5082 34.7886 42.7334 35.5462 41.518C36.3835 40.1777 37.2256 38.8386 38.1326 37.5461C39.0861 36.1887 40.8792 33.7407 42.4301 35.7811C44.7177 38.7566 54.6371 47.4446 44.692 46.5034C44.7679 54.1191 45.7165 61.6455 46.1865 69.2393C46.2 71.287 46.6712 74.128 43.9087 74.6286C44.8548 77.2822 44.6308 79.9065 44.845 82.6226C45.4974 87.0167 46.3909 91.3779 47.2331 95.7402C47.6039 97.6668 48.9601 98.4184 50.7276 98.5909C54.0483 98.9153 57.3715 99.3645 60.7008 99.4343C70.2982 99.3976 79.9103 99.3217 89.4931 98.6974C94.1994 98.4636 98.9057 98.2237 103.588 97.6595C104.92 97.5163 106.249 97.3253 107.58 97.1576C108.219 97.0768 108.47 97.4759 108.514 98.0083C108.568 98.6607 108.125 98.8015 107.574 98.8198C100.417 98.9275 93.3352 100.087 86.1736 100.138C80.0842 100.473 73.9849 100.406 67.8882 100.438C63.7939 100.319 48.4669 101.258 46.6235 97.6154C44.6308 92.5186 44.304 86.865 43.6161 81.472C43.0384 79.3643 42.9735 77.0998 42.8352 74.9676ZM40.1191 44.5939C39.9282 45.1814 39.5916 45.72 39.6051 46.25C39.7874 54.1228 40.2342 61.9858 40.7666 69.8415C40.9135 71.0104 40.6797 72.6751 41.7385 73.4303C42.9417 74.0056 44.9919 72.8121 45.0678 71.4572C45.0078 62.6884 43.8646 54.0432 43.3664 45.2696C52.8329 46.5438 44.4093 40.6746 42.4594 37.3209C40.8817 34.8557 39.7275 36.9047 38.6956 38.5094C37.1289 40.8203 35.4165 42.9782 34.0481 45.4262C36.0334 46.6711 38.0371 44.0602 40.1191 44.5939Z" fill="black"/>
<path d="M51.4546 56.7652C53.8304 56.5168 56.2099 56.0908 58.593 55.9892C60.1903 55.9574 60.6346 56.7261 60.582 58.2745C60.2368 68.6932 60.3543 79.1291 60.9321 89.5368C60.9761 91.5319 61.3801 94.3985 59.489 95.614C56.6211 96.1183 51.0213 97.9592 50.8512 93.4071C50.4729 81.6701 50.2061 69.9307 49.3517 58.2145C49.0298 56.1496 49.801 56.4935 51.4399 56.649C51.4448 56.6869 51.4497 56.7261 51.4546 56.7652ZM52.8145 94.5405C52.8316 94.6948 52.8487 94.8478 52.8659 95.002C54.8035 95.4793 56.6982 95.0754 58.5477 94.4573C60.2307 93.9395 60.1132 91.9004 60.1879 90.4781C59.2699 79.2502 60.0606 68.042 59.3433 56.8154C56.675 57.097 54.4363 57.4091 51.9026 57.7334C50.4521 57.8314 50.2098 58.086 50.3383 59.5548C50.9307 64.0212 50.9576 68.6038 51.0103 73.0323C52.4754 71.8719 53.8708 70.7679 55.2661 69.6626C55.3555 69.7703 55.4461 69.8768 55.5354 69.9845C54.0385 71.3493 52.5403 72.7141 50.8622 74.2428C50.9368 75.6676 51.0262 77.3604 51.1155 79.0654C52.5097 77.8634 53.7263 76.8132 54.943 75.7643C55.0238 75.8585 55.1046 75.954 55.1866 76.0482C53.8512 77.2869 53.1633 79.189 51.1596 79.7839C51.2012 80.582 51.2416 81.3519 51.2906 82.3066C52.9001 80.8096 54.2918 79.5159 55.6835 78.2209C55.7766 78.3176 55.8696 78.4155 55.9626 78.5122C54.5966 80.2478 53.4436 82.1781 51.3138 83.3409C51.3285 83.7705 51.3457 84.2785 51.3616 84.7546C52.8561 83.5783 54.3004 82.4425 55.872 81.2062C55.0838 82.2956 54.3604 83.2797 53.6541 84.276C52.9809 85.2271 51.9124 85.8929 51.4081 86.9652C51.4974 87.0374 51.5868 87.1084 51.6761 87.1806C52.7618 86.0545 53.8475 84.9272 54.9332 83.8011C55.2564 84.7277 52.8879 87.3446 52.2526 88.1475C51.4375 89.0043 51.4424 89.7498 51.8634 90.7008C53.1964 89.2944 54.4828 87.9382 55.7692 86.5808C55.8855 88.5515 52.6149 90.893 52.0544 93.0778C52.2037 93.1696 52.353 93.2627 52.5036 93.3545C53.9467 91.5074 55.391 89.6616 56.9651 87.6469C56.1523 90.445 54.5978 92.5601 52.8145 94.5405Z" fill="black"/>
<path d="M75.2458 95.6344C73.116 96.1081 70.8577 96.0432 68.6863 96.2831C67.5345 96.3749 66.6961 95.96 66.5578 94.8302C65.652 89.3736 66.8344 83.8656 65.7977 78.4286C65.3889 77.0173 64.6851 69.6439 66.5823 69.5643C70.0291 68.8886 74.8247 67.8519 75.0573 72.8153C75.1332 79.5008 76.2274 89.567 75.2458 95.6344ZM74.5848 94.4851C75.3131 86.9819 74.3535 79.7431 73.9826 72.284C73.4428 68.7638 69.0119 70.213 66.7806 70.7418C66.4085 73.289 66.0841 75.6574 67.0205 78.0332C68.2702 77.3808 69.4232 76.7774 70.7696 76.0748C69.75 77.0613 68.9226 77.8826 68.0719 78.6795C67.0352 79.6501 66.9911 79.9108 67.7977 81.3515C68.7182 80.6868 69.63 80.0296 70.5419 79.371C70.6264 79.4555 70.7121 79.54 70.7965 79.6244C69.8908 80.6428 69.0303 81.7077 68.0621 82.6636C67.3338 83.3821 67.2836 84.1018 67.6496 85.1324C68.9275 84.3662 70.1013 83.6624 71.4783 82.8362C70.4036 84.9488 68.0339 85.4874 67.1294 87.3785C67.2347 87.4899 67.3399 87.6013 67.444 87.7139C68.914 86.4642 70.384 85.2144 71.8528 83.9635C70.6656 85.9342 69.4526 87.8424 67.1282 88.698C67.1784 89.1839 67.2249 89.6441 67.2885 90.2525C68.5701 89.3993 69.7023 88.6453 70.8345 87.8913C70.9177 87.9844 71.0009 88.0762 71.0842 88.1692C70.3963 88.8632 69.6949 89.5438 69.0254 90.2549C68.2983 91.0285 67.1784 91.5976 67.548 93.2488C69.0095 91.6796 70.3498 90.239 71.6913 88.7996C71.7684 90.3663 69.3559 92.1668 68.4721 93.4924C68.1111 93.9159 67.5248 94.255 68.1784 95.1264C70.2188 94.922 72.3669 94.7078 74.5848 94.4851Z" fill="black"/>
<path d="M90.0868 84.4119C90.1516 87.735 90.0109 91.0496 89.1688 94.2786C89.0819 94.6531 88.4674 95.1574 88.0843 95.1684C86.46 95.2125 84.8089 95.2345 83.2091 94.9934C81.3204 94.7082 80.8969 94.0399 80.9275 92.117C80.9643 89.8513 81.0377 87.5869 81.0769 85.3213C81.1405 81.5966 81.1931 77.8708 81.2433 74.1449C81.2592 72.9821 81.7672 72.1547 82.9019 71.8682C85.4649 71.3236 90.0586 70.8903 90.0305 74.7006C90.1039 77.9369 90.0917 81.1744 90.1149 84.4106C90.1051 84.4119 90.0966 84.4119 90.0868 84.4119ZM85.9496 88.0019C86.0451 88.0875 86.1418 88.1732 86.2373 88.2601C84.8664 89.795 83.4955 91.3299 81.9998 93.0044C83.4563 94.3312 85.2213 93.9481 87.0011 94.0485C88.0549 94.0436 88.7183 93.4866 88.793 92.3752C89.4026 86.4988 89.0035 80.5991 89.0329 74.7055C89.1724 71.7679 85.121 73.069 83.3009 72.9894C83.0328 73.0102 82.6056 73.4399 82.5812 73.7116C82.4074 75.5868 82.3205 77.4693 82.1956 79.533C83.5738 78.6174 84.6926 77.8732 85.8125 77.129C85.8774 77.2135 85.9423 77.2992 86.0072 77.3836C84.859 78.5929 83.6338 79.7349 82.5249 80.9797C82.0744 81.4902 81.8247 82.1291 82.5273 82.7998C83.6607 82.1156 84.766 81.4498 85.8701 80.7827C84.5188 83.6187 81.2849 83.7007 82.6571 84.9162C83.6191 84.3702 84.5849 83.8219 85.5506 83.2748C84.8811 85.9235 81.6154 85.877 82.3841 88.1598C83.7158 87.183 84.9827 86.2552 86.2483 85.3274C85.2581 87.4658 82.9839 88.5172 82.1185 90.6616C82.2042 90.7436 82.2899 90.8244 82.3755 90.9064C83.5689 89.937 84.7599 88.9701 85.9496 88.0019Z" fill="black"/>
<path d="M98.2238 93.8718C96.9362 93.6686 95.143 94.2366 95.2421 92.3663C95.1748 89.7665 95.1516 87.1655 95.0904 84.5657C95.0561 83.1201 94.9973 81.6734 94.919 80.229C94.8823 79.5632 94.7905 79.0736 95.804 79.0638C98.531 78.0087 98.3829 77.6525 101.594 78.4346C103.869 78.9622 103.192 82.6391 103.623 84.4678C103.86 87.152 103.25 89.8154 103.067 92.4862C103.008 93.1435 102.68 93.4434 102.086 93.5315C100.809 93.7188 99.5298 93.8926 98.2532 94.0725C98.2434 94.0064 98.2336 93.9391 98.2238 93.8718ZM99.0745 86.0455C98.6669 87.5767 97.5592 88.9427 96.2728 89.6245C96.3535 90.2708 96.4368 90.9317 96.5176 91.5854C97.7648 90.2867 98.9386 89.0651 100.112 87.8436C100.231 87.9415 100.351 88.0394 100.47 88.1373C99.3573 89.5658 98.2006 90.9587 97.0133 92.3259C97.0525 92.4483 97.0928 92.5707 97.132 92.6943C98.8285 92.3761 102.546 93.4299 102.578 90.8559C102.614 87.8191 102.94 84.7811 102.299 81.7847C102.078 79.8251 101.804 79.513 99.8958 79.1862C97.307 78.7431 95.6228 80.4677 96.3376 83.2646C97.3976 82.2144 98.3426 81.2768 99.2875 80.3392C98.5665 82.0761 96.9913 83.2009 96.0206 85.1373C97.2103 84.3282 98.0892 83.7309 98.968 83.1336C99.0659 83.2511 99.1651 83.3686 99.263 83.4861C98.4466 84.327 97.6694 85.212 96.8003 85.9966C96.0426 86.6808 95.9276 87.3625 96.4625 88.3197C97.3401 87.5547 98.1357 86.8619 99.0745 86.0455Z" fill="black"/>
<path d="M51.3212 76.2009C52.1657 74.5791 53.8402 73.9413 55.156 72.8789C53.9038 75.1739 53.2478 75.7627 51.3212 76.2009Z" fill="black"/>
</svg>
