<svg width="141" height="136" viewBox="0 0 141 136" fill="none" xmlns="http://www.w3.org/2000/svg">
<mask id="mask0_121_1062" style="mask-type:luminance" maskUnits="userSpaceOnUse" x="0" y="0" width="141" height="136">
<path d="M70.3584 0C109.216 0 140.717 30.4446 140.717 68C140.717 105.555 109.216 136 70.3584 136C31.5005 136 0 105.555 0 68C0 30.4446 31.5005 0 70.3584 0Z" fill="white"/>
</mask>
<g mask="url(#mask0_121_1062)">
<path d="M0 0H140.717V136H0V0Z" fill="#F2FB3E"/>
</g>
<path d="M74.3167 40.7861V43.0749L75.2153 43.3555L77.5493 41.9628L74.3167 40.7861Z" fill="#EAE028"/>
<path d="M91.4537 39.5391L89.505 40.7403L89.739 41.6532L92.1493 42.9088L91.4537 39.5391Z" fill="#EAE028"/>
<path d="M104.131 49.7771L101.859 49.5029L101.472 50.3628L102.577 52.8468L104.131 49.7771Z" fill="#EAE028"/>
<path d="M104.876 65.4147L103.496 63.5889L102.609 63.907L101.587 66.4258L104.876 65.4147Z" fill="#EAE028"/>
<path d="M96.6195 77.7735L96.3738 75.4978L95.4493 75.3154L93.2782 76.9512L96.6195 77.7735Z" fill="#EAE028"/>
<path d="M63.2119 50.2679L64.3602 52.2476L65.2782 52.0394L66.5997 49.6641L63.2119 50.2679Z" fill="#EAE028"/>
<path fill-rule="evenodd" clip-rule="evenodd" d="M45.4386 94.2895C43.2378 94.2365 43.6581 93.9999 43.662 96.2175C43.6632 96.9506 43.8081 97.3036 43.8197 97.9217C43.8288 98.4376 43.7744 99.3105 43.843 99.7695C44.4378 99.8031 44.8477 99.8122 45.2666 99.6118C45.3261 99.1605 45.308 98.7014 45.3197 98.2463C45.3326 97.7265 45.449 97.6282 45.4503 97.0308C45.4516 96.3351 45.5576 94.8791 45.4386 94.2895Z" fill="#EAE028"/>
<path fill-rule="evenodd" clip-rule="evenodd" d="M84.3031 98.9765C86.2427 99.2364 85.5612 98.7787 85.7022 97.3576L85.7526 94.4922L84.3781 94.5219C84.1957 95.268 84.2462 98.0339 84.3031 98.9765Z" fill="#EAE028"/>
<path fill-rule="evenodd" clip-rule="evenodd" d="M76.5589 99.5787L59.4969 99.8373C58.5478 99.8269 57.5999 99.8295 56.6521 99.8399C55.2711 99.8541 54.1332 99.9782 52.5079 99.9782L46.5171 99.9963C46.5132 98.9011 46.6412 98.6244 46.6412 98.186L46.7628 94.4129C48.5006 94.2952 58.0086 94.4232 60.8533 94.4297L82.8975 94.5047C83.3125 94.5047 83.1677 94.8848 83.16 95.746L83.1393 99.3808L76.5589 99.5787ZM84.303 98.9761C84.2461 98.0334 84.1957 95.2676 84.378 94.5228L85.7525 94.493L85.7021 97.3585C85.5612 98.7782 86.2426 99.236 84.303 98.9761ZM45.4387 94.29C45.5576 94.8784 45.4529 96.3356 45.4503 97.03C45.449 97.6261 45.3326 97.7257 45.3197 98.2455C45.3081 98.7007 45.3262 99.1597 45.2667 99.611C44.8477 99.8127 44.4378 99.8023 43.843 99.7687C43.7745 99.3084 43.8301 98.4356 43.8197 97.9209C43.8081 97.3041 43.6633 96.9498 43.662 96.2167C43.6581 94.0004 43.2379 94.237 45.4387 94.29ZM80.2286 93.1857C75.6498 93.1896 70.0832 93.262 65.6609 93.1521L65.6376 81.6193C67.0329 81.4421 72.7521 81.6464 74.2973 81.6568C75.3537 81.6632 78.033 81.5145 78.7092 81.8003C78.7428 82.6873 79.0209 83.6209 79.0635 83.9507L80.2467 90.6487C80.407 91.3095 80.27 91.3961 80.5635 92.4797C80.7898 93.3047 80.5661 93.1857 80.2286 93.1857ZM64.3316 93.1715C63.0386 93.2478 50.8476 93.2763 50.6187 93.112C50.5411 93.0319 50.4933 93.2672 50.5489 92.878C50.5489 92.8741 50.6251 92.6103 50.6368 92.5496C50.6769 92.3427 50.6523 92.0375 50.6872 91.7802C50.7195 91.5371 50.8036 91.4207 50.8307 91.1246C50.8618 90.7832 50.8359 90.6319 50.9148 90.3268L51.3105 87.3773C51.5329 86.5872 51.7501 84.0554 51.9299 83.0416C51.9777 82.7688 51.948 82.5296 51.9803 82.2645L52.1911 81.6529C52.363 81.5068 52.0126 81.596 52.4367 81.5339L53.6587 81.5391C55.5233 81.5417 63.9825 81.4926 64.4377 81.64C64.5372 83.48 64.4403 85.5967 64.4351 87.4652C64.4312 88.5307 64.5825 92.5133 64.3316 93.1715ZM49.27 93.1301L41.0849 93.1107C40.8923 93.0642 40.9724 93.0099 40.6582 93.0112C39.0949 93.0163 36.6432 92.8301 35.72 91.4233C35.7109 91.4091 35.6993 91.3897 35.6903 91.3754C35.2985 90.7768 35.1019 89.8419 35.2015 88.9975C35.4549 86.851 35.8713 86.2381 36.0588 85.1649C36.1286 84.7666 36.1751 84.5623 36.2747 84.208L36.757 82.3227C36.8773 81.9981 36.8825 81.7305 37.004 81.4033C39.5953 81.2973 42.4737 81.446 45.0482 81.4615C46.1046 81.468 47.161 81.4744 48.2175 81.477C48.7593 81.4783 49.3011 81.4809 49.8428 81.4835C50.6381 81.4874 50.8682 81.2611 50.8489 82.0033C50.8411 82.2762 50.3058 85.4998 50.2838 86.154L49.27 93.1301ZM92.8722 81.7318C93.0079 81.9128 94.1497 86.0713 94.2713 86.7928C94.4174 87.6605 94.7626 88.6781 94.7652 89.5548C94.7704 90.8272 94.045 92.322 92.9084 92.6297C90.3585 93.3215 91.3476 93.1793 88.5145 93.2038C86.3926 93.2219 84.0612 93.2659 81.9548 93.1793L81.4492 90.4354C81.3303 90.0552 81.2436 89.4889 81.1725 89.1216L80.0282 82.8166C80.0075 82.483 79.9726 82.2568 79.9363 81.9438C79.8911 81.5482 80.2777 81.6839 81.2023 81.6813L92.8722 81.7318ZM65.7075 68.377C67.0587 68.3085 75.4856 68.1365 76.2731 68.3136L76.8214 71.2256C76.9558 71.7571 76.9778 73.1393 77.314 74.2488C77.4925 74.8397 77.3787 74.9677 77.4795 75.3182C77.786 76.3772 77.7149 76.8362 77.8105 77.2772C77.8623 77.519 77.9205 77.5487 77.9631 78.0155C77.9864 78.278 78.3549 79.1857 78.298 80.3818L65.6868 80.3792C65.6053 79.6047 65.6557 75.472 65.657 74.3574C65.657 73.1187 65.5006 69.2925 65.7075 68.377ZM64.3665 80.3327L52.3967 80.215C52.226 79.6047 53.166 74.5759 53.2682 73.0462C53.3018 72.5484 53.4492 72.229 53.4815 71.6717C53.5358 70.7355 53.7983 69.767 53.8384 68.7507C53.8578 68.6938 54.0194 68.4688 54.1539 68.4352L64.4441 68.3964C64.5204 69.6933 64.5566 79.8736 64.3665 80.3327ZM94.0514 76.3112L95.4648 75.4384C95.7441 75.3686 95.7712 75.4979 95.7764 75.5483C95.8268 76.0668 95.9238 76.6009 95.7376 77.1957C95.404 77.2229 95.2424 77.2125 94.9062 77.0845C94.8984 77.0819 94.7057 76.9914 94.6721 76.9733C94.2493 76.7457 94.0631 76.6423 94.0514 76.3112ZM50.9976 80.2318L37.3984 80.2279C37.3337 79.8374 37.3764 79.8064 37.4863 79.5284C37.4928 79.5116 37.5031 79.4896 37.5096 79.4715L38.7613 75.0647C38.9009 74.6639 39.0975 73.6178 39.3742 72.8161C39.5604 72.2769 39.7 71.8915 39.8462 71.3717L40.2884 69.9532C40.4888 69.3843 40.4707 69.0093 40.7448 68.4843L52.6255 68.452C52.6566 68.88 52.4548 70.1356 52.3514 70.5662C52.2829 70.8519 52.3061 71.1584 52.2945 71.4506C52.2764 71.9368 52.2104 71.6924 52.1471 72.0842C52.1031 72.3635 52.1238 72.6777 52.0837 72.9092L51.7424 75.0906C51.6583 76.5673 51.5846 75.7669 51.5393 76.4716L50.9976 80.2318ZM77.5494 68.2839L89.0835 68.2554C89.2464 68.6369 89.3602 69.2149 89.5102 69.6377C89.6615 70.0657 89.7998 70.5558 89.9369 71.0045L92.3394 79.315C92.7454 80.7581 93.017 80.4853 90.3843 80.4684C88.4408 80.4555 80.9837 80.515 79.7049 80.4077L77.5494 68.2839ZM65.7062 67.1344C65.5678 66.4736 65.6583 59.2286 65.6635 57.9445C65.6661 57.3691 65.6738 57.3627 66.248 57.3665C68.9375 57.3834 71.4176 57.3627 74.1318 57.4609L74.296 57.7389C74.2973 57.7428 74.3865 57.9174 74.3943 57.9407L74.9012 61.1048C74.9593 61.4604 75.1119 61.8768 75.1624 62.1832C75.3007 63.034 75.4119 63.8487 75.5477 64.6853C75.6421 65.2659 75.7132 65.112 75.7572 65.5853C75.8218 66.2926 75.9964 66.6404 75.902 67.0852L65.7062 67.1344ZM54.3763 64.587C54.5108 63.9288 54.4824 64.6297 54.5599 63.4039C54.5819 63.056 54.8819 61.6647 54.9065 60.9703C54.9298 60.3083 55.0267 60.3147 55.0875 59.7897L55.4457 57.3976C55.9228 57.289 62.4282 57.3394 63.9825 57.3808C64.0549 57.3821 64.1493 57.3834 64.2178 57.3963C64.3562 57.4209 64.3265 57.4338 64.3989 57.4765C64.5398 57.7971 64.5334 66.7154 64.4002 66.9947C64.2127 67.1809 64.2747 67.124 63.901 67.1344L54.1462 67.1473L54.3763 64.587ZM75.6227 57.479C77.1433 57.3808 81.413 57.6032 81.969 57.4221C82.1863 57.351 82.1876 57.2954 82.4927 57.3937C83.0268 57.567 83.3746 57.5411 83.8194 57.8476C83.9074 57.9083 83.9384 57.9277 84.0121 57.9782L85.1797 58.9234C85.7513 59.6695 85.9064 60.0716 86.2517 60.6134C87.056 61.8768 88.0568 64.9206 88.4641 66.387C88.6529 67.0684 88.5223 66.8098 88.4525 66.9352L78.2773 67.0684C77.3812 67.0749 77.3593 67.155 77.239 66.7917C77.0864 66.3288 76.4903 62.3927 76.2136 61.2367L75.9628 59.5997C75.8981 59.2208 75.5425 58.1463 75.6227 57.479ZM41.1651 67.2624C41.1716 66.9494 41.531 66.0133 41.6655 65.6279C41.7314 65.4391 41.7651 65.2529 41.8388 65.0564C43.1551 61.5237 44.0939 57.1803 48.4567 57.1959L54.1151 57.3213L52.866 67.0813C52.3268 67.3787 51.3169 67.2572 50.5683 67.2637C49.7562 67.2701 48.9429 67.2831 48.1308 67.2831C46.2067 67.2831 42.9482 67.3684 41.1651 67.2624ZM68.2367 56.186C68.1927 55.8666 68.3207 55.6106 68.4682 55.2808L68.9789 54.3291C68.9906 54.3084 69.0229 54.2477 69.0345 54.227L71.0439 51.5141C71.8844 50.5573 72.5723 49.8176 73.6236 49.0547C74.7654 48.2246 74.0335 48.6849 75.5011 47.7759C76.149 47.375 76.855 47.0763 77.5817 46.7712C80.2958 45.6294 83.566 45.5453 86.4612 46.1001C87.1891 46.2397 88.4848 46.669 89.1585 46.9729C90.0119 47.3582 90.6752 47.6776 91.5313 48.2013C92.5373 48.8168 94.5557 50.6917 95.1919 51.6732C95.3975 51.9913 95.7479 52.4051 95.9251 52.7167C96.4889 53.7085 97.2802 55.392 97.5337 56.4808C97.5647 56.6114 97.5802 56.7485 97.6242 56.8765C98.0522 58.1101 98.0276 60.7544 97.7716 62.0914C97.4005 64.0297 97.0759 65.4663 96.1359 67.274C95.7544 68.0072 94.923 69.1567 94.292 69.7347C94.1471 69.8666 94.2609 69.7683 94.1626 69.842C93.6803 70.1976 91.9062 71.4118 91.3321 71.3821L91.0968 70.4149C91.0619 70.2907 90.9998 70.2002 90.9701 70.1304L89.4404 65.3991C89.2994 65.0577 89.1624 64.6698 89.0512 64.2754C88.8986 63.7349 88.8469 63.5539 88.6426 63.109C88.4861 62.769 88.3775 62.3668 88.2236 61.9802C88.0775 61.6143 87.6146 60.4932 87.3715 60.1505C87.3624 60.1376 87.3456 60.1208 87.3366 60.1078C87.3275 60.0949 87.3133 60.0768 87.3042 60.0626C86.8555 59.3398 86.178 58.0441 85.2948 57.4467L85.1422 57.3523C84.6457 56.989 84.7621 57.0187 84.122 56.7291C83.35 56.3799 82.5807 56.2157 81.5307 56.2351L68.2367 56.186ZM42.4995 94.431L42.6301 100.097C41.8246 100.225 39.5694 99.7248 39.8862 100.909C39.9212 101.042 39.8992 100.957 39.9729 101.073C39.9819 101.088 40 101.106 40.0078 101.119L40.1022 101.252C41.1392 101.395 45.1115 101.313 46.3632 101.282C47.3899 101.257 48.4231 101.262 49.451 101.252C50.5191 101.242 51.5458 101.155 52.5389 101.148C54.5884 101.136 56.7245 101.092 58.7146 101.088C62.8575 101.081 66.9656 100.925 71.0646 100.904C73.1413 100.894 75.046 100.761 77.1588 100.759C80.173 100.758 83.3565 100.767 86.337 100.59C86.9823 100.551 88.8029 100.83 89.0589 100.197L89.0641 99.7093C88.1085 98.9244 86.9512 99.9898 86.9719 98.8183C86.9978 97.3882 86.9538 95.9102 87.056 94.4904C88.0633 94.3249 89.4274 94.5654 90.4878 94.4465C91.217 94.365 92.7855 93.9926 93.3984 93.765C93.9079 93.5762 94.1161 93.4612 94.4988 93.1534C96.4307 91.6017 96.0415 88.779 95.5682 86.5691L95.4286 86.2562C95.3652 86.0778 95.3135 85.726 95.2566 85.5256L94.332 82.0641C94.204 81.6594 94.1148 81.0322 94.0139 80.5564C93.9648 80.3275 93.8627 80.184 93.7799 79.9344L93.5329 78.8715C93.4295 78.3776 93.3183 78.1991 93.3092 77.6677C93.9855 77.6948 93.9997 78.0246 94.5738 78.2185C94.9915 78.3595 95.7699 78.4926 96.2303 78.2379C96.6156 78.0246 96.9389 77.6379 96.9932 77.2009C97.1005 76.3397 97.1406 74.7221 96.4837 74.0548C96.1113 73.6773 95.4609 74.0005 95.1363 74.2928C95.1234 74.3031 95.1105 74.3251 95.0988 74.3354C94.7885 74.6044 94.3256 74.7143 93.9907 74.9393C93.7644 75.0919 93.0338 75.6944 92.7623 75.6052L92.6704 75.5302C92.4584 75.2897 92.4325 74.9251 92.3278 74.638C92.258 74.4453 92.2799 74.5837 92.2218 74.2747C92.1325 73.7949 91.7976 73.0682 91.905 72.6351C93.317 71.8334 94.5118 71.4222 95.5954 70.2015C96.1902 69.5304 96.7242 68.8373 97.1781 68.0486C97.6643 67.2042 97.9423 66.3792 98.2591 65.4585C98.3871 65.0848 98.4246 64.8637 98.541 64.428C98.6884 63.8784 98.841 63.4737 98.8875 62.8983C98.9069 62.6565 98.9431 62.5892 98.9974 62.3694L99.2159 60.0548C99.2418 56.2455 97.8207 52.4839 95.2669 49.7504C94.3876 48.8103 93.3493 47.816 92.1972 47.1384C91.3114 46.6173 90.352 45.9953 89.3667 45.6669C88.2391 45.2919 87.1529 44.8458 85.9362 44.7527C85.547 44.723 85.2457 44.5962 84.8642 44.5626C83.3268 44.4255 81.5475 44.6208 80.0838 44.7346C79.6131 44.7708 79.0144 44.9764 78.6084 45.0979C78.3717 45.1691 78.3032 45.1238 78.0717 45.2169C77.0877 45.6113 76.0494 46.0522 75.1197 46.5578L74.7188 46.8229C73.7607 47.5147 72.7611 48.0668 71.8883 48.9267C71.6905 49.122 71.4952 49.3198 71.2702 49.528C71.0517 49.7297 70.912 49.9392 70.6483 50.1874C70.0483 50.7512 69.4082 51.5012 68.9776 52.2046C68.8173 52.4671 68.6311 52.6727 68.4552 52.9779C68.1798 53.455 67.7596 54.0498 67.5475 54.5813C67.4234 54.8942 67.3445 55.1683 67.2074 55.4606C66.9604 55.992 67.3212 56.1627 66.6023 56.1601C65.0053 56.1536 63.3851 56.0748 61.7222 56.0644C58.7159 56.0463 49.3334 55.7825 47.024 56.1692C45.8757 56.3618 44.6266 57.073 43.9012 57.995C43.1448 58.9557 42.4905 59.9475 42.025 61.0893L38.8311 70.2972C38.632 70.9812 38.4949 71.6562 38.2712 72.2782C37.9389 73.2027 37.7527 74.1285 37.4255 75.0828L37.1268 76.0694C36.9316 76.6966 36.7855 77.3599 36.6381 78.075L35.5739 82.0137C35.0308 83.8524 34.4437 86.167 34.0907 88.0005C33.9795 88.5773 33.9834 89.7268 34.0338 90.363C34.1476 91.8138 35.1265 92.9245 36.4066 93.5116L36.8243 93.7107C37.1967 93.8219 37.5044 93.8749 37.8807 93.968C38.2557 94.0611 38.5996 94.0702 38.8971 94.1736C39.7725 94.4762 40.9543 94.3223 41.897 94.3107L42.4995 94.431Z" fill="black"/>
<path fill-rule="evenodd" clip-rule="evenodd" d="M95.7222 60.4745C96.2239 60.4913 96.1825 60.5133 96.4618 60.2236C96.6247 58.9914 96.1463 57.375 95.876 56.3548C95.6704 55.5725 95.1881 54.2988 94.7368 53.6045L94.3101 52.9657C93.7554 52.0347 91.6568 49.8972 90.6715 49.2869C90.3973 49.1175 90.2822 49.0658 90.0585 48.8473C89.6719 48.8085 89.2245 48.7296 89.1043 49.1188C88.8961 49.7951 89.9072 49.9826 90.9094 50.9459C92.0227 52.0153 92.2671 52.3062 93.2072 53.4286C94.1744 54.5833 94.9774 57.2289 95.1325 58.681C95.183 59.1478 95.2929 59.1595 95.3187 59.6547C95.3485 60.2599 95.4118 60.1474 95.7222 60.4745Z" fill="black"/>
<path fill-rule="evenodd" clip-rule="evenodd" d="M74.6245 42.9086C74.5766 42.2724 74.6141 41.6841 74.7021 41.1294C75.3137 41.0815 75.9176 41.5251 76.4529 41.7345C76.5279 42.2906 76.0404 42.3319 75.1857 42.7483C74.9697 42.8556 74.9271 42.9125 74.6245 42.9086ZM73.9702 44.3439C74.7538 44.4241 75.1249 44.15 75.6913 43.8112C75.8529 43.7142 76.065 43.6315 76.2046 43.5371L77.1473 42.928C77.3373 42.8259 77.4809 42.7561 77.6709 42.6371C78.5451 42.0914 77.9024 41.6957 77.7783 41.5457C77.4369 41.1358 77.1938 40.8242 76.5925 40.5384C75.8594 40.1893 74.3775 39.2234 73.5564 40.7078C73.3431 41.0932 73.3625 43.0134 73.4982 43.3858C73.6961 43.925 73.687 44.0672 73.9702 44.3439Z" fill="black"/>
<path fill-rule="evenodd" clip-rule="evenodd" d="M102.278 66.0381C102.269 65.7988 102.9 64.1179 102.978 63.9756C103.387 64.0079 103.235 64.123 103.685 64.639C103.949 64.9415 104.197 65.0333 104.184 65.504C103.824 65.8299 102.86 66.029 102.278 66.0381ZM100.945 66.8048C101.242 67.1268 101.161 67.0932 101.675 67.1385C102.738 67.2316 104.123 66.9031 104.602 66.6445C105.224 66.3083 105.362 65.9359 105.34 65.1756C105.339 65.1458 105.331 64.9609 105.328 64.9402C105.278 64.6454 104.634 63.9782 104.458 63.7817C103.901 63.1571 104.369 63.2489 103.311 62.733C102.389 62.2843 102.301 62.733 101.983 63.3782L101.083 65.7975C100.967 66.1428 100.884 66.3911 100.945 66.8048Z" fill="black"/>
<path fill-rule="evenodd" clip-rule="evenodd" d="M63.9825 50.3923C64.0834 50.3328 64.0032 50.3755 64.1351 50.3173L65.7359 50.1815C65.9234 50.7065 65.8484 50.5319 65.7049 50.7324C65.3053 51.2871 64.9575 52.1146 64.6252 52.0009C64.417 51.9297 64.483 51.8586 64.3873 51.6065C64.2955 51.3647 64.32 51.4371 64.1868 51.2392C63.9851 50.9392 63.9295 50.8759 63.9825 50.3923ZM65.114 53.4892C65.3221 53.3081 65.4592 53.1711 65.6545 52.9538L66.9372 50.8332C67.0005 50.7259 67.2656 50.2048 67.2889 50.1194C67.4441 49.535 67.2579 49.5983 66.4988 49.2466C65.895 48.966 65.9273 49.0695 64.951 49.0798C64.0666 49.0889 63.7006 49.0359 63.1912 49.5233C62.0365 50.6302 63.327 52.0267 63.6864 52.6189C64.0795 53.2681 64.4248 53.5461 65.114 53.4892Z" fill="black"/>
<path fill-rule="evenodd" clip-rule="evenodd" d="M89.8722 41.3184C89.9187 41.0585 89.9226 41.0921 90.1295 40.8852C90.2704 40.7443 90.3325 40.699 90.4786 40.5736C90.7463 40.3447 90.8885 40.1676 91.2777 40.1572C91.698 40.4482 91.7756 41.3288 91.7833 41.9636C91.3346 41.9611 90.2885 41.5007 89.8722 41.3184ZM90.4799 39.1577L90.3674 39.2443C89.7907 39.6167 89.9174 39.671 89.3058 40.1068C89.033 40.3021 88.8869 40.3098 88.7537 40.6279C88.5416 41.1335 88.0334 41.74 88.7951 42.1317C89.5903 42.5404 90.3467 42.7369 91.2454 43.0291C91.6424 43.1584 92.6419 43.7287 92.8333 42.9722C93.0635 42.0593 92.8863 40.9395 92.6665 40.0279C92.5527 39.5573 92.0859 39.0465 91.5247 38.9922L90.7191 38.9987C90.3997 39.0905 90.6131 39.0426 90.4799 39.1577Z" fill="black"/>
<path fill-rule="evenodd" clip-rule="evenodd" d="M103.495 50.1979C103.333 50.8289 102.976 51.4185 102.684 51.8853C102.177 51.6952 102.271 51.5426 102.048 51.0681C101.865 50.6815 101.655 50.6168 101.642 50.0272C102.544 50.0879 102.824 49.9535 103.495 50.1979ZM100.23 49.3483C100.056 50.4125 100.783 51.0746 101.127 51.7392L101.714 52.8797C102.315 54.1055 102.986 53.1848 102.996 53.1784C103.143 53.0723 103.085 53.1409 103.206 53.0698C103.586 52.8461 104.534 51.0435 104.569 50.5586C104.613 49.9496 104.537 49.7492 104.197 49.4194L103.969 49.2255C103.532 48.8802 103.438 48.9565 102.57 48.9604C101.904 48.9617 101.193 48.7147 100.23 49.3483Z" fill="black"/>
<path fill-rule="evenodd" clip-rule="evenodd" d="M36.4131 88.9861C36.4144 89.5757 36.5127 90.1149 36.8023 90.5688C37.2316 91.2412 38.7018 92.3532 38.6553 90.7291C38.5854 90.6658 38.5686 90.6477 38.4962 90.583C38.4794 90.5688 38.429 90.5197 38.4096 90.5054C37.8497 90.0399 37.6066 89.9947 37.6066 88.8257C37.6066 88.2788 38.1574 85.8504 38.3061 85.3965C38.4458 84.9711 38.4186 85.4095 38.4807 84.9465C38.513 84.7099 38.4755 84.4513 38.4949 84.2379C38.0992 84.0362 38.1199 84.0582 37.6557 84.1267C37.3661 84.6026 37.2407 85.156 37.0402 85.6888C36.6678 86.6857 36.4118 87.9322 36.4131 88.9861Z" fill="black"/>
<path fill-rule="evenodd" clip-rule="evenodd" d="M82.8445 42.3594C83.8117 42.4887 83.7587 41.9107 83.7574 41.0792L83.7561 36.4669C83.7561 35.6445 83.8479 34.9475 82.9259 35.0031C82.379 35.2553 82.4565 36.3013 82.4565 36.5496L82.4811 41.7154C82.5406 42.0645 82.6156 42.0995 82.8445 42.3594Z" fill="black"/>
<path fill-rule="evenodd" clip-rule="evenodd" d="M100.717 58.8478C101.021 59.1814 100.956 59.1865 101.523 59.1865L107.295 59.1749C107.598 58.8465 107.521 59.0456 107.538 58.2555C107.053 57.9452 106.665 58.0357 105.897 58.0357L101.521 58.037C100.88 58.037 100.687 58.1986 100.717 58.8478Z" fill="black"/>
<path fill-rule="evenodd" clip-rule="evenodd" d="M89.0395 75.234C89.1495 75.5146 89.2813 75.5831 89.4546 75.7745L89.977 75.7422C89.9912 75.6969 89.9822 75.6555 90.1503 75.5262C90.2046 74.8758 89.3007 71.6225 89.046 70.4354L88.6452 69.3648C88.6309 69.3544 88.6141 69.3376 88.5986 69.3286C88.234 69.0919 88.0167 69.2639 87.8047 69.4863C87.7129 70.0992 88.0697 71.4402 88.2288 72.0505C88.4434 72.869 88.7641 74.5345 89.0395 75.234Z" fill="black"/>
<path fill-rule="evenodd" clip-rule="evenodd" d="M77.4963 59.1495C77.7343 59.231 81.616 59.2581 81.9833 59.1185C82.1035 58.8314 82.0958 58.8081 82.0466 58.4344C81.7428 57.8034 77.3153 58.1189 77.3153 58.1189L77.058 58.3361L77.0606 58.8417L77.4963 59.1495Z" fill="black"/>
<path fill-rule="evenodd" clip-rule="evenodd" d="M95.0276 47.7912C95.541 48.3201 95.8927 47.9917 96.2431 47.6386L97.615 46.2344C97.6862 46.1671 97.7353 46.1296 97.7857 46.0805L98.2603 45.5969L98.2939 45.0008C97.7547 44.565 97.4508 44.7926 96.9905 45.2141L95.5216 46.7529C95.2074 47.0568 94.9513 47.1899 95.0276 47.7912Z" fill="black"/>
<path fill-rule="evenodd" clip-rule="evenodd" d="M100.116 71.843L100.133 71.2741L98.104 69.5672C96.829 68.7707 96.5601 69.831 97.2441 70.3469C97.5958 70.612 97.8531 70.7982 98.1635 71.0555C98.4997 71.3361 98.7001 71.5301 99.0285 71.8133C99.441 72.1715 99.6854 72.2478 100.116 71.843Z" fill="black"/>
<path fill-rule="evenodd" clip-rule="evenodd" d="M69.1651 45.1734C69.1095 45.9338 69.3836 45.9454 70.0625 46.9061C70.3599 47.3251 70.8461 48.3324 71.5107 47.629C71.7512 47.1454 71.1978 46.5506 70.7853 45.9338C70.612 45.6739 70.4711 45.5058 70.2448 45.2588C69.9564 44.9446 69.9267 44.9135 69.3396 44.9614L69.1651 45.1734Z" fill="black"/>
<path fill-rule="evenodd" clip-rule="evenodd" d="M94.844 65.3416C95.2552 65.4166 95.4272 65.4968 95.6561 65.1826C95.8397 64.9304 96.1617 63.83 96.3026 63.3762C96.3983 63.0684 96.5211 62.612 96.3117 62.3404C96.1074 62.0754 95.6393 62.1129 95.4414 62.3663C95.21 62.6624 95.0845 63.6555 94.8544 64.205C94.6772 64.6279 94.7173 64.9796 94.844 65.3416Z" fill="black"/>
<path fill-rule="evenodd" clip-rule="evenodd" d="M84.8318 60.3711C84.9236 59.5474 84.5435 59.4298 84.0741 59.0561C82.8263 58.0604 81.9884 59.091 83.2944 59.9121C84.0495 60.3853 84.056 60.9944 84.8318 60.3711Z" fill="black"/>
<path fill-rule="evenodd" clip-rule="evenodd" d="M40.1747 91.8245C40.4036 91.9318 40.776 91.8878 41.054 91.9305C42.8255 92.1969 42.3108 91.0887 42.038 90.9594C41.5466 90.887 40.5342 90.7292 40.088 90.79C39.8049 91.059 39.673 91.3279 39.9911 91.6887C40.079 91.787 40.0066 91.7469 40.1747 91.8245Z" fill="black"/>
<path fill-rule="evenodd" clip-rule="evenodd" d="M90.0611 76.8681C89.6758 77.4345 89.9641 78.3551 90.3481 78.9319L90.9624 78.9409C91.3645 78.5077 91.3167 78.6616 91.0658 77.6142C90.8434 76.6923 90.5654 76.8474 90.0611 76.8681Z" fill="black"/>
</svg>
