<?xml version="1.0" encoding="UTF-8"?>
<!-- Generator: Adobe Illustrator 28.1.0, SVG Export Plug-In . SVG Version: 6.00 Build 0)  -->
<svg xmlns="http://www.w3.org/2000/svg" xmlns:xlink="http://www.w3.org/1999/xlink" version="1.1" id="Layer_1" x="0px" y="0px" viewBox="0 0 112 64" style="enable-background:new 0 0 112 64;" xml:space="preserve">
<style type="text/css">
	.st0{fill:#ED1C24;}
	.st1{fill:#022E5F;}
</style>
<path class="st0" d="M3.9,4.1h5c0.3,0,0.5,0.2,0.5,0.5L9.3,45.9c0,0.3-0.2,0.5-0.5,0.5h-5c-0.3,0-0.5-0.2-0.5-0.5L3.4,4.6  C3.4,4.3,3.6,4.1,3.9,4.1z"></path>
<path class="st0" d="M11.9,4.1h11.8c0.3,0,0.5,0.2,0.5,0.5V46c0,0.3-0.2,0.5-0.5,0.5H11.9c-0.3,0-0.5-0.2-0.5-0.5V4.5  C11.4,4.3,11.6,4.1,11.9,4.1z"></path>
<path class="st0" d="M30.8,4.1h3.3c0.3,0,0.6,0.3,0.6,0.6l0.1,41.1c0,0.3-0.3,0.6-0.6,0.6h-3.3c-0.3,0-0.6-0.3-0.6-0.6L30.2,4.7  C30.2,4.4,30.5,4.1,30.8,4.1z"></path>
<path class="st0" d="M37.4,4.1h8.3c0.3,0,0.5,0.2,0.5,0.5l-0.1,41.3c0,0.3-0.2,0.5-0.5,0.5h-8.3c-0.3,0-0.5-0.2-0.5-0.5l0.1-41.3  C36.9,4.3,37.1,4.1,37.4,4.1z"></path>
<path class="st0" d="M62.3,24c10.2,10.6-1.2,23.7-13.6,22.1c-0.3,0-0.5-0.2-0.5-0.5V4.8c0-0.3,0.1-0.4,0.4-0.4c8-1,13.2,2,15.6,9.2  c1.1,3.4,0.5,6.6-2,9.7C62,23.4,62.1,23.7,62.3,24z"></path>
<path class="st0" d="M70.1,4.1h4.2c0.2,0,0.4,0.2,0.4,0.3l0.1,20.3c0,0.2-0.2,0.4-0.3,0.4h-4.2c-0.2,0-0.4-0.2-0.4-0.3L69.8,4.5  C69.8,4.3,70,4.1,70.1,4.1z"></path>
<path class="st0" d="M77.5,25.2l-0.9-0.5c-0.2-0.1-0.4-0.4-0.4-0.6V4.8c0-0.5,0.2-0.7,0.7-0.7h21.4c0.4,0,0.5,0.2,0.5,0.5l-0.1,19.1  c0,0.3-0.1,0.6-0.3,0.9c-0.7,1-1.1,2.2-1,3.7c0.2,4.6,0.1,10.5-0.1,17.6c0,0.4-0.2,0.6-0.6,0.6H78.5c-0.3,0-0.6-0.3-0.6-0.6l0,0  V26.3C78,25.8,77.8,25.5,77.5,25.2z"></path>
<path class="st0" d="M100.9,4.1h3.3c0.2,0,0.4,0.2,0.4,0.4v20.2c0,0.2-0.2,0.4-0.4,0.4h-3.3c-0.2,0-0.4-0.2-0.4-0.4V4.5  C100.5,4.3,100.7,4.1,100.9,4.1z"></path>
<path class="st1" d="M33.3,54.3c1.5,0.8,3.9,1.6,4.5,3.2c1.5,4.2-4.5,4.8-6.9,3.6c-0.5-0.2-0.7-0.8-0.5-1.3c0.2-0.4,0.7-0.6,1.1-0.6  l2.8,0.5c0.4,0.1,0.8-0.2,0.9-0.7c0.1-0.3-0.1-0.7-0.4-0.8c-1.5-0.8-4.4-1.7-4.4-3.8c0-3.6,3.8-4.3,6.4-2.6c0.3,0.2,0.4,0.7,0.2,1  l0,0l-0.4,0.6c-0.2,0.3-0.5,0.4-0.8,0.2c-0.9-0.5-1.8-0.5-2.6,0C32.8,53.8,32.8,54.1,33.3,54.3z"></path>
<path class="st1" d="M55.3,56.1c0.1,3-2.4,5.6-5.6,5.7l0,0c-3.2,0.1-5.9-2.2-6-5.3c-0.1-3,2.4-5.6,5.6-5.7l0,0  C52.5,50.7,55.2,53,55.3,56.1z M52.6,56.4c0-1.7-1.4-3.1-3.1-3.1s-3.1,1.4-3.1,3.1s1.4,3.1,3.1,3.1l0,0  C51.2,59.5,52.6,58.1,52.6,56.4L52.6,56.4z"></path>
<path class="st1" d="M65.3,59.3h1.8c0.6,0,1.1,0.5,1.1,1.1s-0.4,1-1,1.1c-1.4,0.2-3,0.2-4.8,0c-0.4,0-0.5-0.3-0.5-0.6v-8.8  c0-0.4,0.2-0.7,0.6-0.8l1.1-0.2c0.4-0.1,0.8,0.2,0.8,0.5v0.1v6.9C64.5,59,64.8,59.3,65.3,59.3z"></path>
<path class="st1" d="M79.9,59.7c-1.9-0.5-3.3,0.1-4.2,1.7c-0.3,0.5-1,0.7-1.5,0.4s-0.7-0.8-0.5-1.3l2.9-8.2c0.4-1,1.4-1.5,2.4-1.1  l0,0c2.2,0.8,4,7.5,4.6,9.7c0.1,0.3-0.1,0.7-0.4,0.7c0,0,0,0-0.1,0c-1.2,0.2-2-0.2-2.6-1.2C80.5,60,80.3,59.8,79.9,59.7z M78.1,55.6  c-0.3,0.6-0.4,1.2-0.2,1.7c0.2,0.5,0.7,0.8,1.3,0.7c0.5-0.1,0.7-0.5,0.6-1c-0.2-0.7-0.5-1.2-1-1.6C78.5,55.3,78.2,55.3,78.1,55.6  L78.1,55.6z"></path>
<path class="st1" d="M92,58.4L91.8,61c0,0.4-0.2,0.6-0.6,0.6h-1.1c-0.5,0-1-0.4-1-0.9l0,0v-8.8c0-0.4,0.2-0.6,0.5-0.6  c2.1-0.3,5.9-0.6,7,2c0.5,1.2,0.1,2.5-1.1,3.8c-0.2,0.2-0.3,0.6-0.1,0.9l1.9,3.1c0.2,0.4,0.1,0.6-0.3,0.6h-2.1  c-0.2,0-0.4-0.1-0.5-0.3l-1.8-3C92.2,57.5,92,57.6,92,58.4z M93,56c0.7,0,1.2-0.7,1.2-1.5s-0.6-1.4-1.3-1.4c-0.7,0-1.2,0.7-1.2,1.5  C91.7,55.4,92.3,56,93,56z"></path>
</svg>
