<svg width="354" height="107" viewBox="0 0 354 107" fill="none" xmlns="http://www.w3.org/2000/svg">
<path d="M200.07 18.7522V3.30826C200.073 3.2235 200.058 3.13874 200.026 3.06014C199.994 2.98155 199.945 2.91014 199.884 2.85158L198.707 1.62537C198.646 1.55705 198.571 1.50311 198.487 1.46612C198.402 1.42914 198.311 1.41063 198.219 1.41166H185.568C185.476 1.41063 185.385 1.42914 185.301 1.46612C185.217 1.50311 185.142 1.55705 185.08 1.62537L183.904 2.85158C183.843 2.91425 183.796 2.98771 183.764 3.06836C183.732 3.14952 183.716 3.23583 183.718 3.32214V18.7235C183.716 18.8103 183.732 18.8966 183.764 18.9772C183.796 19.0579 183.843 19.1319 183.904 19.194L185.109 20.4346C185.171 20.5029 185.246 20.5574 185.33 20.5938C185.414 20.6308 185.505 20.6493 185.597 20.6488H198.219C198.311 20.6493 198.402 20.6308 198.487 20.5938C198.571 20.5574 198.646 20.5029 198.707 20.4346L199.884 19.2084C199.945 19.1498 199.994 19.0789 200.026 19.0003C200.058 18.9212 200.073 18.837 200.07 18.7522Z" fill="#212121"/>
<path d="M118.252 27.8364C97.1094 27.8364 80.9584 44.6782 80.9584 66.9955C80.9584 89.3128 97.0376 106.296 118.252 106.296C139.467 106.296 155.547 89.3128 155.547 66.9955C155.547 44.6782 139.539 27.8364 118.252 27.8364ZM139.453 84.0792C139.455 84.3006 139.413 84.521 139.329 84.7265C139.246 84.9319 139.122 85.1189 138.965 85.2772L135.91 88.457C135.749 88.6249 135.556 88.7585 135.341 88.8494C135.126 88.9399 134.895 88.9861 134.662 88.9846H102.044C101.811 88.9861 101.58 88.9399 101.365 88.8494C101.15 88.7585 100.957 88.6249 100.796 88.457L97.6835 85.2201C97.3693 84.8991 97.1947 84.4691 97.1957 84.0222V50.0685C97.1957 49.6282 97.3652 49.2049 97.669 48.8849L100.71 45.6902C100.873 45.5207 101.069 45.385 101.286 45.292C101.503 45.1991 101.736 45.1503 101.972 45.1487H134.676C134.909 45.1503 135.139 45.198 135.353 45.2884C135.568 45.3789 135.761 45.5109 135.924 45.6763L138.965 48.8561C139.122 49.0138 139.246 49.2013 139.329 49.4068C139.413 49.6123 139.455 49.8322 139.453 50.0541V84.0792Z" fill="#212121"/>
<path d="M316.141 27.8364C294.998 27.8364 278.933 44.6782 278.933 66.9955C278.933 89.3128 294.998 106.296 316.141 106.296C337.283 106.296 353.435 89.3128 353.435 66.9955C353.435 44.6782 337.427 27.8364 316.141 27.8364ZM337.341 84.0792C337.343 84.3006 337.301 84.521 337.217 84.7265C337.134 84.9319 337.01 85.1189 336.854 85.2772L333.755 88.457C333.597 88.6244 333.406 88.758 333.194 88.8489C332.981 88.9393 332.753 88.9856 332.521 88.9846H299.889C299.656 88.9861 299.425 88.9399 299.21 88.8494C298.995 88.7585 298.802 88.6249 298.641 88.457L295.529 85.2201C295.215 84.8991 295.04 84.4691 295.041 84.0222V50.0685C295.041 49.6282 295.21 49.2049 295.514 48.8849L298.569 45.6902C298.729 45.5196 298.922 45.3835 299.137 45.2905C299.351 45.197 299.583 45.1487 299.817 45.1487H332.521C332.754 45.1503 332.984 45.198 333.198 45.2884C333.413 45.3789 333.607 45.5109 333.769 45.6763L336.825 48.8561C337.132 49.1797 337.302 49.6092 337.298 50.0541L337.341 84.0792Z" fill="#212121"/>
<path d="M200.07 102.887V31.1007C200.074 31.0139 200.059 30.9271 200.027 30.8459C199.995 30.7652 199.946 30.6918 199.884 30.6301L198.708 29.4039C198.643 29.3402 198.568 29.2899 198.484 29.256C198.4 29.2216 198.31 29.2041 198.22 29.2041H185.568C185.478 29.2041 185.388 29.2216 185.304 29.256C185.221 29.2899 185.145 29.3402 185.081 29.4039L183.905 30.6445C183.844 30.7041 183.797 30.7755 183.765 30.8536C183.733 30.9322 183.717 31.0164 183.718 31.1007V102.858C183.715 102.944 183.73 103.028 183.762 103.106C183.794 103.186 183.843 103.256 183.905 103.315L185.11 104.57C185.237 104.702 185.412 104.779 185.597 104.784H198.22C198.404 104.779 198.579 104.702 198.708 104.57L199.884 103.343C199.944 103.284 199.992 103.213 200.024 103.134C200.056 103.056 200.072 102.972 200.07 102.887Z" fill="#212121"/>
<path d="M247.764 27.7068C238.669 27.5783 230.723 29.1328 224.698 38.0024C224.672 38.0389 224.638 38.0682 224.598 38.0882C224.558 38.1082 224.513 38.118 224.469 38.1165H223.551C223.516 38.1165 223.481 38.1098 223.448 38.0959C223.416 38.082 223.387 38.062 223.363 38.0363C223.339 38.0111 223.32 37.9813 223.308 37.9485C223.296 37.9156 223.291 37.8807 223.292 37.8457V31.1008C223.282 30.9323 223.217 30.772 223.106 30.6441L221.872 29.4179C221.747 29.2915 221.577 29.2201 221.399 29.2181H209.924C209.833 29.2181 209.744 29.2356 209.66 29.27C209.577 29.3039 209.5 29.3542 209.436 29.4179L208.245 30.6585C208.133 30.7839 208.071 30.9467 208.073 31.1147V102.858C208.07 102.943 208.085 103.027 208.117 103.107C208.149 103.185 208.198 103.256 208.26 103.315L209.465 104.57C209.593 104.702 209.768 104.779 209.953 104.783H222.575C222.76 104.779 222.935 104.702 223.063 104.57L224.239 103.343C224.299 103.283 224.347 103.212 224.379 103.134C224.411 103.056 224.427 102.971 224.425 102.887V46.7867C224.426 46.3398 224.601 45.9103 224.913 45.5888L227.954 42.3946C228.115 42.2266 228.309 42.093 228.524 42.0026C228.738 41.9117 228.969 41.8654 229.202 41.867H253.687C253.919 41.866 254.147 41.9122 254.359 42.0031C254.572 42.0935 254.763 42.2271 254.921 42.3946L257.976 45.5605C258.289 45.8821 258.464 46.3116 258.464 46.7585V102.887C258.461 102.971 258.476 103.056 258.508 103.135C258.54 103.213 258.588 103.284 258.65 103.343L259.855 104.598C259.953 104.695 260.078 104.76 260.214 104.783H273.123C273.258 104.757 273.383 104.693 273.482 104.598L274.658 103.372C274.719 103.309 274.767 103.235 274.799 103.155C274.831 103.074 274.847 102.988 274.845 102.901V57.5534C274.83 40.2843 263.255 27.9919 247.764 27.7068Z" fill="#212121"/>
<path d="M176.216 102.888V3.30826C176.219 3.2235 176.204 3.13874 176.172 3.06014C176.139 2.98155 176.091 2.91014 176.029 2.85158L174.853 1.62537C174.792 1.55705 174.716 1.50311 174.633 1.46612C174.548 1.42914 174.457 1.41063 174.365 1.41166H161.7C161.61 1.41063 161.521 1.42965 161.439 1.46664C161.357 1.50363 161.285 1.55756 161.226 1.62537L160.036 2.85158C159.919 2.98154 159.853 3.1485 159.849 3.32214V102.859C159.849 102.945 159.866 103.03 159.901 103.108C159.936 103.187 159.986 103.257 160.05 103.315L161.255 104.57C161.378 104.7 161.548 104.777 161.728 104.784H174.365C174.55 104.779 174.725 104.702 174.853 104.57L176.029 103.344C176.09 103.284 176.137 103.213 176.169 103.135C176.201 103.057 176.217 102.972 176.216 102.888Z" fill="#212121"/>
<path d="M47.8663 45.904L37.4379 44.1641C24.2559 42.1534 20.3541 39.2726 20.3541 31.7864V27.6223C20.3541 18.6952 26.0918 14.5167 38.4418 14.5167C52.37 14.5167 57.5051 18.6094 58.2078 30.7739C58.2084 30.9439 58.275 31.1078 58.3944 31.2301L59.5704 32.4563C59.6815 32.5698 59.8288 32.6402 59.9869 32.6561H74.7464C74.9045 32.6402 75.0518 32.5698 75.1624 32.4563L76.3529 31.2157C76.4702 31.0919 76.5363 30.929 76.5394 30.7595C76.202 28.7931 75.723 26.8533 75.105 24.9557C70.142 9.82508 56.4582 0 38.5855 0C19.4649 0 3.24199 14.1176 3.24199 30.9588C3.24199 45.6328 14.9751 57.0128 33.3641 59.8932L43.6488 61.4759C57.6916 63.4865 60.8617 65.754 60.8617 72.8842V77.6472C60.8617 87.2874 54.2059 91.7505 40.1635 91.7505C24.5282 91.7505 19.006 87.4723 18.2315 73.5546C18.2134 73.4123 18.1534 73.2782 18.0594 73.1693L16.8689 71.9431C16.7438 71.8172 16.5733 71.7453 16.3956 71.7433H1.85047C1.76004 71.7433 1.67065 71.7607 1.58694 71.7952C1.50323 71.8291 1.42676 71.8794 1.36268 71.9431L0.186634 73.1837C0.126178 73.2433 0.0786419 73.3147 0.0466054 73.3928C0.0145689 73.4714 -0.00144743 73.5556 0.000102728 73.6399C2.49585 93.1339 18.5327 106.282 39.8907 106.282C61.2487 106.282 78.2751 91.6796 78.2751 73.626C78.2751 58.2817 68.2776 49.2123 47.8663 45.904Z" fill="#212121"/>
<path d="M208.359 17.0829V3.74923H214.542C215.191 3.68964 215.844 3.76877 216.459 3.98144C217.074 4.19463 217.636 4.53624 218.106 4.98418C218.577 5.43162 218.945 5.9746 219.187 6.57563C219.428 7.17718 219.537 7.82291 219.505 8.46966C219.537 9.11539 219.429 9.76008 219.187 10.3601C218.946 10.9601 218.577 11.5015 218.105 11.9469C217.635 12.3923 217.072 12.7313 216.457 12.9409C215.842 13.1505 215.189 13.2255 214.542 13.1613H211.372V17.1255L208.359 17.0829ZM211.372 6.40199V10.4377H214.671C216.106 10.4377 216.522 10.0241 216.522 8.42702C216.522 6.8294 216.048 6.40199 214.671 6.40199H211.372Z" fill="#212121"/>
<path d="M220.108 12.0797C220.043 11.3836 220.132 10.6824 220.368 10.0238C220.605 9.36579 220.982 8.7663 221.475 8.26801C221.968 7.76972 222.564 7.38444 223.223 7.13889C223.881 6.89334 224.585 6.7937 225.286 6.84609C225.984 6.79472 226.685 6.89592 227.34 7.14302C227.995 7.38959 228.587 7.77589 229.075 8.27521C229.563 8.77401 229.935 9.37299 230.165 10.0305C230.395 10.6881 230.478 11.3872 230.407 12.0797C230.476 12.7706 230.392 13.4677 230.161 14.1227C229.93 14.7777 229.557 15.3746 229.068 15.8708C228.58 16.3665 227.989 16.7508 227.335 16.9948C226.682 17.2393 225.982 17.338 225.286 17.2845C224.587 17.3395 223.885 17.2419 223.227 16.9989C222.57 16.7554 221.974 16.3727 221.481 15.8775C220.988 15.3818 220.61 14.7854 220.373 14.1294C220.135 13.4734 220.045 12.7742 220.108 12.0797ZM227.481 12.0797C227.481 10.1261 226.921 9.48447 225.286 9.48447C223.651 9.48447 223.077 10.1261 223.077 12.0797C223.077 14.0333 223.637 14.661 225.286 14.661C226.936 14.661 227.481 14.0189 227.481 12.0797Z" fill="#212121"/>
<path d="M232.96 17.0848L230.607 7.10254H233.921L234.581 11.7372L234.968 14.7459H235.183L235.757 11.7372L236.976 7.10254H240.82L242.054 11.7515L242.599 14.7459H242.8L243.158 11.7515L243.861 7.10254H247.046L244.693 17.0848H240.749L239.444 12.3218L238.941 9.68338H238.726L238.224 12.3218L236.89 17.0848H232.96Z" fill="#212121"/>
<path d="M247.19 12.0914C247.122 11.401 247.206 10.7049 247.435 10.0505C247.665 9.3955 248.034 8.79807 248.519 8.29926C249.003 7.80046 249.59 7.41159 250.24 7.16039C250.889 6.90919 251.586 6.8008 252.282 6.84344C252.901 6.76843 253.53 6.82803 254.123 7.01861C254.717 7.20919 255.262 7.52563 255.721 7.94584C256.179 8.36656 256.54 8.88078 256.778 9.45407C257.017 10.0269 257.128 10.6443 257.102 11.2638C257.091 11.7426 257.043 12.2193 256.959 12.6899H250.03C250.03 14.1159 250.647 14.644 252.297 14.644C253.502 14.644 254.032 14.3872 254.032 13.7738V13.7312H257.001V13.931C257.001 16.0701 255.151 17.3245 252.254 17.3245C248.783 17.2819 247.19 15.2712 247.19 12.0914ZM250.059 10.9217H254.219C254.219 9.88096 253.602 9.29636 252.196 9.29636C250.79 9.29636 250.174 9.85219 250.045 10.8791L250.059 10.9217Z" fill="#212121"/>
<path d="M258.536 17.0838V7.10157H261.405V8.71305H261.534C261.775 8.16031 262.177 7.69232 262.688 7.36921C263.2 7.0466 263.797 6.88375 264.403 6.90173C266.512 6.90173 267.272 8.45621 267.272 10.4812V11.3941H264.274V10.8521C264.274 9.78258 263.929 9.42607 262.983 9.42607C262.036 9.42607 261.62 9.73943 261.62 10.8521V17.1409L258.536 17.0838Z" fill="#212121"/>
<path d="M268.003 12.0925C267.933 11.4031 268.015 10.7071 268.242 10.0526C268.47 9.39763 268.838 8.80019 269.321 8.30087C269.804 7.80155 270.39 7.41268 271.039 7.16148C271.689 6.90977 272.385 6.80189 273.08 6.84453C276.122 6.84453 277.9 8.64145 277.9 11.2654C277.896 11.7442 277.848 12.2214 277.757 12.6915H270.829C270.829 14.1175 271.46 14.6451 273.095 14.6451C274.314 14.6451 274.831 14.3883 274.831 13.7749V13.7323H277.814V13.9321C277.814 16.0711 275.978 17.3261 273.08 17.3261C269.581 17.283 268.003 15.2723 268.003 12.0925ZM270.872 10.9233H275.032C275.032 9.88205 274.401 9.29746 272.995 9.29746C271.589 9.29746 270.972 9.85379 270.858 10.8802L270.872 10.9233Z" fill="#212121"/>
<path d="M279.105 12.0772C279.105 8.89733 280.726 6.84407 283.408 6.84407C283.979 6.81222 284.549 6.93602 285.054 7.20263C285.56 7.46924 285.982 7.86787 286.277 8.35538H286.392V3.74951H289.389V17.1253H286.52V15.6993H286.42C286.114 16.252 285.652 16.7041 285.092 17C284.532 17.2964 283.897 17.4243 283.265 17.3678C280.683 17.2825 279.105 15.2287 279.105 12.0772ZM284.326 14.7299C285.76 14.7299 286.535 14.2306 286.535 12.876V11.2645C286.535 9.83843 285.76 9.39666 284.326 9.39666C282.576 9.39666 282.103 10.2376 282.103 12.0772C282.103 13.9167 282.576 14.7299 284.326 14.7299Z" fill="#212121"/>
<path d="M295.185 17.0827V3.74951H298.183V8.4838H298.312C298.632 7.96856 299.086 7.54834 299.626 7.26735C300.166 6.98635 300.772 6.85484 301.381 6.88669C304.15 6.88669 305.684 8.93997 305.684 12.1203C305.684 15.3001 304.25 17.3251 301.467 17.3251C300.813 17.3858 300.154 17.2614 299.568 16.9661C298.982 16.6712 298.492 16.2171 298.154 15.6566H298.053V17.0827H295.185ZM300.42 14.7299C302.141 14.7299 302.629 13.8885 302.629 12.0771C302.629 10.2663 302.156 9.39665 300.42 9.39665C298.986 9.39665 298.183 9.89545 298.183 11.2645V12.876C298.183 14.2306 298.986 14.7299 300.42 14.7299Z" fill="#212121"/>
<path d="M306.717 20.2645V17.7972H308.41C309.17 17.7972 309.442 17.6832 309.743 17.0559L309.93 16.6707L305.627 7.04541H308.969L310.619 11.2377L311.35 13.177H311.565L312.196 11.2377L313.631 7.04541H316.987L312.483 17.7972C312.247 18.6407 311.719 19.3738 310.992 19.8669C310.265 20.3601 309.386 20.582 308.51 20.4926C307.906 20.4793 307.305 20.4027 306.717 20.2645Z" fill="#212121"/>
<path d="M321.921 17.0827V3.74951H324.934V17.1253L321.921 17.0827Z" fill="#212121"/>
<path d="M326.885 17.0827V3.74951H333.512C336.38 3.74951 337.93 4.76202 337.93 7.08653C337.951 7.45177 337.897 7.81804 337.771 8.16274C337.646 8.50692 337.451 8.82234 337.198 9.08895C336.946 9.35607 336.641 9.56926 336.303 9.71515C335.966 9.86104 335.601 9.93707 335.233 9.93861V10.1379C335.67 10.1277 336.105 10.2073 336.509 10.3717C336.914 10.536 337.28 10.7821 337.585 11.0944C337.889 11.4063 338.125 11.7777 338.278 12.185C338.432 12.5924 338.499 13.0265 338.475 13.4606C338.475 15.7137 336.911 17.1253 333.827 17.1253L326.885 17.0827ZM329.897 8.99699H333.311C334.429 8.99699 334.917 8.75452 334.917 7.69937C334.917 6.64423 334.415 6.40176 333.311 6.40176H329.897V8.99699ZM329.897 14.3878H333.756C334.86 14.3878 335.462 14.188 335.462 12.9618C335.462 11.735 334.889 11.5357 333.756 11.5357H329.926L329.897 14.3878Z" fill="#212121"/>
<path d="M343.064 17.0827V6.40176H338.762V3.74951H350.466V6.4444H346.163V17.1253L343.064 17.0827Z" fill="#212121"/>
</svg>
