<?xml version="1.0" encoding="UTF-8" standalone="no"?>
<!DOCTYPE svg PUBLIC "-//W3C//DTD SVG 1.1//EN" "http://www.w3.org/Graphics/SVG/1.1/DTD/svg11.dtd">
<svg xmlns="http://www.w3.org/2000/svg" version="1.1" viewBox="0.00 0.00 112.00 64.00">
<rect fill="#ffffff" x="-2.97" y="-21.14" transform="translate(6.34,25.23) rotate(0.1)" width="5.94" height="42.28" rx="0.47"/>
<rect fill="#ffffff" x="11.40" y="4.07" width="12.70" height="42.32" rx="0.46"/>
<rect fill="#ffffff" x="-2.23" y="-21.14" transform="translate(32.49,25.24) rotate(-0.1)" width="4.46" height="42.28" rx="0.57"/>
<rect fill="#ffffff" x="-4.67" y="-21.15" transform="translate(41.51,25.23) rotate(0.1)" width="9.34" height="42.30" rx="0.50"/>
<path fill="#ffffff" d="
  M 62.30 23.96
  C 72.50 34.54 61.08 47.65 48.65 46.06
  Q 48.19 46.00 48.19 45.53
  L 48.21 4.74
  Q 48.21 4.35 48.59 4.30
  Q 60.62 2.75 64.22 13.47
  Q 65.93 18.56 62.26 23.17
  Q 61.93 23.58 62.30 23.96
  Z"
/>
<rect fill="#ffffff" x="-2.44" y="-10.51" transform="translate(72.27,14.62) rotate(-0.2)" width="4.88" height="21.02" rx="0.35"/>
<path fill="#ffffff" d="
  M 77.47 25.23
  L 76.60 24.68
  A 0.78 0.77 16.6 0 1 76.24 24.03
  L 76.28 4.77
  Q 76.28 4.07 76.98 4.07
  L 98.36 4.07
  Q 98.89 4.07 98.89 4.61
  L 98.78 23.70
  Q 98.77 24.18 98.49 24.56
  Q 97.39 26.06 97.46 28.25
  Q 97.69 35.21 97.33 45.83
  Q 97.31 46.42 96.72 46.42
  L 78.55 46.38
  A 0.58 0.58 0.0 0 1 77.97 45.80
  L 78.01 26.21
  Q 78.01 25.58 77.47 25.23
  Z"
/>
<rect fill="#ffffff" x="100.46" y="4.07" width="4.22" height="21.06" rx="0.44"/>
<path fill="#ffffff" d="
  M 33.30 54.35
  C 34.76 55.18 37.22 55.92 37.78 57.51
  C 39.28 61.73 33.26 62.29 30.92 61.07
  A 1.01 1.01 0.0 0 1 31.56 59.17
  L 34.37 59.66
  A 0.80 0.80 0.0 0 0 34.87 58.16
  C 33.39 57.41 30.43 56.47 30.42 54.33
  C 30.42 50.78 34.23 50.07 36.87 51.71
  A 0.72 0.72 0.0 0 1 37.10 52.71
  L 36.71 53.33
  Q 36.41 53.80 35.91 53.53
  Q 34.49 52.77 33.29 53.52
  Q 32.60 53.94 33.30 54.35
  Z"
/>
<path fill="#ffffff" d="
  M 55.3453 56.0860
  A 5.83 5.51 -2.3 0 1 49.7411 61.8256
  A 5.83 5.51 -2.3 0 1 43.6947 56.5540
  A 5.83 5.51 -2.3 0 1 49.2989 50.8144
  A 5.83 5.51 -2.3 0 1 55.3453 56.0860
  Z
  M 52.58 56.39
  A 3.06 3.06 0.0 0 0 49.52 53.33
  A 3.06 3.06 0.0 0 0 46.46 56.39
  A 3.06 3.06 0.0 0 0 49.52 59.45
  A 3.06 3.06 0.0 0 0 52.58 56.39
  Z"
/>
<path fill="#ffffff" d="
  M 65.27 59.27
  L 67.09 59.24
  A 1.11 1.11 0.0 0 1 67.26 61.45
  Q 65.10 61.75 62.47 61.43
  Q 61.93 61.36 61.93 60.81
  L 61.90 52.01
  Q 61.90 51.36 62.54 51.22
  L 63.65 50.98
  A 0.71 0.70 84.0 0 1 64.50 51.67
  L 64.50 58.52
  Q 64.50 59.28 65.27 59.27
  Z"
/>
<path fill="#ffffff" d="
  M 79.90 59.74
  Q 77.00 59.05 75.70 61.41
  A 1.09 1.09 0.0 0 1 73.72 60.52
  L 76.66 52.27
  A 1.88 1.88 0.0 0 1 79.10 51.15
  C 81.35 52.00 83.05 58.68 83.73 60.81
  A 0.60 0.59 77.3 0 1 83.26 61.57
  Q 81.53 61.85 80.70 60.34
  Q 80.43 59.87 79.90 59.74
  Z
  M 78.06 55.59
  Q 77.57 56.45 77.89 57.33
  A 1.02 0.88 31.5 0 0 79.77 57.03
  Q 79.48 56.02 78.72 55.45
  A 0.46 0.45 -56.3 0 0 78.06 55.59
  Z"
/>
<path fill="#ffffff" d="
  M 91.97 58.41
  L 91.84 61.02
  Q 91.81 61.60 91.23 61.61
  L 90.18 61.64
  A 0.97 0.96 -0.9 0 1 89.18 60.68
  L 89.17 51.89
  Q 89.17 51.36 89.69 51.28
  C 91.80 50.99 95.64 50.68 96.70 53.24
  Q 97.45 55.06 95.55 57.04
  A 0.71 0.71 0.0 0 0 95.47 57.91
  L 97.42 60.99
  Q 97.79 61.58 97.10 61.56
  L 95.03 61.52
  A 0.61 0.60 -14.6 0 1 94.53 61.23
  L 92.69 58.22
  Q 92.03 57.14 91.97 58.41
  Z
  M 92.9954 55.9980
  A 1.44 1.23 87.0 0 0 94.1483 54.4956
  A 1.44 1.23 87.0 0 0 92.8446 53.1220
  A 1.44 1.23 87.0 0 0 91.6917 54.6244
  A 1.44 1.23 87.0 0 0 92.9954 55.9980
  Z"
/>
</svg>
