<svg width="617" height="649" viewBox="0 0 617 649" fill="none" xmlns="http://www.w3.org/2000/svg">
<path d="M308.498 0C133.602 0 0 139.311 0 323.914C0 508.517 133.008 649 308.498 649C483.988 649 617 508.517 617 323.914C617 139.311 484.582 0 308.498 0ZM483.868 465.226C483.885 467.057 483.539 468.88 482.847 470.58C482.154 472.279 481.128 473.826 479.833 475.135L454.559 501.437C453.23 502.827 451.631 503.932 449.853 504.684C448.08 505.432 446.169 505.814 444.237 505.801H174.422C172.49 505.814 170.579 505.432 168.805 504.684C167.027 503.932 165.428 502.827 164.099 501.437L138.351 474.663C135.752 472.007 134.307 468.451 134.316 464.754V183.898C134.316 180.256 135.718 176.755 138.231 174.107L163.385 147.682C164.736 146.279 166.356 145.157 168.147 144.388C169.942 143.619 171.874 143.216 173.827 143.203H444.357C446.284 143.216 448.186 143.611 449.956 144.359C451.73 145.106 453.333 146.198 454.679 147.567L479.833 173.869C481.128 175.174 482.154 176.725 482.847 178.425C483.539 180.124 483.885 181.943 483.868 183.779V465.226Z" fill="#F2FB3E"/>
</svg>
